<svg xmlns="http://www.w3.org/2000/svg" xmlns:xlink="http://www.w3.org/1999/xlink" viewBox="0 0 388.21 423.85"><defs><style>.cls-1{fill:#3aaf95;}.cls-2{fill:#69a042;}.cls-3{fill:#a8cb62;}.cls-4{fill:#006453;}.cls-5{fill:none;}.cls-6{fill:#439fc5;}.cls-7{fill:#fffbf7;}.cls-8{fill:#5789c6;}.cls-9{fill:#fff6ee;}.cls-10{fill:#fed94e;}.cls-11{fill:#ec7824;}.cls-12{isolation:isolate;}.cls-13{clip-path:url(#clip-path);}.cls-14,.cls-17,.cls-21,.cls-28,.cls-37{mix-blend-mode:color-burn;}.cls-15,.cls-21,.cls-26,.cls-51{opacity:0.5;}.cls-16{fill:#9c9b9b;}.cls-17{opacity:0.3;}.cls-18{clip-path:url(#clip-path-2);}.cls-19{clip-path:url(#clip-path-3);}.cls-20{fill:#306b2d;}.cls-22{clip-path:url(#clip-path-4);}.cls-23{clip-path:url(#clip-path-5);}.cls-24{clip-path:url(#clip-path-6);}.cls-25{mix-blend-mode:color-dodge;}.cls-26{mix-blend-mode:overlay;}.cls-27{fill:#fff;}.cls-28,.cls-47{opacity:0.2;}.cls-29{clip-path:url(#clip-path-7);}.cls-30{clip-path:url(#clip-path-8);}.cls-31{clip-path:url(#clip-path-9);}.cls-32{clip-path:url(#clip-path-10);}.cls-33{clip-path:url(#clip-path-11);}.cls-34{clip-path:url(#clip-path-12);}.cls-35{clip-path:url(#clip-path-13);}.cls-36{clip-path:url(#clip-path-14);}.cls-37{opacity:0.1;}.cls-38{clip-path:url(#clip-path-15);}.cls-39{fill:#4d4d4d;}.cls-40{clip-path:url(#clip-path-16);}.cls-41{fill:#342d81;}.cls-42{clip-path:url(#clip-path-17);}.cls-43{clip-path:url(#clip-path-18);}.cls-44{fill:#301536;}.cls-45{fill:#184454;}.cls-46{fill:#7fc2e1;}.cls-47,.cls-51{mix-blend-mode:soft-light;}.cls-48{clip-path:url(#clip-path-19);}.cls-49{fill:#1d2a4c;}.cls-50{clip-path:url(#clip-path-20);}.cls-52{fill:#868584;}.cls-53{clip-path:url(#clip-path-21);}.cls-54{fill:#797979;}</style><clipPath id="clip-path" transform="translate(0.57 8.26)"><path class="cls-1" d="M324,345.5,313.59,60c0-.5-16.94,0-16.94,0V345Z"/></clipPath><clipPath id="clip-path-2" transform="translate(0.57 8.26)"><path class="cls-2" d="M364.6,15.74c-.42-.43-1-1.05-1.91-1.8a31.33,31.33,0,0,0-3.38-2.41,30.57,30.57,0,0,0-5-2.44,36,36,0,0,0-15.06-2.22,40,40,0,0,0-9.53,1.82,41,41,0,0,0-10,4.74,45.6,45.6,0,0,0-9,7.71,46.26,46.26,0,0,0-3.35,4.22,45.07,45.07,0,0,0-2.57-4.91,45.72,45.72,0,0,0-7.4-9.24,41.78,41.78,0,0,0-9-6.51,39.61,39.61,0,0,0-9-3.55,36,36,0,0,0-15.2-.61A31.91,31.91,0,0,0,258.77,2,31.18,31.18,0,0,0,255,3.76a26,26,0,0,0-2.21,1.41c-.49.35-.73.56-.73.56s.19.26.57.73.93,1.13,1.64,1.94,1.55,1.83,2.51,2.9,2,2.32,3.16,3.66c2.28,2.62,4.83,5.58,7.59,8.61s5.73,6.17,9.12,9.4c1.7,1.63,3.43,3.21,5.2,4.84s3.52,3.35,5.28,5.11c.43.45.89.88,1.31,1.34s.85.91,1.29,1.36c.82.93,1.71,1.85,2.49,2.8.38.43.75.86,1.11,1.3A28.88,28.88,0,0,0,290,48.29a29.41,29.41,0,0,0-9.64-1.68,28.35,28.35,0,0,0-9.89,1.7,26.83,26.83,0,0,0-8.46,5,24.92,24.92,0,0,0-5.78,7.41,22.49,22.49,0,0,0-2.31,9.21c3.34-.34,6.19-.73,8.74-1.08s4.82-.63,6.89-.78c4.13-.36,7.35-.34,10.72-.36s7,.07,11.51.28c2.75.08,5.72.24,9.13.26l.12.33.26-.33c1.08,0,2.2,0,3.38,0h.55l.33.66.38-.64c4.49.08,8.22-.15,11.63-.24,4.46-.21,8.14-.28,11.5-.28s6.59,0,10.72.36c2.07.15,4.34.43,6.89.78s5.4.74,8.74,1.08a22.49,22.49,0,0,0-2.31-9.21,24.92,24.92,0,0,0-5.78-7.41,26.83,26.83,0,0,0-8.46-5,28.31,28.31,0,0,0-9.89-1.7,29.32,29.32,0,0,0-6.3.72c.41-.29.82-.56,1.22-.85,2.06-1.41,4.1-2.77,6.14-4s4-2.5,6-3.79c3.93-2.54,7.43-5,10.7-7.55s6.33-4.9,9.06-7.06c1.36-1.1,2.63-2.06,3.78-3s2.16-1.72,3-2.4,1.52-1.21,2-1.6.7-.61.7-.61S365,16.17,364.6,15.74Z"/></clipPath><clipPath id="clip-path-3" transform="translate(0.57 8.26)"><path class="cls-3" d="M259.82,219.44s8.75,2.44,10.76,10.28-3.49,18.11-3.49,18.11-9.76-6.36-11.77-14.2S259.82,219.44,259.82,219.44Z"/></clipPath><clipPath id="clip-path-4" transform="translate(0.57 8.26)"><path class="cls-3" d="M297.27,201.54s9.08.4,12.81,7.58.69,18.43.69,18.43-10.94-4-14.67-11.18S297.27,201.54,297.27,201.54Z"/></clipPath><clipPath id="clip-path-5" transform="translate(0.57 8.26)"><path class="cls-3" d="M331.88,176s9-1.49,14.11,4.76,4.51,17.88,4.51,17.88S339,197,333.83,190.77,331.88,176,331.88,176Z"/></clipPath><clipPath id="clip-path-6" transform="translate(0.57 8.26)"><path class="cls-4" d="M223.78,235.18c42.92-6.5,83.48-26.75,114.91-56.64a211.63,211.63,0,0,0,24.1-27.35c1.34-1.81.28-4.61-1.49-5.67-2.1-1.26-4.34-.3-5.67,1.48A206.26,206.26,0,0,1,256,218.91a205.44,205.44,0,0,1-34.42,8.28c-2.21.33-3.44,3.12-2.89,5.1.66,2.36,2.86,3.23,5.1,2.89Z"/></clipPath><clipPath id="clip-path-7" transform="translate(0.57 8.26)"><path class="cls-3" d="M24.34,305.33s.62,9.06-6.1,13.58S0,321.67,0,321.67s2.74-11.33,9.46-15.84S24.34,305.33,24.34,305.33Z"/></clipPath><clipPath id="clip-path-8" transform="translate(0.57 8.26)"><path class="cls-3" d="M44.65,334.23s2.1,8.84-3.8,14.39-17.54,5.7-17.54,5.7.86-11.62,6.75-17.17S44.65,334.23,44.65,334.23Z"/></clipPath><clipPath id="clip-path-9" transform="translate(0.57 8.26)"><path class="cls-3" d="M77.09,345.15s6.54,6.31,4.58,14.16S70,373.59,70,373.59s-5.56-10.24-3.6-18.09S77.09,345.15,77.09,345.15Z"/></clipPath><clipPath id="clip-path-10" transform="translate(0.57 8.26)"><path class="cls-3" d="M152.67,364.24s4.56,7.86.52,14.88S138,389.64,138,389.64s-2.53-11.37,1.51-18.38S152.67,364.24,152.67,364.24Z"/></clipPath><clipPath id="clip-path-11" transform="translate(0.57 8.26)"><path class="cls-3" d="M116.05,334.89s7.51,5.13,6.89,13.2-9.13,16-9.13,16-7.19-9.17-6.57-17.24S116.05,334.89,116.05,334.89Z"/></clipPath><clipPath id="clip-path-12" transform="translate(0.57 8.26)"><path class="cls-4" d="M16,274.19c-2.42,17.9,1.77,36.62,12.53,51.29a62.86,62.86,0,0,0,46.12,25.65A59.6,59.6,0,0,0,101.29,347c7.91-3.19,18.38-10.09,27.17-6.5,7,2.87,10.23,11.33,13.3,17.63,3.59,7.37,7.85,14.08,14.31,19.26,14.28,11.44,34.27,14.37,50.78,6.08,4.93-2.47.6-9.85-4.32-7.39-12.77,6.41-28.47,4-39.79-4.29-6-4.4-9.83-10.35-13.07-16.92-3.33-6.76-6.47-14.15-12.51-19-7.45-6-16.75-5.62-25.35-2.5s-16.19,7.48-25.2,8.83a53.88,53.88,0,0,1-45.48-15c-13-13-19.38-32.56-16.92-50.74.31-2.29-.55-4.59-3-5.26-2-.55-4.95.68-5.26,3Z"/></clipPath><clipPath id="clip-path-13" transform="translate(0.57 8.26)"><ellipse class="cls-5" cx="239.5" cy="269.78" rx="117.69" ry="124.05"/></clipPath><clipPath id="clip-path-14" transform="translate(0.57 8.26)"><polyline class="cls-6" points="223.92 351.14 176.78 333.03 174.79 318.17 169.95 331.88 158.13 329.22 165.91 340.22 155.98 348.92 172.31 346.73 216.58 381.93"/></clipPath><clipPath id="clip-path-15" transform="translate(0.57 8.26)"><path class="cls-7" d="M193.58,270c-.1-2-13.67-6.46-13.67-6.46s.08,12.29,2.86,13.65S193.62,270.58,193.58,270Zm-21.69-8.61c.19-2-12.56-8.44-12.56-8.44s-1.76,12.16.79,13.93S171.82,262,171.89,261.35Zm1.27,25c-3-.58-8.73,9.2-8.53,9.79.61,1.87,14.89,2.62,14.89,2.62S176.21,286.92,173.16,286.34Zm27.35-15.93s2.37,12,5.36,12.87,9.42-8.49,9.28-9.09C214.68,272.28,200.51,270.41,200.51,270.41Zm-4.57,16.69c-3.09.27-5.91,11.22-5.56,11.73,1.09,1.64,15-1.5,15-1.5S199,286.83,195.94,287.1Z"/></clipPath><clipPath id="clip-path-16" transform="translate(0.57 8.26)"><path class="cls-6" d="M294.58,395.06l-5.19-23.93a188.13,188.13,0,0,1-1.34-73.06l4.13-23c4.05-18,4.53-43.18-27.71-53.37-23-7.26-35.18-3.05-41.69,3.16a27.77,27.77,0,0,1-29.1,6.13c-13.29-5.07-28.73-9.83-34-7-4.66,2.46-8.08,10.15-10,15.64a10.94,10.94,0,0,0,2.42,11.22c8.36,8.71,20.85,23,69.74,26.9,0,0-13.54,32.1-58,13a2.87,2.87,0,0,0-4,2.56c-.19,8,1.37,24.87,50.77,31.69,0,0-16.53,43.57-15.22,70.07Z"/></clipPath><clipPath id="clip-path-17" transform="translate(0.57 8.26)"><path class="cls-8" d="M242.24,415.59C240,351.27,242,329.74,210.55,325c0,0-24.05,54.41-23.8,90.6Z"/></clipPath><clipPath id="clip-path-18" transform="translate(0.57 8.26)"><circle class="cls-9" cx="246.32" cy="252.85" r="17.49"/></clipPath><clipPath id="clip-path-19" transform="translate(0.57 8.26)"><path class="cls-6" d="M270.86,340.81c9.3-4.52,38.59-9.4,38.59-9.4L314,317.85l2.47,11.59,14-1-8.23,10.66,8,6.76L314,343s-30.31,25.76-37.11,28.91"/></clipPath><clipPath id="clip-path-20" transform="translate(0.57 8.26)"><path class="cls-10" d="M255.34,219.38l34.55-18.44.18,40.49S264.17,237.14,255.34,219.38Z"/></clipPath><clipPath id="clip-path-21" transform="translate(0.57 8.26)"><circle class="cls-11" cx="290.58" cy="198.34" r="5.69" transform="translate(-60.88 182.51) rotate(-31.74)"/></clipPath></defs><g class="cls-12"><g id="Capa_2" data-name="Capa 2"><g id="Capa_1-2" data-name="Capa 1"><path class="cls-1" d="M324,345.5,313.59,60c0-.5-16.94,0-16.94,0V345Z" transform="translate(0.57 8.26)"/><g class="cls-13"><g class="cls-14"><g class="cls-15"><path class="cls-16" d="M324.64,82.28c.24.16-.71,2.21-3,5a37.87,37.87,0,0,1-4.43,4.59,41.36,41.36,0,0,1-13.44,7.86,38.55,38.55,0,0,1-6.17,1.61c-3.58.59-5.84.41-5.86.13s2.14-.76,5.49-1.74a58.5,58.5,0,0,0,5.77-2,59.74,59.74,0,0,0,6.69-3.3,58.76,58.76,0,0,0,6.15-4.21,57.86,57.86,0,0,0,4.58-4.05C322.93,83.77,324.35,82.08,324.64,82.28Z" transform="translate(0.57 8.26)"/></g><g class="cls-15"><path class="cls-16" d="M333.36,118.07c.14.24-1.66,1.76-5.12,3.29a24.35,24.35,0,0,1-2.89,1.1,34.64,34.64,0,0,1-3.43.92,36.08,36.08,0,0,1-16.19-.3,33.34,33.34,0,0,1-3.4-1,25.56,25.56,0,0,1-2.84-1.2c-3.41-1.66-5.15-3.25-5-3.48s2.21.76,5.62,2c.85.3,1.78.62,2.81.88s2.12.54,3.27.8a48,48,0,0,0,7.65.84,47.47,47.47,0,0,0,7.68-.56c1.16-.22,2.28-.39,3.3-.67s2-.51,2.84-.78C331.11,118.75,333.18,117.76,333.36,118.07Z" transform="translate(0.57 8.26)"/></g><g class="cls-15"><path class="cls-16" d="M328,136.56c.22.19-1.05,2.11-3.69,4.71a43.4,43.4,0,0,1-5,4.19,49.07,49.07,0,0,1-14.22,7.12,45.27,45.27,0,0,1-6.33,1.48c-3.67.55-6,.42-6,.13-.09-.71,8.92-1.71,18.68-6.67S327.49,136.06,328,136.56Z" transform="translate(0.57 8.26)"/></g><g class="cls-15"><path class="cls-16" d="M336.69,179.18c.17.21-1.85,2.38-6.05,4.59a33.87,33.87,0,0,1-35.24-2.52c-3.84-2.79-5.53-5.23-5.33-5.41s2.35,1.72,6.23,4A36.86,36.86,0,0,0,330,182.28C334.13,180.55,336.47,178.88,336.69,179.18Z" transform="translate(0.57 8.26)"/></g><g class="cls-15"><path class="cls-16" d="M331.94,187c.23.13-.78,2.63-3.47,6l-1.08,1.3c-.38.45-.82.88-1.26,1.34a38.48,38.48,0,0,1-3,2.75,44,44,0,0,1-7.81,5.06,43.4,43.4,0,0,1-8.75,3.16,35.88,35.88,0,0,1-4,.7c-.63.08-1.24.17-1.83.21l-1.69.07c-4.32.08-6.93-.62-6.89-.88s2.66-.27,6.77-.76l1.61-.22c.56-.07,1.13-.21,1.73-.32,1.19-.19,2.44-.55,3.76-.88a51.75,51.75,0,0,0,8.26-3.16,53,53,0,0,0,7.51-4.66c1.06-.85,2.1-1.63,3-2.47.45-.41.91-.78,1.31-1.18l1.14-1.15C330.12,189,331.62,186.81,331.94,187Z" transform="translate(0.57 8.26)"/></g><g class="cls-15"><path class="cls-16" d="M339.8,228.22c.2.18-1.6,2.66-5.56,5.6a39.45,39.45,0,0,1-36.68,5.25c-4.62-1.71-7.05-3.59-6.91-3.82s2.85,1,7.41,2.25a43.86,43.86,0,0,0,35.26-5C337.35,230,339.55,228,339.8,228.22Z" transform="translate(0.57 8.26)"/></g></g><g class="cls-17"><ellipse class="cls-16" cx="320.22" cy="68.73" rx="27.17" ry="5.1" transform="translate(-0.93 15.7) rotate(-1.33)"/></g></g><path class="cls-2" d="M364.6,15.74c-.42-.43-1-1.05-1.91-1.8a31.33,31.33,0,0,0-3.38-2.41,30.57,30.57,0,0,0-5-2.44,36,36,0,0,0-15.06-2.22,40,40,0,0,0-9.53,1.82,41,41,0,0,0-10,4.74,45.6,45.6,0,0,0-9,7.71,46.26,46.26,0,0,0-3.35,4.22,45.07,45.07,0,0,0-2.57-4.91,45.72,45.72,0,0,0-7.4-9.24,41.78,41.78,0,0,0-9-6.51,39.61,39.61,0,0,0-9-3.55,36,36,0,0,0-15.2-.61A31.91,31.91,0,0,0,258.77,2,31.18,31.18,0,0,0,255,3.76a26,26,0,0,0-2.21,1.41c-.49.35-.73.56-.73.56s.19.26.57.73.93,1.13,1.64,1.94,1.55,1.83,2.51,2.9,2,2.32,3.16,3.66c2.28,2.62,4.83,5.58,7.59,8.61s5.73,6.17,9.12,9.4c1.7,1.63,3.43,3.21,5.2,4.84s3.52,3.35,5.28,5.11c.43.45.89.88,1.31,1.34s.85.91,1.29,1.36c.82.93,1.71,1.85,2.49,2.8.38.43.75.86,1.11,1.3A28.88,28.88,0,0,0,290,48.29a29.41,29.41,0,0,0-9.64-1.68,28.35,28.35,0,0,0-9.89,1.7,26.83,26.83,0,0,0-8.46,5,24.92,24.92,0,0,0-5.78,7.41,22.49,22.49,0,0,0-2.31,9.21c3.34-.34,6.19-.73,8.74-1.08s4.82-.63,6.89-.78c4.13-.36,7.35-.34,10.72-.36s7,.07,11.51.28c2.75.08,5.72.24,9.13.26l.12.33.26-.33c1.08,0,2.2,0,3.38,0h.55l.33.66.38-.64c4.49.08,8.22-.15,11.63-.24,4.46-.21,8.14-.28,11.5-.28s6.59,0,10.72.36c2.07.15,4.34.43,6.89.78s5.4.74,8.74,1.08a22.49,22.49,0,0,0-2.31-9.21,24.92,24.92,0,0,0-5.78-7.41,26.83,26.83,0,0,0-8.46-5,28.31,28.31,0,0,0-9.89-1.7,29.32,29.32,0,0,0-6.3.72c.41-.29.82-.56,1.22-.85,2.06-1.41,4.1-2.77,6.14-4s4-2.5,6-3.79c3.93-2.54,7.43-5,10.7-7.55s6.33-4.9,9.06-7.06c1.36-1.1,2.63-2.06,3.78-3s2.16-1.72,3-2.4,1.52-1.21,2-1.6.7-.61.7-.61S365,16.17,364.6,15.74Z" transform="translate(0.57 8.26)"/><g class="cls-18"><g class="cls-14"><path class="cls-16" d="M303.87,73s0-.31,0-.9,0-1.44,0-2.55c0-.56,0-1.18,0-1.85s.06-1.41.09-2.2c.1-1.57.11-3.37.39-5.33.12-1,.23-2,.36-3.1s.37-2.17.56-3.32c.35-2.31,1-4.72,1.62-7.27a97.77,97.77,0,0,1,6-15.95A97.8,97.8,0,0,1,321.71,16c1.63-2,3.13-4,4.74-5.74.78-.86,1.5-1.73,2.27-2.49l2.22-2.18c1.38-1.43,2.79-2.55,4-3.59.6-.51,1.14-1,1.67-1.43l1.47-1.12,2-1.55c.47-.35.7-.55.7-.55l-.73.51L338-.61,336.5.49c-.53.42-1.08.91-1.69,1.41-1.19,1-2.61,2.14-4,3.57l-2.24,2.18c-.77.76-1.5,1.63-2.29,2.48-1.62,1.7-3.13,3.69-4.77,5.75a96.79,96.79,0,0,0-8.94,14.55,96.5,96.5,0,0,0-6,16c-.62,2.56-1.26,5-1.59,7.29-.19,1.15-.43,2.26-.56,3.34s-.23,2.11-.33,3.1c-.27,2-.27,3.77-.35,5.35,0,.79-.08,1.52-.08,2.2s0,1.29.05,1.85c0,1.11.06,2,.08,2.55S303.87,73,303.87,73Z" transform="translate(0.57 8.26)"/><path class="cls-16" d="M307.22,71.44s.13-.16.35-.47l1-1.35.7-1c.26-.35.58-.71.9-1.11.66-.79,1.36-1.73,2.27-2.65l1.39-1.48c.49-.51,1.05-1,1.6-1.51,1.08-1.07,2.37-2.06,3.7-3.14A54.47,54.47,0,0,1,339,49.07c1.67-.37,3.25-.77,4.76-1,.75-.11,1.47-.26,2.18-.33l2-.18c1.28-.15,2.46-.12,3.48-.15.52,0,1,0,1.44,0l1.2.06,1.67.07h.58l-.58-.06-1.66-.13-1.21-.08c-.44,0-.92,0-1.44,0-1,0-2.2,0-3.5.11l-2,.17c-.7.06-1.43.2-2.18.31-1.52.18-3.11.58-4.79,1a58.44,58.44,0,0,0-10.48,3.81A59.14,59.14,0,0,0,319,58.54c-1.33,1.09-2.62,2.1-3.7,3.18-.55.53-1.11,1-1.59,1.53l-1.39,1.5c-.91.93-1.6,1.88-2.25,2.68-.32.4-.63.77-.89,1.13l-.67,1-.94,1.38A5.57,5.57,0,0,0,307.22,71.44Z" transform="translate(0.57 8.26)"/><path class="cls-16" d="M371.85,8.44s-1.35.18-3.76.67a79.42,79.42,0,0,0-10,2.8,82.51,82.51,0,0,0-48.92,45.62,79.78,79.78,0,0,0-3.49,9.83c-.66,2.37-.94,3.7-.94,3.7s.11-.32.28-1,.39-1.55.76-2.72A84,84,0,0,1,368.11,9.21c1.19-.28,2.14-.43,2.77-.57S371.85,8.44,371.85,8.44Z" transform="translate(0.57 8.26)"/><path class="cls-16" d="M358.39,55.35a59.74,59.74,0,0,0-7.45.14,70.75,70.75,0,0,0-8,1,81.27,81.27,0,0,0-9.6,2.49,82.69,82.69,0,0,0-9.17,3.76,71.17,71.17,0,0,0-7,4,58.71,58.71,0,0,0-6.05,4.36l.43-.29,1.2-.87c.52-.39,1.15-.85,1.92-1.35s1.61-1.11,2.6-1.69A75.47,75.47,0,0,1,324.26,63,76.53,76.53,0,0,1,343,56.78a76.65,76.65,0,0,1,8-1.1c1.14-.13,2.18-.15,3.09-.21s1.7-.07,2.34-.07l1.48,0Z" transform="translate(0.57 8.26)"/><path class="cls-16" d="M364,63.64a50.66,50.66,0,0,0-6.73-1,63.94,63.94,0,0,0-7.39-.15,69.23,69.23,0,0,0-9,1,67.69,67.69,0,0,0-8.75,2.3,60.7,60.7,0,0,0-6.84,2.8A49.18,49.18,0,0,0,319.41,72l.42-.22L321,71.1c.51-.29,1.14-.65,1.89-1s1.57-.83,2.53-1.25a66.15,66.15,0,0,1,6.83-2.74A71.66,71.66,0,0,1,341,63.82a70.69,70.69,0,0,1,8.95-1,64.64,64.64,0,0,1,7.36.09c1.05,0,2,.17,2.82.25s1.54.18,2.12.27l1.34.19Z" transform="translate(0.57 8.26)"/><path class="cls-16" d="M387.63,18.27s-.36,0-1.05.15l-3,.48c-2.62.44-6.41,1.07-11.07,2a160,160,0,0,0-16.19,4A88.84,88.84,0,0,0,337.58,33a75.22,75.22,0,0,0-16,12.65,76.8,76.8,0,0,0-10.23,13.16,75.3,75.3,0,0,0-5.16,10c-1,2.46-1.49,3.85-1.49,3.85s.15-.33.41-1,.62-1.62,1.17-2.82a77.34,77.34,0,0,1,5.23-9.93,78.18,78.18,0,0,1,10.24-13.09A79.8,79.8,0,0,1,329,39.21a80.92,80.92,0,0,1,8.68-6,89.32,89.32,0,0,1,18.67-8.09,165.22,165.22,0,0,1,16.15-4.07c4.65-.94,8.43-1.6,11.05-2.06l3-.54Z" transform="translate(0.57 8.26)"/><path class="cls-16" d="M301.91,82s0-.34,0-1,0-1.63-.08-2.89c-.09-2.5-.3-6.13-.79-10.58a157,157,0,0,0-7.68-34.12,92.81,92.81,0,0,0-7.85-17.59,46.68,46.68,0,0,0-10.07-12,34.36,34.36,0,0,0-9-5.53A24.82,24.82,0,0,0,262.7-3s.33.12,1,.32,1.55.51,2.7,1a35.27,35.27,0,0,1,8.95,5.58,47.1,47.1,0,0,1,10,12,93.45,93.45,0,0,1,7.81,17.56,160.14,160.14,0,0,1,7.74,34.05c.51,4.45.75,8.07.88,10.57.06,1.25.1,2.22.13,2.88S301.91,82,301.91,82Z" transform="translate(0.57 8.26)"/><path class="cls-16" d="M288.44-8.26s.09.27.29.78l.88,2.24c.39,1,.85,2.15,1.35,3.54s1.11,3,1.68,4.74,1.24,3.7,1.85,5.8,1.25,4.36,1.89,6.73c1.21,4.78,2.38,10.07,3.31,15.67s1.5,11,1.88,15.91c.14,2.46.31,4.79.35,7s.11,4.23.1,6.09,0,3.55-.07,5S301.87,68,301.8,69l-.11,2.4c0,.55,0,.84,0,.84s.48-4.6.55-12.06c0-1.86,0-3.9-.07-6.1s-.19-4.53-.33-7c-.36-4.92-.95-10.31-1.85-15.93s-2.11-10.91-3.34-15.69c-.65-2.38-1.25-4.64-1.92-6.73s-1.28-4-1.89-5.8C290.36-4.06,288.44-8.26,288.44-8.26Z" transform="translate(0.57 8.26)"/><path class="cls-16" d="M324.71,2.52a68.68,68.68,0,0,0-4.79,5.67c-1.4,1.82-3,4.07-4.57,6.64a92.34,92.34,0,0,0-4.72,8.67A95.73,95.73,0,0,0,307,32.66c-.95,2.89-1.69,5.52-2.19,7.76a66.45,66.45,0,0,0-1.32,7.31s0-.17.11-.51.15-.82.26-1.45.25-1.4.45-2.29.39-1.91.68-3c.53-2.23,1.28-4.86,2.25-7.73a94.17,94.17,0,0,1,3.68-9.12A93.24,93.24,0,0,1,315.56,15c1.59-2.57,3.13-4.83,4.52-6.65.66-.94,1.33-1.73,1.89-2.45s1.06-1.32,1.48-1.8l.94-1.13C324.61,2.66,324.71,2.52,324.71,2.52Z" transform="translate(0.57 8.26)"/><path class="cls-16" d="M245.47-6.25l.72.66,2.07,1.86c1.8,1.61,4.41,4,7.58,6.89a208.55,208.55,0,0,1,23.1,24.59,121.29,121.29,0,0,1,10.22,15.5,93.29,93.29,0,0,1,6.25,13.82,79.89,79.89,0,0,1,2.84,9.82c.29,1.18.42,2.11.56,2.73s.2.95.2.95-.17-1.33-.66-3.7A76,76,0,0,0,295.59,57a91.6,91.6,0,0,0-6.21-13.87,119.36,119.36,0,0,0-10.23-15.55A202.49,202.49,0,0,0,256,3c-3.19-2.92-5.82-5.24-7.64-6.83l-2.11-1.82C245.74-6,245.47-6.25,245.47-6.25Z" transform="translate(0.57 8.26)"/><path class="cls-16" d="M276.9,39.83a1.69,1.69,0,0,0,.25.3l.75.84c.66.71,1.59,1.78,2.69,3.12a72.59,72.59,0,0,1,7.53,11.3,71.54,71.54,0,0,1,5.25,12.52c.52,1.66.89,3,1.12,4l.28,1.09a2.3,2.3,0,0,0,.12.37,2,2,0,0,0-.06-.39c-.06-.25-.14-.62-.24-1.1-.19-.95-.55-2.32-1-4A67,67,0,0,0,280.73,44c-1.12-1.33-2.07-2.38-2.76-3.07l-.78-.8A2.42,2.42,0,0,0,276.9,39.83Z" transform="translate(0.57 8.26)"/><path class="cls-16" d="M261.65,42.06a2.13,2.13,0,0,0,.36.24l1.09.64c.47.27,1,.6,1.7,1s1.4.88,2.19,1.46a58.36,58.36,0,0,1,5.38,4.24,57.88,57.88,0,0,1,10.78,12.77,60.09,60.09,0,0,1,3.28,6c.44.87.76,1.69,1.07,2.4s.55,1.34.73,1.85l.45,1.18a2.49,2.49,0,0,0,.18.4,45.89,45.89,0,0,0-2.26-5.91,55.6,55.6,0,0,0-3.24-6.07,61.9,61.9,0,0,0-4.93-6.82,63.69,63.69,0,0,0-5.9-6,54.6,54.6,0,0,0-5.44-4.2A44.74,44.74,0,0,0,261.65,42.06Z" transform="translate(0.57 8.26)"/><path class="cls-16" d="M245.66,57.71a2,2,0,0,0,.4.06l1.15.14c1,.09,2.45.29,4.23.58a72.88,72.88,0,0,1,26.24,9.78c1.54.94,2.76,1.74,3.59,2.32l1,.66a1.93,1.93,0,0,0,.34.21l-.31-.25-.93-.7c-.81-.61-2-1.44-3.55-2.4a69.08,69.08,0,0,0-26.31-9.8c-1.78-.27-3.24-.44-4.25-.51l-1.16-.08A1.74,1.74,0,0,0,245.66,57.71Z" transform="translate(0.57 8.26)"/><path class="cls-16" d="M254.93,45.42a1.66,1.66,0,0,0,.33.23l1,.61c.86.52,2.08,1.3,3.58,2.28a128.71,128.71,0,0,1,21.54,17.69c1.25,1.28,2.25,2.33,2.93,3.07l.79.84a2.27,2.27,0,0,0,.29.28,2.53,2.53,0,0,0-.25-.32l-.76-.87c-.65-.76-1.63-1.83-2.86-3.13a116.63,116.63,0,0,0-21.58-17.72c-1.51-1-2.75-1.71-3.62-2.21l-1-.56Z" transform="translate(0.57 8.26)"/><path class="cls-16" d="M248.82,65.7l.25,0,.71.08c.61.06,1.5.16,2.6.3a68.79,68.79,0,0,1,16.69,4.31c1,.41,1.85.76,2.42,1l.65.27.24.08a1.06,1.06,0,0,0-.21-.12l-.64-.33c-.56-.27-1.37-.65-2.39-1.08a60,60,0,0,0-16.74-4.33c-1.1-.12-2-.19-2.62-.21l-.71,0A1,1,0,0,0,248.82,65.7Z" transform="translate(0.57 8.26)"/></g></g><path class="cls-3" d="M259.82,219.44s8.75,2.44,10.76,10.28-3.49,18.11-3.49,18.11-9.76-6.36-11.77-14.2S259.82,219.44,259.82,219.44Z" transform="translate(0.57 8.26)"/><g class="cls-19"><g class="cls-14"><path class="cls-16" d="M259,242.77a16.93,16.93,0,0,0,2.74-3.31,17.27,17.27,0,0,0,2.3-3.64,32.69,32.69,0,0,0-5,7Z" transform="translate(0.57 8.26)"/><path class="cls-16" d="M262.54,228.72a58.11,58.11,0,0,0,9.18,6.68,57.66,57.66,0,0,0-9.18-6.68Z" transform="translate(0.57 8.26)"/><path class="cls-16" d="M256.31,238.33A38.19,38.19,0,0,0,263,232a19,19,0,0,0-3.52,3A18.71,18.71,0,0,0,256.31,238.33Z" transform="translate(0.57 8.26)"/><path class="cls-16" d="M269.8,244.38c.1-.12-.81-1-2-2.06a7.58,7.58,0,0,0-2.39-1.63c-.1.12.82,1,2,2.06A7.58,7.58,0,0,0,269.8,244.38Z" transform="translate(0.57 8.26)"/></g><path class="cls-20" d="M259.84,219.36c.84,2.38,1.56,4.78,2.27,7.19s1.36,4.83,2,7.25,1.22,4.87,1.75,7.32l.78,3.68c.22,1.24.48,2.47.67,3.72-.43-1.19-.8-2.39-1.2-3.58L265,241.33c-.72-2.4-1.35-4.83-2-7.25s-1.21-4.87-1.74-7.32S260.24,221.85,259.84,219.36Z" transform="translate(0.57 8.26)"/><g class="cls-21"><ellipse class="cls-16" cx="264.89" cy="222.93" rx="21.02" ry="2.67" transform="translate(-80.62 221.94) rotate(-38.55)"/></g></g><path class="cls-3" d="M297.27,201.54s9.08.4,12.81,7.58.69,18.43.69,18.43-10.94-4-14.67-11.18S297.27,201.54,297.27,201.54Z" transform="translate(0.57 8.26)"/><g class="cls-22"><g class="cls-14"><path class="cls-16" d="M301.73,224.45a33.81,33.81,0,0,0,3.34-7.9,16.2,16.2,0,0,0-1.93,3.84A16.83,16.83,0,0,0,301.73,224.45Z" transform="translate(0.57 8.26)"/><path class="cls-16" d="M302,210a29,29,0,0,0,5.12,2.47,27.8,27.8,0,0,0,5.33,2A57.72,57.72,0,0,0,302,210Z" transform="translate(0.57 8.26)"/><path class="cls-16" d="M298.13,220.74a19.09,19.09,0,0,0,2.75-3.68,19.66,19.66,0,0,0,2.3-4,18.61,18.61,0,0,0-2.76,3.67A18.42,18.42,0,0,0,298.13,220.74Z" transform="translate(0.57 8.26)"/><path class="cls-16" d="M312.63,223.57a7.67,7.67,0,0,0-2.44-1.54,7.8,7.8,0,0,0-2.7-1.05,14.84,14.84,0,0,0,5.14,2.59Z" transform="translate(0.57 8.26)"/></g><path class="cls-20" d="M297.27,201.46c1.36,2.12,2.61,4.3,3.85,6.48s2.41,4.4,3.57,6.62,2.29,4.46,3.36,6.74l1.59,3.41c.5,1.15,1,2.29,1.49,3.46-.68-1.06-1.31-2.14-2-3.21l-1.87-3.27c-1.24-2.18-2.41-4.4-3.58-6.62s-2.28-4.47-3.35-6.74S298.23,203.79,297.27,201.46Z" transform="translate(0.57 8.26)"/><g class="cls-21"><path class="cls-16" d="M315.17,194.09c1,1.07-3.69,7.16-10.5,13.59s-13.15,10.79-14.17,9.72,3.69-7.16,10.5-13.6S314.15,193,315.17,194.09Z" transform="translate(0.57 8.26)"/></g></g><path class="cls-3" d="M331.88,176s9-1.49,14.11,4.76,4.51,17.88,4.51,17.88S339,197,333.83,190.77,331.88,176,331.88,176Z" transform="translate(0.57 8.26)"/><g class="cls-23"><g class="cls-14"><path class="cls-16" d="M341,197.5a16.46,16.46,0,0,0,1.08-4.16,16.82,16.82,0,0,0,.54-4.27,16.62,16.62,0,0,0-1.08,4.17A16.72,16.72,0,0,0,341,197.5Z" transform="translate(0.57 8.26)"/><path class="cls-16" d="M338.28,183.26a28.31,28.31,0,0,0,5.52,1.36,29.15,29.15,0,0,0,5.63.81,29.46,29.46,0,0,0-5.52-1.36A29.15,29.15,0,0,0,338.28,183.26Z" transform="translate(0.57 8.26)"/><path class="cls-16" d="M336.71,194.62a19,19,0,0,0,1.94-4.17,19.23,19.23,0,0,0,1.41-4.37,19.31,19.31,0,0,0-1.93,4.17A19,19,0,0,0,336.71,194.62Z" transform="translate(0.57 8.26)"/><path class="cls-16" d="M351.49,194.37a7.51,7.51,0,0,0-2.71-1,7.74,7.74,0,0,0-2.86-.46,7.61,7.61,0,0,0,2.72,1A7.72,7.72,0,0,0,351.49,194.37Z" transform="translate(0.57 8.26)"/></g><path class="cls-20" d="M331.87,175.94c1.77,1.79,3.44,3.66,5.1,5.54s3.28,3.8,4.88,5.73,3.17,3.89,4.68,5.89l2.27,3c.73,1,1.48,2,2.18,3.08-.89-.89-1.73-1.82-2.59-2.73l-2.51-2.81c-1.67-1.87-3.28-3.8-4.88-5.73s-3.16-3.89-4.68-5.89S333.29,178,331.87,175.94Z" transform="translate(0.57 8.26)"/><g class="cls-21"><ellipse class="cls-16" cx="336.33" cy="181.15" rx="14.39" ry="2.67" transform="translate(-10.05 349.27) rotate(-53.04)"/></g></g><path class="cls-4" d="M223.78,235.18c42.92-6.5,83.48-26.75,114.91-56.64a211.63,211.63,0,0,0,24.1-27.35c1.34-1.81.28-4.61-1.49-5.67-2.1-1.26-4.34-.3-5.67,1.48A206.26,206.26,0,0,1,256,218.91a205.44,205.44,0,0,1-34.42,8.28c-2.21.33-3.44,3.12-2.89,5.1.66,2.36,2.86,3.23,5.1,2.89Z" transform="translate(0.57 8.26)"/><g class="cls-24"><g class="cls-25"><g class="cls-26"><path class="cls-27" d="M242.93,219.27c-.1,0,.28,1,.42,2.66a11.45,11.45,0,0,1-5.46,10.9c-1.4.88-2.41,1.16-2.38,1.26a1.82,1.82,0,0,0,.73-.13,9.48,9.48,0,0,0,1.85-.79,11,11,0,0,0,5.65-11.28,9.13,9.13,0,0,0-.48-2A1.88,1.88,0,0,0,242.93,219.27Z" transform="translate(0.57 8.26)"/></g><g class="cls-26"><path class="cls-27" d="M276.09,209.16c-.08,0,.23.81.49,2.11a14.18,14.18,0,0,1,0,5.12,14,14,0,0,1-1.82,4.79c-.69,1.13-1.25,1.75-1.18,1.81a5.13,5.13,0,0,0,1.51-1.59,12.13,12.13,0,0,0,2-4.91,12.41,12.41,0,0,0-.21-5.31A5.14,5.14,0,0,0,276.09,209.16Z" transform="translate(0.57 8.26)"/></g><g class="cls-26"><path class="cls-27" d="M278.73,206c-.08.05.48.84,1.07,2.26a14.46,14.46,0,0,1,1.11,5.83,14.31,14.31,0,0,1-1.4,5.76c-.66,1.39-1.25,2.16-1.18,2.22a6.12,6.12,0,0,0,1.53-2,13,13,0,0,0,1.61-5.93,13.11,13.11,0,0,0-1.31-6A6.18,6.18,0,0,0,278.73,206Z" transform="translate(0.57 8.26)"/></g><g class="cls-26"><path class="cls-27" d="M313.77,184.63A15.72,15.72,0,0,0,315,187.1a24.2,24.2,0,0,1,2.5,6.1,11,11,0,0,1-.39,6.42,16.39,16.39,0,0,1-1.35,2.37s.24-.14.58-.49a6.87,6.87,0,0,0,1.13-1.72,10.63,10.63,0,0,0,.58-6.71,20.39,20.39,0,0,0-2.71-6.16A12.78,12.78,0,0,0,313.77,184.63Z" transform="translate(0.57 8.26)"/></g><g class="cls-26"><path class="cls-27" d="M306.89,186.5c-.06.08.78.75,1.85,2.08A15.43,15.43,0,0,1,312,201c-.3,1.68-.7,2.68-.61,2.71a7.41,7.41,0,0,0,1-2.64,14.38,14.38,0,0,0-.1-6.8,14.52,14.52,0,0,0-3.22-6A7.5,7.5,0,0,0,306.89,186.5Z" transform="translate(0.57 8.26)"/></g><g class="cls-26"><path class="cls-27" d="M318.86,176.12c-.07.08.89.86,2.11,2.4a19.73,19.73,0,0,1,1.87,2.88,21.31,21.31,0,0,1,1.55,3.89,21.62,21.62,0,0,1,.68,4.14,19.47,19.47,0,0,1-.12,3.43c-.25,1.94-.67,3.1-.57,3.14s.16-.27.36-.8a7,7,0,0,0,.31-1c.09-.38.22-.82.29-1.31a17.07,17.07,0,0,0,.24-3.52,18.12,18.12,0,0,0-2.29-8.25,17.3,17.3,0,0,0-2-2.88,11.25,11.25,0,0,0-.93-1,7.94,7.94,0,0,0-.76-.67C319.14,176.27,318.89,176.09,318.86,176.12Z" transform="translate(0.57 8.26)"/></g><g class="cls-26"><path class="cls-27" d="M336.56,161c0,.1,1.05.28,2.61,1a13.78,13.78,0,0,1,8,9.92c.35,1.67.31,2.75.41,2.75a7.06,7.06,0,0,0,0-2.82,13.26,13.26,0,0,0-2.75-6.23,13,13,0,0,0-5.52-4A6.83,6.83,0,0,0,336.56,161Z" transform="translate(0.57 8.26)"/></g><g class="cls-26"><path class="cls-27" d="M346.75,146.45c0,.1,1,.38,2.47,1.13a18.45,18.45,0,0,1,5.17,3.85,18.71,18.71,0,0,1,3.51,5.42c.64,1.53.86,2.56,1,2.54s0-.27-.06-.74a11.77,11.77,0,0,0-.53-2,16.44,16.44,0,0,0-8.88-9.48,10.69,10.69,0,0,0-1.9-.65C347,146.46,346.76,146.41,346.75,146.45Z" transform="translate(0.57 8.26)"/></g><g class="cls-26"><path class="cls-27" d="M261.28,213.34c-.07.06.44.69,1.05,1.82a13.56,13.56,0,0,1,1.52,4.72,13.89,13.89,0,0,1-.28,5c-.31,1.25-.65,2-.57,2a4.8,4.8,0,0,0,.95-1.91,12,12,0,0,0-1.28-10A5,5,0,0,0,261.28,213.34Z" transform="translate(0.57 8.26)"/></g><g class="cls-26"><path class="cls-27" d="M291.12,198.22c-.07.06.54.85,1.22,2.28a13.95,13.95,0,0,1,.13,11.91c-.65,1.44-1.25,2.24-1.18,2.29a6.24,6.24,0,0,0,1.53-2.12,12.93,12.93,0,0,0-.13-12.26A6.51,6.51,0,0,0,291.12,198.22Z" transform="translate(0.57 8.26)"/></g></g><g class="cls-28"><path class="cls-16" d="M370.31,135.1c.32.18-.74,2.58-3,6.8l-1.87,3.5c-.72,1.25-1.6,2.56-2.5,4-1.85,2.83-3.84,6.15-6.48,9.51l-4,5.35c-1.42,1.85-3.06,3.63-4.68,5.55l-2.51,2.9c-.42.49-.84,1-1.29,1.48l-1.39,1.42-5.77,5.91a213.19,213.19,0,0,1-28.58,23.09A215.12,215.12,0,0,1,275.91,222l-7.66,3.08-1.85.73-1.86.64-3.63,1.21-3.51,1.16c-1.15.37-2.27.78-3.4,1l-6.48,1.72c-4.1,1.17-7.92,1.77-11.23,2.43-1.67.3-3.21.62-4.64.83l-3.94.44c-4.74.5-7.36.6-7.41.23s2.47-1.16,7-2.27l3.81-.9c1.39-.35,2.87-.81,4.48-1.24,3.21-.93,6.91-1.77,10.86-3.16l6.26-2c1.1-.31,2.17-.77,3.29-1.18l3.39-1.28,3.51-1.31,1.79-.68,1.79-.78,7.4-3.21a245.09,245.09,0,0,0,31.37-17.39,240.67,240.67,0,0,0,28.14-22.21l5.8-5.61,1.4-1.35c.46-.45.88-.93,1.31-1.4.87-.92,1.72-1.84,2.55-2.74,1.66-1.81,3.34-3.49,4.82-5.24l4.21-5c2.79-3.14,4.94-6.25,7-8.88,1-1.32,2-2.53,2.83-3.69s1.56-2.24,2.24-3.2C368.32,137,370,134.91,370.31,135.1Z" transform="translate(0.57 8.26)"/></g></g><path class="cls-3" d="M24.34,305.33s.62,9.06-6.1,13.58S0,321.67,0,321.67s2.74-11.33,9.46-15.84S24.34,305.33,24.34,305.33Z" transform="translate(0.57 8.26)"/><g class="cls-29"><g class="cls-14"><path class="cls-16" d="M2.06,312.33a16.85,16.85,0,0,0,4,1.48,16.78,16.78,0,0,0,4.2.95,16.85,16.85,0,0,0-4-1.48A16.69,16.69,0,0,0,2.06,312.33Z" transform="translate(0.57 8.26)"/><path class="cls-16" d="M16.5,311a29.11,29.11,0,0,0-1.88,5.36,28.29,28.29,0,0,0-1.35,5.53,29,29,0,0,0,1.88-5.37A29,29,0,0,0,16.5,311Z" transform="translate(0.57 8.26)"/><path class="cls-16" d="M5.35,308.33a19.21,19.21,0,0,0,4,2.33,18.89,18.89,0,0,0,4.21,1.83,18.87,18.87,0,0,0-4-2.33A19.85,19.85,0,0,0,5.35,308.33Z" transform="translate(0.57 8.26)"/><path class="cls-16" d="M4.16,323.07a7.54,7.54,0,0,0,1.26-2.61,7.86,7.86,0,0,0,.74-2.79,7.43,7.43,0,0,0-1.26,2.6A7.83,7.83,0,0,0,4.16,323.07Z" transform="translate(0.57 8.26)"/></g><path class="cls-20" d="M24.41,305.32c-1.95,1.59-4,3.07-6,4.55s-4.1,2.89-6.17,4.3-4.18,2.77-6.32,4.08l-3.21,2c-1.09.63-2.16,1.28-3.27,1.87,1-.8,2-1.54,3-2.32l3-2.22c2-1.48,4.1-2.89,6.17-4.3s4.18-2.77,6.32-4.09S22.2,306.53,24.41,305.32Z" transform="translate(0.57 8.26)"/><g class="cls-21"><path class="cls-16" d="M22.48,326.71c-1.44.29-3.81-5.35-5.29-12.61s-1.5-13.38-.05-13.68S21,305.77,22.43,313,23.93,326.41,22.48,326.71Z" transform="translate(0.57 8.26)"/></g></g><path class="cls-3" d="M44.65,334.23s2.1,8.84-3.8,14.39-17.54,5.7-17.54,5.7.86-11.62,6.75-17.17S44.65,334.23,44.65,334.23Z" transform="translate(0.57 8.26)"/><g class="cls-30"><g class="cls-14"><path class="cls-16" d="M23.82,344.77a16.14,16.14,0,0,0,4.23.8,16.4,16.4,0,0,0,4.29.25,16.9,16.9,0,0,0-4.22-.8A17,17,0,0,0,23.82,344.77Z" transform="translate(0.57 8.26)"/><path class="cls-16" d="M37.85,341.1a29.37,29.37,0,0,0-1,5.59,28.52,28.52,0,0,0-.43,5.67,29.58,29.58,0,0,0,1-5.6A29.4,29.4,0,0,0,37.85,341.1Z" transform="translate(0.57 8.26)"/><path class="cls-16" d="M26.42,340.29a18.54,18.54,0,0,0,4.28,1.65,18.65,18.65,0,0,0,4.45,1.12,19.09,19.09,0,0,0-4.28-1.65A19.89,19.89,0,0,0,26.42,340.29Z" transform="translate(0.57 8.26)"/><path class="cls-16" d="M27.65,355a7.63,7.63,0,0,0,.82-2.77,7.35,7.35,0,0,0,.26-2.88A15.15,15.15,0,0,0,27.65,355Z" transform="translate(0.57 8.26)"/></g><path class="cls-20" d="M44.73,334.21c-1.67,1.88-3.42,3.68-5.19,5.46s-3.57,3.53-5.39,5.25-3.67,3.42-5.56,5.07l-2.85,2.47c-1,.79-1.92,1.61-2.92,2.38.83-.95,1.7-1.85,2.55-2.78L28,349.37c1.76-1.79,3.58-3.52,5.4-5.25s3.67-3.42,5.56-5.06S42.75,335.76,44.73,334.21Z" transform="translate(0.57 8.26)"/><g class="cls-21"><path class="cls-16" d="M49.09,348.23c-1.12.95-5.07-1.85-8.81-6.25s-5.86-8.76-4.73-9.71,5.06,1.84,8.81,6.25S50.22,347.27,49.09,348.23Z" transform="translate(0.57 8.26)"/></g></g><path class="cls-3" d="M77.09,345.15s6.54,6.31,4.58,14.16S70,373.59,70,373.59s-5.56-10.24-3.6-18.09S77.09,345.15,77.09,345.15Z" transform="translate(0.57 8.26)"/><g class="cls-31"><g class="cls-14"><path class="cls-16" d="M65.27,365.28a16.6,16.6,0,0,0,4-1.61A16.78,16.78,0,0,0,73,361.56a16.78,16.78,0,0,0-4,1.61A16.33,16.33,0,0,0,65.27,365.28Z" transform="translate(0.57 8.26)"/><path class="cls-16" d="M75.08,354.6a28.4,28.4,0,0,0,2.2,5.25,29.55,29.55,0,0,0,2.7,5,28.4,28.4,0,0,0-2.2-5.25A29.55,29.55,0,0,0,75.08,354.6Z" transform="translate(0.57 8.26)"/><path class="cls-16" d="M65,360.11a19.09,19.09,0,0,0,4.49-.93,18.86,18.86,0,0,0,4.36-1.47,19.74,19.74,0,0,0-4.5.93A18.88,18.88,0,0,0,65,360.11Z" transform="translate(0.57 8.26)"/><path class="cls-16" d="M74,371.83a7.65,7.65,0,0,0-.82-2.77,7.43,7.43,0,0,0-1.33-2.57,7.67,7.67,0,0,0,.82,2.78A7.44,7.44,0,0,0,74,371.83Z" transform="translate(0.57 8.26)"/></g><path class="cls-20" d="M77.15,345.09c-.39,2.49-.89,5-1.41,7.4s-1.11,4.9-1.7,7.33-1.24,4.86-2,7.27L71,370.71c-.39,1.19-.74,2.39-1.17,3.58.18-1.25.43-2.48.65-3.72l.76-3.68c.51-2.46,1.1-4.9,1.7-7.33s1.24-4.86,1.94-7.27S76.32,347.47,77.15,345.09Z" transform="translate(0.57 8.26)"/><g class="cls-21"><path class="cls-16" d="M89.24,353.46c0,1.46-5.35,2.52-11.81,1.58s-11.27-3.43-10.89-4.84,5.53-1.31,11.65-.44S89.28,352,89.24,353.46Z" transform="translate(0.57 8.26)"/></g></g><path class="cls-3" d="M152.67,364.24s4.56,7.86.52,14.88S138,389.64,138,389.64s-2.53-11.37,1.51-18.38S152.67,364.24,152.67,364.24Z" transform="translate(0.57 8.26)"/><g class="cls-32"><g class="cls-14"><path class="cls-16" d="M135.78,380.35a16.83,16.83,0,0,0,4.27-.45,17,17,0,0,0,4.19-1,16.33,16.33,0,0,0-4.28.45A16.66,16.66,0,0,0,135.78,380.35Z" transform="translate(0.57 8.26)"/><path class="cls-16" d="M148.14,372.78A59,59,0,0,0,150,384a56.93,56.93,0,0,0-1.9-11.19Z" transform="translate(0.57 8.26)"/><path class="cls-16" d="M137,375.31a18.53,18.53,0,0,0,4.58.34,19.23,19.23,0,0,0,4.59-.21,19.12,19.12,0,0,0-4.58-.34A19.29,19.29,0,0,0,137,375.31Z" transform="translate(0.57 8.26)"/><path class="cls-16" d="M142.4,389.06a7.85,7.85,0,0,0,0-2.89,7.68,7.68,0,0,0-.58-2.84,7.85,7.85,0,0,0,0,2.89A7.55,7.55,0,0,0,142.4,389.06Z" transform="translate(0.57 8.26)"/></g><path class="cls-20" d="M152.74,364.2c-1.05,2.29-2.21,4.51-3.39,6.73s-2.4,4.4-3.64,6.58-2.53,4.34-3.87,6.46l-2,3.18c-.71,1-1.38,2.1-2.11,3.13.51-1.15,1.09-2.27,1.64-3.4l1.74-3.34c1.17-2.22,2.41-4.4,3.65-6.58s2.53-4.33,3.87-6.45S151.29,366.26,152.74,364.2Z" transform="translate(0.57 8.26)"/><g class="cls-21"><path class="cls-16" d="M158.48,382.57c-1.21.85-5-2.52-8.5-7.52s-5.34-9.73-4.13-10.57,5,2.52,8.51,7.51S159.69,381.73,158.48,382.57Z" transform="translate(0.57 8.26)"/></g></g><path class="cls-3" d="M116.05,334.89s7.51,5.13,6.89,13.2-9.13,16-9.13,16-7.19-9.17-6.57-17.24S116.05,334.89,116.05,334.89Z" transform="translate(0.57 8.26)"/><g class="cls-33"><g class="cls-14"><path class="cls-16" d="M107.76,356.71a16.36,16.36,0,0,0,3.66-2.25,16.64,16.64,0,0,0,3.34-2.71A17.13,17.13,0,0,0,111.1,354,16.85,16.85,0,0,0,107.76,356.71Z" transform="translate(0.57 8.26)"/><path class="cls-16" d="M115.65,344.55a28.22,28.22,0,0,0,3,4.8,29.16,29.16,0,0,0,3.5,4.48,29,29,0,0,0-3-4.8A29.9,29.9,0,0,0,115.65,344.55Z" transform="translate(0.57 8.26)"/><path class="cls-16" d="M106.66,351.66a19.15,19.15,0,0,0,4.27-1.67,19.35,19.35,0,0,0,4-2.17,18.78,18.78,0,0,0-4.28,1.66A18.55,18.55,0,0,0,106.66,351.66Z" transform="translate(0.57 8.26)"/><path class="cls-16" d="M117.49,361.72a7.72,7.72,0,0,0-1.27-2.61,7.81,7.81,0,0,0-1.74-2.31,15.06,15.06,0,0,0,3,4.92Z" transform="translate(0.57 8.26)"/></g><path class="cls-20" d="M116.1,334.83c0,2.51-.06,5-.16,7.53s-.27,5-.45,7.51-.41,5-.7,7.49l-.44,3.74c-.19,1.24-.34,2.49-.56,3.73,0-1.26,0-2.51,0-3.77l.13-3.76c.09-2.51.27-5,.45-7.51s.41-5,.71-7.5S115.68,337.31,116.1,334.83Z" transform="translate(0.57 8.26)"/><g class="cls-21"><path class="cls-16" d="M129.55,339.09c.1,1.5-5.69,3.1-12.6,5.18s-12.66,3.86-13.39,2.54c-.34-.64.71-2,2.82-3.46a34.26,34.26,0,0,1,18.91-5.62C127.88,337.82,129.48,338.37,129.55,339.09Z" transform="translate(0.57 8.26)"/></g></g><path class="cls-4" d="M16,274.19c-2.42,17.9,1.77,36.62,12.53,51.29a62.86,62.86,0,0,0,46.12,25.65A59.6,59.6,0,0,0,101.29,347c7.91-3.19,18.38-10.09,27.17-6.5,7,2.87,10.23,11.33,13.3,17.63,3.59,7.37,7.85,14.08,14.31,19.26,14.28,11.44,34.27,14.37,50.78,6.08,4.93-2.47.6-9.85-4.32-7.39-12.77,6.41-28.47,4-39.79-4.29-6-4.4-9.83-10.35-13.07-16.92-3.33-6.76-6.47-14.15-12.51-19-7.45-6-16.75-5.62-25.35-2.5s-16.19,7.48-25.2,8.83a53.88,53.88,0,0,1-45.48-15c-13-13-19.38-32.56-16.92-50.74.31-2.29-.55-4.59-3-5.26-2-.55-4.95.68-5.26,3Z" transform="translate(0.57 8.26)"/><g class="cls-34"><g class="cls-25"><g class="cls-26"><path class="cls-27" d="M27.64,298.83c0-.08-.74.31-1.94.68a11.31,11.31,0,0,1-4.83.39,11,11,0,0,1-4.51-1.75c-1-.69-1.61-1.26-1.67-1.2s.4.72,1.44,1.53a10,10,0,0,0,9.7,1.4A4.45,4.45,0,0,0,27.64,298.83Z" transform="translate(0.57 8.26)"/></g><g class="cls-26"><path class="cls-27" d="M31.29,293.6c-.06-.08-.86.53-2.31,1.23a17.14,17.14,0,0,1-6,1.61,17,17,0,0,1-6.18-.69c-1.54-.47-2.43-.95-2.48-.86a7.41,7.41,0,0,0,2.35,1.24,15.21,15.21,0,0,0,12.49-.95A7,7,0,0,0,31.29,293.6Z" transform="translate(0.57 8.26)"/></g><g class="cls-26"><path class="cls-27" d="M39.23,314.61c-.07-.07-.84.75-2.27,1.82a22.59,22.59,0,0,1-6.13,3.29,21,21,0,0,1-3.71.93,10,10,0,0,1-3.09.11,4.39,4.39,0,0,1-2.49-1.25s.08.29.45.67a3.89,3.89,0,0,0,2,1,9.39,9.39,0,0,0,3.23,0,19.58,19.58,0,0,0,3.83-.91,19.8,19.8,0,0,0,6.18-3.51,14.39,14.39,0,0,0,1.55-1.49C39.09,314.86,39.26,314.63,39.23,314.61Z" transform="translate(0.57 8.26)"/></g><g class="cls-26"><path class="cls-27" d="M38.58,318.78a21.81,21.81,0,0,0-1.45,1.75,16,16,0,0,1-4.21,3.36,15.51,15.51,0,0,1-5.12,1.7c-1.37.21-2.25.18-2.25.27a5.82,5.82,0,0,0,2.3.13,13.7,13.7,0,0,0,9.58-5.21A5.88,5.88,0,0,0,38.58,318.78Z" transform="translate(0.57 8.26)"/></g><g class="cls-26"><path class="cls-27" d="M41.12,322.26c-.09,0-.44.93-1.27,2.32a17.41,17.41,0,0,1-4.18,4.71,17.17,17.17,0,0,1-5.6,2.88c-1.56.46-2.58.56-2.57.66a7.38,7.38,0,0,0,2.67-.28,15.56,15.56,0,0,0,10-7.77A7.4,7.4,0,0,0,41.12,322.26Z" transform="translate(0.57 8.26)"/></g><g class="cls-26"><path class="cls-27" d="M58.4,336.85c-.09,0-.14.84-.52,2.12a11.24,11.24,0,0,1-6.77,7.37c-1.24.48-2.08.61-2.06.7a4.9,4.9,0,0,0,2.2-.33,10.45,10.45,0,0,0,7-7.64A5,5,0,0,0,58.4,336.85Z" transform="translate(0.57 8.26)"/></g><g class="cls-26"><path class="cls-27" d="M80.67,340.18c-.18,0-.14,2.89-1.24,6.21a43.12,43.12,0,0,1-2.66,5.76,15.84,15.84,0,0,0,3.9-12Z" transform="translate(0.57 8.26)"/></g><g class="cls-26"><path class="cls-27" d="M89,340.88c-.18,0-.28,3-1.43,6.57a60.4,60.4,0,0,1-2.69,6.16A5.56,5.56,0,0,0,86.05,352a21.15,21.15,0,0,0,2-4.4,20.83,20.83,0,0,0,.94-4.73A5.83,5.83,0,0,0,89,340.88Z" transform="translate(0.57 8.26)"/></g><g class="cls-26"><path class="cls-27" d="M85.27,339.3a41.46,41.46,0,0,1-.79,6.88c-.9,3.73-2.66,6.37-2.5,6.46a6.18,6.18,0,0,0,1.2-1.68,18.53,18.53,0,0,0,2.37-9.61A5.55,5.55,0,0,0,85.27,339.3Z" transform="translate(0.57 8.26)"/></g><g class="cls-26"><path class="cls-27" d="M103.46,332.4c-.08,0,.4,1,.85,2.53a14.52,14.52,0,0,1-1.93,12.17c-.91,1.36-1.65,2.07-1.59,2.14a6.66,6.66,0,0,0,1.91-1.91,13.55,13.55,0,0,0,2-12.52A6.87,6.87,0,0,0,103.46,332.4Z" transform="translate(0.57 8.26)"/></g><g class="cls-26"><path class="cls-27" d="M128.57,330.6c-.09,0,.2.74.39,1.93a11.53,11.53,0,0,1-.25,4.65,11.31,11.31,0,0,1-2.09,4.15c-.76.93-1.36,1.41-1.3,1.48a4.25,4.25,0,0,0,1.59-1.22,10.1,10.1,0,0,0,2.34-4.27,10,10,0,0,0,.09-4.87A4.26,4.26,0,0,0,128.57,330.6Z" transform="translate(0.57 8.26)"/></g><g class="cls-26"><path class="cls-27" d="M135.83,333.32c-.1,0-.05.82-.25,2.08a11.86,11.86,0,0,1-5.28,8.08c-1.07.69-1.83,1-1.8,1.06a4.91,4.91,0,0,0,2-.72,10.91,10.91,0,0,0,5.47-8.37A4.77,4.77,0,0,0,135.83,333.32Z" transform="translate(0.57 8.26)"/></g><g class="cls-26"><path class="cls-27" d="M151.58,353.52c-.09,0-.3.78-1,1.88a8.76,8.76,0,0,1-3.7,3.31,8.89,8.89,0,0,1-4.92.65c-1.28-.2-2-.57-2.07-.48a4.23,4.23,0,0,0,2,.86,8.13,8.13,0,0,0,9-4.14A4.21,4.21,0,0,0,151.58,353.52Z" transform="translate(0.57 8.26)"/></g><g class="cls-26"><path class="cls-27" d="M166.57,371.32a17.22,17.22,0,0,0-.83,1.95,15.35,15.35,0,0,1-6.76,7.24,15.69,15.69,0,0,0-1.89,1,5.38,5.38,0,0,0,2.06-.62,13.36,13.36,0,0,0,6.95-7.44A5.23,5.23,0,0,0,166.57,371.32Z" transform="translate(0.57 8.26)"/></g><g class="cls-26"><path class="cls-27" d="M168.82,371.67c-.1,0,0,.92-.17,2.37a14.25,14.25,0,0,1-5.44,9.62c-1.16.89-2,1.28-2,1.37a6.08,6.08,0,0,0,2.18-1,13,13,0,0,0,3.94-4.31,12.81,12.81,0,0,0,1.66-5.6A6,6,0,0,0,168.82,371.67Z" transform="translate(0.57 8.26)"/></g><g class="cls-26"><path class="cls-27" d="M173.47,373.63c-.09,0,.29,1,.53,2.52a12.9,12.9,0,0,1-3.62,11.23c-1.11,1.12-2,1.64-1.91,1.72a6,6,0,0,0,2.18-1.44,12.12,12.12,0,0,0,3.74-11.58A6.28,6.28,0,0,0,173.47,373.63Z" transform="translate(0.57 8.26)"/></g></g><g class="cls-28"><path class="cls-16" d="M221.15,377.91c.17.2-2.71,3.1-9.27,6.27a54.72,54.72,0,0,1-12.57,4.18,56.62,56.62,0,0,1-17.63.71,54.75,54.75,0,0,1-20.41-6.7A58.41,58.41,0,0,1,142.78,366c-.65-.88-1.24-1.82-1.87-2.74s-1.16-1.91-1.74-2.88-1.06-2-1.57-3-.94-2-1.41-3a60.59,60.59,0,0,0-2.91-5.69,16.32,16.32,0,0,0-3.74-4.45,9,9,0,0,0-4.95-1.85,11.17,11.17,0,0,0-2.85.2,19.48,19.48,0,0,0-3,.82,58.41,58.41,0,0,0-6.23,2.78c-2.1,1.1-4.47,2.1-6.78,3.11a68.07,68.07,0,0,1-28.94,4.46l-3.54-.28-3.48-.5c-1.16-.14-2.29-.41-3.42-.65s-2.26-.44-3.35-.79l-3.28-.94c-1.08-.34-2.13-.76-3.18-1.13L55,348.84l-1.53-.67c-1-.46-2-.88-3-1.36a63,63,0,0,1-19.59-15,68.08,68.08,0,0,1-11.42-18.08,66.49,66.49,0,0,1-4.73-16.92,35.73,35.73,0,0,1-.42-3.71c-.1-1.2-.23-2.35-.21-3.45s0-2.16,0-3.17.11-2,.17-2.87a38.41,38.41,0,0,1,.55-4.77c.11-.69.2-1.32.32-1.89s.27-1.09.39-1.55c.49-1.84.83-2.77,1-2.73s.19,1,.05,2.9c0,.46-.08,1-.13,1.55s0,1.2-.06,1.88c0,1.36-.14,2.91-.06,4.67,0,.88,0,1.8.08,2.77s.17,2,.26,3,.25,2.16.42,3.3.31,2.32.61,3.52a67.62,67.62,0,0,0,5.24,15.88,66.65,66.65,0,0,0,11.25,16.66,60.4,60.4,0,0,0,18.44,13.5c.92.42,1.87.8,2.81,1.21l1.42.6,1.46.51c1,.33,2,.7,3,1l3.05.83c1,.32,2.07.46,3.12.7s2.1.45,3.17.57l3.24.43,3.28.23a64.09,64.09,0,0,0,26.68-4.2c2.13-.94,4.22-1.8,6.38-2.92a59.14,59.14,0,0,1,6.83-3,23.28,23.28,0,0,1,3.82-1,16.15,16.15,0,0,1,4.13-.26,14.23,14.23,0,0,1,7.81,3,21.13,21.13,0,0,1,5,5.93,61.25,61.25,0,0,1,3.12,6.22l1.35,3c.46.93.93,1.85,1.39,2.77s1,1.78,1.54,2.65,1.09,1.71,1.68,2.52a55.06,55.06,0,0,0,16.69,15.44,52.38,52.38,0,0,0,18.72,6.8,56.69,56.69,0,0,0,16.6.08,59.77,59.77,0,0,0,12.27-3.14C217.63,379.8,220.89,377.52,221.15,377.91Z" transform="translate(0.57 8.26)"/></g></g><g class="cls-35"><polyline class="cls-6" points="224.49 359.41 177.35 341.3 175.36 326.44 170.52 340.14 158.7 337.49 166.48 348.48 156.55 357.19 172.88 355 217.15 390.2"/><g class="cls-36"><g class="cls-14"><path class="cls-16" d="M172,338.48s.13,0,.35,0a7.13,7.13,0,0,0,1-.1,5.92,5.92,0,0,0,1.36-.4,2.34,2.34,0,0,0,1.33-1.13,2.24,2.24,0,0,0-.35-1.71,7.81,7.81,0,0,0-.83-1.15c-.26-.3-.49-.53-.65-.69s-.26-.23-.27-.22.32.38.81,1a9.13,9.13,0,0,1,.78,1.15,2.11,2.11,0,0,1,.32,1.55,2.27,2.27,0,0,1-1.22,1,7.25,7.25,0,0,1-1.31.42C172.5,338.43,172,338.45,172,338.48Z" transform="translate(0.57 8.26)"/><path class="cls-16" d="M180.93,351.68s.13,0,.35,0a7.3,7.3,0,0,0,.95-.1,5.92,5.92,0,0,0,1.36-.4,2.34,2.34,0,0,0,1.33-1.13,2.24,2.24,0,0,0-.35-1.71,7.81,7.81,0,0,0-.83-1.15c-.26-.3-.49-.53-.65-.69s-.26-.23-.27-.22.32.38.81,1a9.13,9.13,0,0,1,.78,1.15,2.11,2.11,0,0,1,.32,1.55,2.3,2.3,0,0,1-1.22,1,7.25,7.25,0,0,1-1.31.42C181.43,351.63,180.93,351.65,180.93,351.68Z" transform="translate(0.57 8.26)"/><path class="cls-16" d="M198.24,348.62s.13,0,.35,0a7.3,7.3,0,0,0,.95-.1,6.47,6.47,0,0,0,1.36-.4,2.34,2.34,0,0,0,1.33-1.13,2.24,2.24,0,0,0-.35-1.71,7.81,7.81,0,0,0-.83-1.15c-.26-.3-.49-.53-.65-.69s-.26-.23-.27-.22.32.38.81,1a8.45,8.45,0,0,1,.78,1.15,2.11,2.11,0,0,1,.32,1.55,2.24,2.24,0,0,1-1.22,1,6.63,6.63,0,0,1-1.31.43C198.74,348.57,198.24,348.59,198.24,348.62Z" transform="translate(0.57 8.26)"/><path class="cls-16" d="M200.08,364.65a5.19,5.19,0,0,0,.7,0,7.22,7.22,0,0,0,1.86-.52,3.2,3.2,0,0,0,1.1-.77,1.39,1.39,0,0,0,.16-1.51,5.49,5.49,0,0,0-.9-1.44c-.18-.23-.38-.45-.59-.67l-.32-.32-.17-.16c-.07-.1,0,0,0-.09v0a6.6,6.6,0,0,0,3.21-1.07,1.4,1.4,0,0,0,.66-1.35,3.09,3.09,0,0,0-.52-1.22,8.29,8.29,0,0,0-1.75-1.91,17.91,17.91,0,0,1,1.63,2,3,3,0,0,1,.48,1.17,1.25,1.25,0,0,1-.61,1.19,5.05,5.05,0,0,1-1.46.69,7.35,7.35,0,0,1-.84.2l-.44.07-.22,0-.29,0-.05.16s-.06.12,0,.18l.12.11.16.16.32.32c.2.21.4.43.58.65a5.39,5.39,0,0,1,.88,1.39,1.24,1.24,0,0,1-.12,1.34,3.13,3.13,0,0,1-1,.74A9.64,9.64,0,0,1,200.08,364.65Z" transform="translate(0.57 8.26)"/></g><g class="cls-17"><ellipse class="cls-16" cx="198.97" cy="367.39" rx="27.7" ry="9.57" transform="translate(-216.98 408.34) rotate(-66.05)"/></g><g class="cls-37"><path class="cls-16" d="M174.79,318.17c.78,0,1.56,1.36,2.27,3.77.35,1.2.68,2.67,1,4.33.15.84.3,1.72.43,2.66.08.65.12.46.16.56a.44.44,0,0,0,.13.09.89.89,0,0,0,.24-.05s0,0,.08,0l.27.09.56.19,1.13.4c1.51.54,3.08,1.13,4.67,1.76,12,4.76,21.17,10.22,20.39,12.19s-11.17-.31-23.21-5.08q-2.39-.94-4.61-1.91L172,334.41v-2.9c0-.88,0-2,0-2.31.06-.94.13-1.83.21-2.68a42.72,42.72,0,0,1,.62-4.4C173.35,319.65,174,318.21,174.79,318.17Z" transform="translate(0.57 8.26)"/></g><g class="cls-37"><path class="cls-16" d="M154.34,328.25c.53-2.05,4.43-2.8,8.71-1.69s7.31,3.67,6.78,5.72-4.43,2.8-8.71,1.69S153.81,330.29,154.34,328.25Z" transform="translate(0.57 8.26)"/></g><g class="cls-37"><path class="cls-16" d="M152.15,351.17c-1.19-1.75,1-5.28,4.8-7.89a17.21,17.21,0,0,1,2.77-1.54,13.9,13.9,0,0,1,2.22-.78,4.91,4.91,0,0,1,3.43,0,1.82,1.82,0,0,1,.86,1.41,4.49,4.49,0,0,1-.48,2.44,9.67,9.67,0,0,1-1.88,2.64,16.6,16.6,0,0,1-2.62,2.17C157.41,352.22,153.34,352.92,152.15,351.17Z" transform="translate(0.57 8.26)"/></g></g><path class="cls-7" d="M193.58,270c-.1-2-13.67-6.46-13.67-6.46s.08,12.29,2.86,13.65S193.62,270.58,193.58,270Zm-21.69-8.61c.19-2-12.56-8.44-12.56-8.44s-1.76,12.16.79,13.93S171.82,262,171.89,261.35Zm1.27,25c-3-.58-8.73,9.2-8.53,9.79.61,1.87,14.89,2.62,14.89,2.62S176.21,286.92,173.16,286.34Zm27.35-15.93s2.37,12,5.36,12.87,9.42-8.49,9.28-9.09C214.68,272.28,200.51,270.41,200.51,270.41Zm-4.57,16.69c-3.09.27-5.91,11.22-5.56,11.73,1.09,1.64,15-1.5,15-1.5S199,286.83,195.94,287.1Z" transform="translate(0.57 8.26)"/><g class="cls-38"><g class="cls-14"><path class="cls-39" d="M231.73,277.22c0,.27-1,.64-3.07,1.09l-1.69.36c-.62.11-1.3.18-2,.28-1.46.17-3.13.41-5,.46l-2.9.13c-1,0-2.07,0-3.16,0-2.19,0-4.51-.22-7-.42a89.14,89.14,0,0,1-30.56-8.89c-2.17-1.15-4.25-2.21-6.09-3.39-.93-.57-1.84-1.09-2.68-1.67l-2.38-1.67c-1.54-1-2.81-2.13-4-3.06-.56-.47-1.1-.9-1.56-1.32l-1.23-1.21c-1.47-1.46-2.18-2.36-2-2.56.38-.46,4,2.23,10.22,5.89l2.45,1.41c.84.49,1.77.93,2.7,1.43,1.84,1,3.91,1.94,6,3a121.59,121.59,0,0,0,14.44,5.33,119,119,0,0,0,15,3.25c2.35.29,4.58.62,6.69.75,1,.07,2.06.2,3,.24l2.83.12C227.14,277,231.65,276.63,231.73,277.22Z" transform="translate(0.57 8.26)"/></g><g class="cls-14"><path class="cls-39" d="M212.16,292.68c.16.46-2.3,1.92-6.72,3.15l-1.74.44c-.61.14-1.25.25-1.91.37-1.32.27-2.75.41-4.26.58a62.87,62.87,0,0,1-9.82,0,70.58,70.58,0,0,1-17.3-3.64c-4.26-1.51-6.72-2.87-6.56-3.36s2.91-.07,7.25.74A163.09,163.09,0,0,0,188,293.43c3.31.25,6.46.32,9.32.27,1.43-.07,2.79-.08,4.06-.21.64-.05,1.26-.08,1.84-.14l1.7-.18C209.26,292.67,212,292.14,212.16,292.68Z" transform="translate(0.57 8.26)"/></g></g><path class="cls-6" d="M294.58,395.06l-5.19-23.93a188.13,188.13,0,0,1-1.34-73.06l4.13-23c4.05-18,4.53-43.18-27.71-53.37-23-7.26-35.18-3.05-41.69,3.16a27.77,27.77,0,0,1-29.1,6.13c-13.29-5.07-28.73-9.83-34-7-4.66,2.46-8.08,10.15-10,15.64a10.94,10.94,0,0,0,2.42,11.22c8.36,8.71,20.85,23,69.74,26.9,0,0-13.54,32.1-58,13a2.87,2.87,0,0,0-4,2.56c-.19,8,1.37,24.87,50.77,31.69,0,0-16.53,43.57-15.22,70.07Z" transform="translate(0.57 8.26)"/><g class="cls-40"><path class="cls-41" d="M315,301.09a58.12,58.12,0,0,1-18.83,4.12,60.62,60.62,0,0,1-20.58-2.45,42.41,42.41,0,0,1-14.6-7.54,27.14,27.14,0,0,1-2.08-2,12.68,12.68,0,0,1-1.34-1.9,3.36,3.36,0,0,1-.45-3,3.72,3.72,0,0,1,2.48-1.73,13.8,13.8,0,0,1,2.1-.44c.79-.13,1.66-.23,2.58-.3,3.71-.31,8.45-.46,13.47-1A95.51,95.51,0,0,0,292.8,282a111.15,111.15,0,0,0,12.43-4.42Z" transform="translate(0.57 8.26)"/><path class="cls-41" d="M316.58,259.51A49.39,49.39,0,0,1,303.39,265,52.4,52.4,0,0,1,288,266.68a33.14,33.14,0,0,1-12.21-2.75,11.24,11.24,0,0,1-3.44-2.38,3.67,3.67,0,0,1-1.13-2.59,4.07,4.07,0,0,1,1.23-2.55,16.2,16.2,0,0,1,3.05-2.4c2.49-1.6,5.76-3.25,9.16-5s6.92-3.79,10.1-5.77,6.07-3.88,8.41-5.34Z" transform="translate(0.57 8.26)"/><path class="cls-41" d="M326.81,379.2a56.36,56.36,0,0,1-14.75,9,59.1,59.1,0,0,1-18.14,4.44,39.78,39.78,0,0,1-14.82-1.43,22,22,0,0,1-2.46-1,10.7,10.7,0,0,1-1.81-1.17,3.41,3.41,0,0,1-1.51-2.53,3.83,3.83,0,0,1,1.37-2.61,13.32,13.32,0,0,1,1.56-1.26,21.88,21.88,0,0,1,2-1.32c2.95-1.78,6.83-3.75,10.82-6a121.9,121.9,0,0,0,11.71-7.7c3.62-2.73,6.8-5.46,9.32-7.66Z" transform="translate(0.57 8.26)"/><path class="cls-41" d="M317.2,326.12a54.1,54.1,0,0,1-11.65,4.66A60.53,60.53,0,0,1,291.89,333a34.9,34.9,0,0,1-11.34-1.21c-2.94-.91-4.8-2.32-5.11-4-.58-3.49,4.88-7.6,11.09-12,3.12-2.19,6.48-4.41,9.64-6.5s6.12-4,8.58-5.37Z" transform="translate(0.57 8.26)"/><path class="cls-8" d="M242.24,415.59C240,351.27,242,329.74,210.55,325c0,0-24.05,54.41-23.8,90.6Z" transform="translate(0.57 8.26)"/><g class="cls-42"><g class="cls-14"><path class="cls-16" d="M199.35,348.07a75.14,75.14,0,0,0,10.8,3,69.7,69.7,0,0,0,11,1.3,71.26,71.26,0,0,0,11.12-.46l2.77-.39,2.75-.53,2.75-.6c.9-.24,1.81-.48,2.73-.7q-1.29.57-2.61,1.11l-2.67.94-2.75.75-2.78.62a51.12,51.12,0,0,1-22.64-.86A44.87,44.87,0,0,1,199.35,348.07Z" transform="translate(0.57 8.26)"/><path class="cls-16" d="M193.69,373.27a94.1,94.1,0,0,0,13.77,4.29A88.82,88.82,0,0,0,236,379.21l3.57-.45,3.54-.61,3.54-.73c1.17-.3,2.34-.6,3.52-.87-1.13.44-2.26.86-3.4,1.28l-3.48,1.07-3.55.85-3.58.67a68.84,68.84,0,0,1-29-1.69A61.75,61.75,0,0,1,193.69,373.27Z" transform="translate(0.57 8.26)"/><path class="cls-16" d="M201.83,345.38c3.9.2,7.77.28,11.63.13A110.61,110.61,0,0,0,225,344.45a112.57,112.57,0,0,0,11.34-2.26l2.8-.75,2.78-.84,2.77-.89c.92-.32,1.83-.65,2.77-.95-.86.47-1.73.91-2.61,1.35l-2.66,1.21-2.74,1.07-2.77,1a69.77,69.77,0,0,1-23.18,3.36A61.34,61.34,0,0,1,201.83,345.38Z" transform="translate(0.57 8.26)"/></g></g><g class="cls-14"><path class="cls-16" d="M166.26,238.54c-1,.24-5-8.36-2-8.8S167.29,238.3,166.26,238.54Z" transform="translate(0.57 8.26)"/></g><g class="cls-14"><path class="cls-16" d="M172.9,241.17c-.58-.88,6.09-7.65,7.53-5S173.49,242,172.9,241.17Z" transform="translate(0.57 8.26)"/></g><circle class="cls-9" cx="246.89" cy="261.12" r="17.49"/><g class="cls-43"><path class="cls-44" d="M230.94,238.75a12.86,12.86,0,1,1,7.79,16.43A12.85,12.85,0,0,1,230.94,238.75Z" transform="translate(0.57 8.26)"/><g class="cls-21"><path class="cls-39" d="M266.82,254.74c.45.27.52,1.17.13,2.57a18.06,18.06,0,0,1-2.75,5.38,25.19,25.19,0,0,1-6.69,6.34,23.78,23.78,0,0,1-11.07,3.76,20.65,20.65,0,0,1-11.74-2.48,17.73,17.73,0,0,1-6.86-6.95,12.22,12.22,0,0,1-1.55-6.26c.1-1.53.6-2.33,1.1-2.37,1.12-.09,2,2.69,4.88,5.51a17.53,17.53,0,0,0,5.59,3.77,17.78,17.78,0,0,0,8,1.15c6-.43,11-3.52,14.42-6.19S265.88,254.17,266.82,254.74Z" transform="translate(0.57 8.26)"/></g></g><path class="cls-45" d="M234.09,240.34a16.74,16.74,0,0,1,12.44-5.89,17.79,17.79,0,0,1,18.19,18.61,18.21,18.21,0,0,1-1.79,6.9,16.51,16.51,0,0,1-4.39,5.4,18.5,18.5,0,0,0,3.32-5.86,16.68,16.68,0,0,0,1-6.46,17.27,17.27,0,0,0-16.38-16.77A18.55,18.55,0,0,0,234.09,240.34Z" transform="translate(0.57 8.26)"/><g class="cls-21"><path class="cls-16" d="M242.43,285.86a3,3,0,0,0,.35,1.27,6.62,6.62,0,0,0,.72,1.24,2.46,2.46,0,0,0,1.5,1,2.3,2.3,0,0,0,1.64-.81,7.88,7.88,0,0,0,.89-1.12,3.48,3.48,0,0,0,.59-1.16c-.05,0-.33.38-.82,1a10,10,0,0,1-.92,1A2,2,0,0,1,245,289a2.16,2.16,0,0,1-1.24-.87A7,7,0,0,1,243,287,8.6,8.6,0,0,0,242.43,285.86Z" transform="translate(0.57 8.26)"/><path class="cls-16" d="M234.9,324.42a3,3,0,0,0,.35,1.26,6.67,6.67,0,0,0,.72,1.25,2.46,2.46,0,0,0,1.5,1,2.3,2.3,0,0,0,1.64-.81A7.73,7.73,0,0,0,240,326a3.37,3.37,0,0,0,.59-1.17,6.18,6.18,0,0,0-.82,1,8.13,8.13,0,0,1-.92,1,2,2,0,0,1-1.34.68,2.28,2.28,0,0,1-1.25-.87,6.92,6.92,0,0,1-.75-1.14A8.42,8.42,0,0,0,234.9,324.42Z" transform="translate(0.57 8.26)"/><path class="cls-16" d="M179.41,308.3a2.75,2.75,0,0,0,.34,1.26,6.32,6.32,0,0,0,.72,1.24,2.45,2.45,0,0,0,1.5,1,2.24,2.24,0,0,0,1.64-.81,6.67,6.67,0,0,0,.89-1.12,3.38,3.38,0,0,0,.59-1.16,6.18,6.18,0,0,0-.82,1,8.83,8.83,0,0,1-.91,1,2.12,2.12,0,0,1-1.35.68,2.25,2.25,0,0,1-1.25-.88,7.59,7.59,0,0,1-.75-1.13A10.08,10.08,0,0,0,179.41,308.3Z" transform="translate(0.57 8.26)"/><path class="cls-16" d="M278.69,380.55a2.83,2.83,0,0,0,.35,1.26,5.72,5.72,0,0,0,.72,1.25,2.43,2.43,0,0,0,1.5,1,2.27,2.27,0,0,0,1.63-.81,7.87,7.87,0,0,0,.9-1.12,3,3,0,0,0,.58-1.17,6.53,6.53,0,0,0-.81,1,10.07,10.07,0,0,1-.92,1,2.07,2.07,0,0,1-1.35.68,2.26,2.26,0,0,1-1.24-.87,7,7,0,0,1-.76-1.14A7.85,7.85,0,0,0,278.69,380.55Z" transform="translate(0.57 8.26)"/><path class="cls-16" d="M251.2,370.64a2.7,2.7,0,0,0,.35,1.26,5.45,5.45,0,0,0,.72,1.24,2.41,2.41,0,0,0,1.49,1.05,2.28,2.28,0,0,0,1.64-.82,6.64,6.64,0,0,0,.89-1.11,3.16,3.16,0,0,0,.59-1.17,6.18,6.18,0,0,0-.82,1,8.83,8.83,0,0,1-.91,1,2.07,2.07,0,0,1-1.35.68,2.25,2.25,0,0,1-1.25-.88,7.59,7.59,0,0,1-.75-1.13A9.27,9.27,0,0,0,251.2,370.64Z" transform="translate(0.57 8.26)"/><path class="cls-16" d="M208.93,258.37a3,3,0,0,0,.35,1.26,6.62,6.62,0,0,0,.72,1.24,2.46,2.46,0,0,0,1.5,1,2.3,2.3,0,0,0,1.64-.81A7.22,7.22,0,0,0,214,260a3.48,3.48,0,0,0,.59-1.16c-.05,0-.33.38-.82,1a10,10,0,0,1-.92,1,2,2,0,0,1-1.34.68,2.15,2.15,0,0,1-1.25-.87,7.76,7.76,0,0,1-.76-1.14A7.35,7.35,0,0,0,208.93,258.37Z" transform="translate(0.57 8.26)"/><path class="cls-16" d="M279.93,257.42a2.89,2.89,0,0,0,0,1.31,5.6,5.6,0,0,0,.33,1.4,2.41,2.41,0,0,0,1.13,1.43,2.25,2.25,0,0,0,1.8-.3,7.08,7.08,0,0,0,1.18-.81,3.43,3.43,0,0,0,.9-.94,5.93,5.93,0,0,0-1.07.72,10.78,10.78,0,0,1-1.18.71,2,2,0,0,1-1.48.25,2.18,2.18,0,0,1-.94-1.2,6.67,6.67,0,0,1-.39-1.3A8.83,8.83,0,0,0,279.93,257.42Z" transform="translate(0.57 8.26)"/><path class="cls-16" d="M194.24,238.82a3,3,0,0,0,.35,1.26,6.32,6.32,0,0,0,.72,1.24,2.46,2.46,0,0,0,1.5,1.05,2.31,2.31,0,0,0,1.64-.81,7.1,7.1,0,0,0,.89-1.12,3.37,3.37,0,0,0,.59-1.17,6.18,6.18,0,0,0-.82,1,8.13,8.13,0,0,1-.92,1,2,2,0,0,1-1.34.68,2.25,2.25,0,0,1-1.25-.88,7.59,7.59,0,0,1-.75-1.13A8.42,8.42,0,0,0,194.24,238.82Z" transform="translate(0.57 8.26)"/><path class="cls-16" d="M266.26,283.15a1.63,1.63,0,0,0,.16.69,6.43,6.43,0,0,0,.89,1.72,3.18,3.18,0,0,0,1,.94,1.23,1.23,0,0,0,.81.16,1.86,1.86,0,0,0,.78-.33,5.42,5.42,0,0,0,1.24-1.2c.18-.24.36-.48.53-.73l.25-.39.12-.2H272l0,.1.08.22c.05.14.11.28.17.42s.26.55.4.81a5,5,0,0,0,1.07,1.33,1.93,1.93,0,0,0,.74.41,1.27,1.27,0,0,0,.82,0,3.23,3.23,0,0,0,1.1-.8,8.63,8.63,0,0,0,1.12-1.54c.23-.39.33-.62.3-.63s-.53.85-1.62,2a3.06,3.06,0,0,1-1,.69,1.15,1.15,0,0,1-1.2-.33,4.79,4.79,0,0,1-1-1.25,7.85,7.85,0,0,1-.37-.77c-.06-.13-.12-.26-.17-.4l-.07-.21-.11-.34-.24,0h-.14s-.08,0-.1,0l-.12.2-.11.19-.24.38c-.17.24-.33.48-.51.71a5.82,5.82,0,0,1-1.13,1.14,1.16,1.16,0,0,1-1.24.18,3.13,3.13,0,0,1-.94-.82A13.18,13.18,0,0,1,266.26,283.15Z" transform="translate(0.57 8.26)"/><path class="cls-16" d="M240.21,343.6a2.07,2.07,0,0,0,.17.68,6.84,6.84,0,0,0,.88,1.73,3.18,3.18,0,0,0,1,.94,1.3,1.3,0,0,0,.81.15,2,2,0,0,0,.79-.32,5.92,5.92,0,0,0,1.24-1.21c.18-.23.36-.48.53-.73l.24-.38.12-.2s0,0,0,0h0l0,.09.08.22c.05.15.11.29.17.43a7.46,7.46,0,0,0,.4.8,5.06,5.06,0,0,0,1.07,1.34,2.07,2.07,0,0,0,.74.41,1.3,1.3,0,0,0,.81-.05,3.28,3.28,0,0,0,1.1-.81,8.1,8.1,0,0,0,1.13-1.54,1.91,1.91,0,0,0,.3-.63c-.06-.05-.53.85-1.62,2a2.92,2.92,0,0,1-1,.69,1.14,1.14,0,0,1-1.2-.32,5.14,5.14,0,0,1-1-1.25c-.14-.25-.26-.5-.38-.77s-.11-.27-.16-.41l-.07-.21-.12-.34-.23,0h-.14s-.09,0-.1,0l-.12.19-.11.19-.25.38c-.16.25-.33.49-.5.71a5.32,5.32,0,0,1-1.13,1.14,1.14,1.14,0,0,1-1.25.18,3.18,3.18,0,0,1-.93-.81A15.4,15.4,0,0,1,240.21,343.6Z" transform="translate(0.57 8.26)"/><path class="cls-16" d="M224.87,227.09a2.24,2.24,0,0,0,0,.7,6.73,6.73,0,0,0,.42,1.9,3.21,3.21,0,0,0,.73,1.16,1.33,1.33,0,0,0,.75.36,2.16,2.16,0,0,0,.84-.11,5.5,5.5,0,0,0,1.5-.86c.24-.18.47-.37.7-.57l.34-.31.17-.16h-.05v.1l0,.23a3.47,3.47,0,0,0,.06.45,6,6,0,0,0,.18.88,5,5,0,0,0,.7,1.57,2,2,0,0,0,.6.58,1.24,1.24,0,0,0,.81.16,3.16,3.16,0,0,0,1.27-.5,8.07,8.07,0,0,0,1.48-1.2c.31-.32.47-.51.45-.53s-.73.69-2.08,1.49a2.93,2.93,0,0,1-1.15.41,1.14,1.14,0,0,1-1.08-.62,4.7,4.7,0,0,1-.62-1.46,7.63,7.63,0,0,1-.17-.83c0-.15,0-.29-.05-.44l0-.22,0-.36-.22-.08-.13,0s-.07-.05-.1,0l-.16.15-.16.16-.33.3c-.22.2-.45.39-.67.56a5.57,5.57,0,0,1-1.39.82,1.14,1.14,0,0,1-1.25-.15,3,3,0,0,1-.69-1A15.27,15.27,0,0,1,224.87,227.09Z" transform="translate(0.57 8.26)"/><path class="cls-16" d="M265,313.4a2.15,2.15,0,0,0,.16.69,7.08,7.08,0,0,0,.89,1.72,3.18,3.18,0,0,0,1,.94,1.24,1.24,0,0,0,.81.16,1.9,1.9,0,0,0,.79-.33,5.63,5.63,0,0,0,1.24-1.2c.18-.24.35-.48.52-.73l.25-.39.12-.2h0l0,.09.07.22c.06.14.11.28.18.42a7.61,7.61,0,0,0,.4.81,5,5,0,0,0,1.07,1.33,1.86,1.86,0,0,0,.74.41,1.17,1.17,0,0,0,.81,0,3.13,3.13,0,0,0,1.1-.8,8.78,8.78,0,0,0,1.13-1.54,2.36,2.36,0,0,0,.3-.63c-.07-.05-.53.85-1.63,2a2.92,2.92,0,0,1-1,.69,1.14,1.14,0,0,1-1.2-.33,4.4,4.4,0,0,1-1-1.25,6.12,6.12,0,0,1-.38-.77c-.06-.13-.11-.26-.16-.4l-.07-.21-.12-.34-.23,0h-.14s-.09,0-.1,0l-.12.2-.12.19-.24.38c-.16.24-.33.48-.5.71a5.59,5.59,0,0,1-1.14,1.14,1.16,1.16,0,0,1-1.24.18,3.09,3.09,0,0,1-.93-.82A14.26,14.26,0,0,1,265,313.4Z" transform="translate(0.57 8.26)"/><path class="cls-16" d="M172.54,250.83a2.34,2.34,0,0,0-.12.7,7.08,7.08,0,0,0,.14,1.93,3.35,3.35,0,0,0,.56,1.27,1.32,1.32,0,0,0,.68.46,2.08,2.08,0,0,0,.86,0,5.89,5.89,0,0,0,1.61-.62c.26-.15.51-.3.77-.47l.38-.25.19-.14h0V254a3.57,3.57,0,0,0,0,.46,8.72,8.72,0,0,0,.05.9,5,5,0,0,0,.46,1.65,2,2,0,0,0,.51.67,1.36,1.36,0,0,0,.77.27,3.3,3.3,0,0,0,1.33-.3,8.48,8.48,0,0,0,1.65-1,2.46,2.46,0,0,0,.52-.46c0-.07-.82.58-2.27,1.18a3.18,3.18,0,0,1-1.21.23,1.12,1.12,0,0,1-1-.77,4.66,4.66,0,0,1-.4-1.53,8.11,8.11,0,0,1,0-.86c0-.14,0-.29,0-.44l0-.22,0-.35-.21-.11-.12-.07s-.07-.06-.1,0l-.19.14-.18.13-.37.25c-.25.16-.49.31-.74.45a5.33,5.33,0,0,1-1.49.61,1.17,1.17,0,0,1-1.22-.33,3.11,3.11,0,0,1-.53-1.12A14.73,14.73,0,0,1,172.54,250.83Z" transform="translate(0.57 8.26)"/><path class="cls-16" d="M207.73,302.6a1.63,1.63,0,0,0,.16.69,6.43,6.43,0,0,0,.89,1.72,3.18,3.18,0,0,0,1,.94,1.23,1.23,0,0,0,.81.16,1.81,1.81,0,0,0,.78-.33,5.42,5.42,0,0,0,1.24-1.2c.18-.24.36-.48.53-.73l.25-.39.12-.2h-.05l0,.1.08.22c0,.14.11.28.17.42a8.52,8.52,0,0,0,.4.8,5.09,5.09,0,0,0,1.08,1.34,1.82,1.82,0,0,0,.73.41,1.34,1.34,0,0,0,.82-.05,3.26,3.26,0,0,0,1.1-.8,8.15,8.15,0,0,0,1.12-1.54c.23-.39.33-.62.3-.63s-.53.85-1.62,2a3.06,3.06,0,0,1-1,.69,1.15,1.15,0,0,1-1.2-.33,4.79,4.79,0,0,1-1-1.25,7.85,7.85,0,0,1-.37-.77c-.06-.13-.12-.26-.17-.4l-.07-.21-.11-.34-.24,0h-.13s-.09,0-.11,0l-.12.2-.11.19-.24.38c-.17.24-.33.48-.51.7a5.62,5.62,0,0,1-1.13,1.15,1.16,1.16,0,0,1-1.24.18,3.13,3.13,0,0,1-.94-.82A13.18,13.18,0,0,1,207.73,302.6Z" transform="translate(0.57 8.26)"/></g><ellipse class="cls-46" cx="262.53" cy="339.54" rx="6.59" ry="2.45"/><ellipse class="cls-46" cx="229.72" cy="305.19" rx="3.22" ry="1.23"/><ellipse class="cls-46" cx="256.55" cy="391.68" rx="4.29" ry="1.23"/><g class="cls-28"><path class="cls-16" d="M222.68,277c.13,1-4.61,2.73-12.67,3.07a71.76,71.76,0,0,1-56-24.72c-5.19-6.19-7.1-10.86-6.29-11.43s4.31,2.77,10.11,7.6a98.6,98.6,0,0,0,52.48,23.14C217.73,275.65,222.56,275.85,222.68,277Z" transform="translate(0.57 8.26)"/></g><g class="cls-28"><path class="cls-16" d="M232.54,321c.15,1-4.24,2.72-11.71,3.68a90,90,0,0,1-29.29-1.47,78.56,78.56,0,0,1-15.63-4.87,36.9,36.9,0,0,1-11.46-7.72,22.11,22.11,0,0,1-5.14-7.81c-.73-2.11-.66-3.4-.19-3.6,1-.44,3.31,3.47,8.86,7.31a44.33,44.33,0,0,0,10.58,5.29,117.57,117.57,0,0,0,14.56,3.91,186.09,186.09,0,0,0,27.53,3.55C227.82,319.7,232.39,319.91,232.54,321Z" transform="translate(0.57 8.26)"/></g><g class="cls-28"><path class="cls-16" d="M291.52,241.57c0,.26-.58.57-1.76.83a16.28,16.28,0,0,1-5.07,0,27.84,27.84,0,0,1-7.2-2.1,53.85,53.85,0,0,1-7.88-4.33,80,80,0,0,1-7.24-5.19,25.68,25.68,0,0,1-5.14-5.48,12.68,12.68,0,0,1-2-4.73c-.21-1.2-.07-1.9.17-2,.58-.13,1.36,2.25,4,5a34.3,34.3,0,0,0,5.18,4.36c2.1,1.5,4.59,3.09,7.16,4.77,5.11,3.37,9.87,5.88,13.57,7S291.47,241,291.52,241.57Z" transform="translate(0.57 8.26)"/></g><g class="cls-28"><path class="cls-16" d="M301.85,356.64c1.11,1.79-3.53,6.69-10.37,10.94s-13.29,6.22-14.41,4.43,3.53-6.7,10.37-10.94S300.74,354.84,301.85,356.64Z" transform="translate(0.57 8.26)"/></g><g class="cls-28"><path class="cls-16" d="M297.26,397.66c-1.22.49-3.2-1.12-5.74-4.58a73.66,73.66,0,0,1-8-15.94,126.52,126.52,0,0,1-6.55-25.72A142.17,142.17,0,0,1,278.38,302c1.07-5.41,2.48-10.37,3.77-14.93,2.65-9.12,4.86-16.76,6-23.26a104.63,104.63,0,0,0,1.54-15.66c.15-3.85.29-6.31,1.54-6.87s3.4,1,5.65,4.94,4.3,10.28,4.79,18.2-.58,17.21-2.31,26.63c-.83,4.73-1.81,9.49-2.5,14.31s-1.31,9.87-1.82,15a237.23,237.23,0,0,0-.53,29.3c.42,9,1.28,17.21,2.12,24.14s1.72,12.58,1.92,16.7S298.49,397.16,297.26,397.66Z" transform="translate(0.57 8.26)"/></g><g class="cls-47"><path class="cls-27" d="M197.89,399.22c-.48.14-1.32-.74-2.15-2.62a28.26,28.26,0,0,1-2.06-8.37,59.12,59.12,0,0,1,.17-12.61c.53-4.67,1.39-9.63,2.52-14.85a144.08,144.08,0,0,1,8.19-26c2.8-6.42,5.23-10.08,6.21-9.72,2,.78-2.52,17.1-6.92,37.35-1.1,5.06-2.16,9.93-3,14.26s-1.43,8.22-1.73,11.5C198.47,394.7,199,398.89,197.89,399.22Z" transform="translate(0.57 8.26)"/></g><g class="cls-47"><path class="cls-27" d="M257.29,215.05c-.05.55-1.85.83-5,1.34a62.5,62.5,0,0,0-12.57,3.3,52.2,52.2,0,0,0-7.9,3.88c-1.34.84-2.67,1.72-4,2.75s-2.76,2.18-4.3,3.37a50.7,50.7,0,0,1-5.08,3.59,25.18,25.18,0,0,1-6.42,2.85,30.91,30.91,0,0,1-14.37.22A97.69,97.69,0,0,1,185,232.67a71.4,71.4,0,0,0-10.86-3,24.61,24.61,0,0,0-9.37,0,18.49,18.49,0,0,0-3.86,1.34,19.26,19.26,0,0,0-3.21,2.09,28.12,28.12,0,0,0-7.23,10c-1.29,2.81-1.91,4.52-2.47,4.44s-.88-1.92-.39-5.29a25.06,25.06,0,0,1,1.72-6,24.56,24.56,0,0,1,4.66-7.14,23.51,23.51,0,0,1,4-3.28,23.09,23.09,0,0,1,5.16-2.34,29.26,29.26,0,0,1,12-.81,67,67,0,0,1,12.18,2.84,109.09,109.09,0,0,0,11.85,3.29,24.83,24.83,0,0,0,11,.06c3.23-.79,6.24-2.73,9.27-4.86,1.52-1.07,3.05-2.17,4.63-3.21a49.86,49.86,0,0,1,4.83-2.81,47.6,47.6,0,0,1,9.33-3.48,39.64,39.64,0,0,1,14.14-1.12C255.6,213.81,257.34,214.55,257.29,215.05Z" transform="translate(0.57 8.26)"/></g><g class="cls-47"><path class="cls-27" d="M171,314.14c-.58.84-2.48.78-4.9-.64a15.45,15.45,0,0,1-3.71-3.15,20.15,20.15,0,0,1-3.17-5,20.43,20.43,0,0,1-1.52-5.77,15.42,15.42,0,0,1,.24-4.86c.61-2.74,1.87-4.16,2.88-4s1.77,1.71,2.53,3.83l1.25,3.59c.49,1.31,1,2.71,1.64,4.17s1.3,2.79,1.92,4,1.26,2.41,1.77,3.37C170.92,311.68,171.58,313.25,171,314.14Z" transform="translate(0.57 8.26)"/></g></g><path class="cls-6" d="M270.86,340.81c9.3-4.52,38.59-9.4,38.59-9.4L314,317.85l2.47,11.59,14-1-8.23,10.66,8,6.76L314,343s-30.31,25.76-37.11,28.91" transform="translate(0.57 8.26)"/><g class="cls-48"><g class="cls-37"><path class="cls-16" d="M330.8,346.5c-.63.94-3.85-.53-8.82-.49a19.67,19.67,0,0,0-8.09,1.76c-2.78,1.27-5.68,3.62-9.09,6.3-6.71,5.24-12.92,9.93-17.78,13s-8.22,4.41-8.86,3.57,1.53-3.71,5.45-7.77A160.24,160.24,0,0,1,300.09,348c3.34-2.61,7-5.38,11.2-6.83a20.42,20.42,0,0,1,11.39-.56,15.67,15.67,0,0,1,6.68,3.28C330.67,345.12,331.09,346.09,330.8,346.5Z" transform="translate(0.57 8.26)"/></g><g class="cls-37"><path class="cls-16" d="M332.83,325.74c1.65,1.32.71,5.25-2.11,8.8s-6.45,5.35-8.1,4-.71-5.25,2.11-8.8S331.17,324.42,332.83,325.74Z" transform="translate(0.57 8.26)"/></g><g class="cls-37"><path class="cls-16" d="M312.69,315.13c2.08-.38,4.37,2.59,5.12,6.64s-.34,7.64-2.42,8-4.37-2.59-5.11-6.63S310.61,315.51,312.69,315.13Z" transform="translate(0.57 8.26)"/></g><g class="cls-21"><path class="cls-16" d="M293.91,349.63s.23.29.59.82a6,6,0,0,1,1,2.46,3.8,3.8,0,0,1-.06,1.77,1.06,1.06,0,0,1-.53.65.93.93,0,0,1-.83-.09,3.39,3.39,0,0,1-1.11-1.87,13.1,13.1,0,0,1-.59-2.47,4.83,4.83,0,0,1,.1-2.41,1.07,1.07,0,0,1,1.59-.58,4.11,4.11,0,0,1,1.39,1.48,10.47,10.47,0,0,1,.86,1.65,17.64,17.64,0,0,1,.9,3.61,2.5,2.5,0,0,0,.06-1,9.5,9.5,0,0,0-.56-2.74,11.22,11.22,0,0,0-.84-1.77,4.5,4.5,0,0,0-1.55-1.7,1.74,1.74,0,0,0-1.37-.17,1.78,1.78,0,0,0-1,1,5.15,5.15,0,0,0-.15,2.72,13.32,13.32,0,0,0,.62,2.58,3.81,3.81,0,0,0,1.4,2.16,1.46,1.46,0,0,0,1.32.09,1.6,1.6,0,0,0,.78-1,4,4,0,0,0,0-2,5.72,5.72,0,0,0-1.24-2.52A2.26,2.26,0,0,0,293.91,349.63Z" transform="translate(0.57 8.26)"/><path class="cls-16" d="M290.28,335.88s-.44.27-.94.92a6.55,6.55,0,0,0-.73,1.23,2.42,2.42,0,0,0-.18,1.82,2.28,2.28,0,0,0,1.51,1,7.47,7.47,0,0,0,1.41.23,3.21,3.21,0,0,0,1.3-.05,5.55,5.55,0,0,0-1.27-.23,9.65,9.65,0,0,1-1.34-.31,2,2,0,0,1-1.24-.84,2.18,2.18,0,0,1,.15-1.52,6.79,6.79,0,0,1,.63-1.21A9,9,0,0,0,290.28,335.88Z" transform="translate(0.57 8.26)"/><path class="cls-16" d="M315.23,330.14s-.44.27-.94.92a6.24,6.24,0,0,0-.73,1.23,2.42,2.42,0,0,0-.18,1.82,2.32,2.32,0,0,0,1.51,1,7.47,7.47,0,0,0,1.41.23,3.21,3.21,0,0,0,1.3-.05,5.55,5.55,0,0,0-1.27-.23,9.65,9.65,0,0,1-1.34-.31,2,2,0,0,1-1.25-.84,2.24,2.24,0,0,1,.16-1.52,6.79,6.79,0,0,1,.63-1.21A9,9,0,0,0,315.23,330.14Z" transform="translate(0.57 8.26)"/><path class="cls-16" d="M305.37,334.46s-.21.15-.51.5a6.94,6.94,0,0,0-1,1.65,3.28,3.28,0,0,0-.28,1.35,1.33,1.33,0,0,0,.29.77,1.91,1.91,0,0,0,.69.51,5.87,5.87,0,0,0,1.67.43l.9.07h.69s0,0,0,0,0,0,0,0h0l-.06.07-.14.18c-.1.12-.19.24-.28.37a8.78,8.78,0,0,0-.48.76,5,5,0,0,0-.58,1.61,1.84,1.84,0,0,0,0,.84,1.32,1.32,0,0,0,.47.67,3,3,0,0,0,1.26.52,8.63,8.63,0,0,0,1.9.17,2.24,2.24,0,0,0,.69-.07c0-.09-1,0-2.53-.37A2.94,2.94,0,0,1,307,344a1.14,1.14,0,0,1-.35-1.19,4.76,4.76,0,0,1,.57-1.48,6.67,6.67,0,0,1,.45-.72l.27-.35L308,340l.23-.28-.11-.21-.06-.12s0-.09-.06-.08h-.9q-.45,0-.87-.06a5.47,5.47,0,0,1-1.57-.38,1.13,1.13,0,0,1-.79-1,2.91,2.91,0,0,1,.21-1.22A13.33,13.33,0,0,1,305.37,334.46Z" transform="translate(0.57 8.26)"/><path class="cls-16" d="M279.38,353a2.05,2.05,0,0,0-.5.5,6.52,6.52,0,0,0-1,1.65,3.16,3.16,0,0,0-.28,1.35,1.3,1.3,0,0,0,.29.78,2,2,0,0,0,.68.5,5.54,5.54,0,0,0,1.68.43,8.64,8.64,0,0,0,.9.07h.69s0,0,0,0,0-.05,0,0h0l-.07.07-.14.18c-.1.12-.19.25-.28.37a8.65,8.65,0,0,0-.47.76,5.19,5.19,0,0,0-.59,1.62,2.17,2.17,0,0,0,0,.84,1.37,1.37,0,0,0,.47.67,3.35,3.35,0,0,0,1.26.52,8.55,8.55,0,0,0,1.9.16,2.35,2.35,0,0,0,.7-.07c0-.08-1,0-2.53-.36a3.07,3.07,0,0,1-1.12-.51,1.15,1.15,0,0,1-.35-1.2,5,5,0,0,1,.57-1.48c.14-.24.29-.48.46-.72s.17-.23.26-.35l.14-.17.23-.27-.1-.21-.06-.13s0-.09-.07-.08h-.9l-.87-.06a5.4,5.4,0,0,1-1.56-.37,1.13,1.13,0,0,1-.8-1,2.88,2.88,0,0,1,.21-1.22A14.34,14.34,0,0,1,279.38,353Z" transform="translate(0.57 8.26)"/></g></g><path class="cls-49" d="M314,343c-2.89,2.66-5.85,5.23-8.84,7.78s-6,5.06-9.06,7.53-6.15,4.89-9.32,7.2q-2.37,1.75-4.81,3.41c-.82.55-1.64,1.09-2.49,1.59a21.57,21.57,0,0,1-2.59,1.4,26.67,26.67,0,0,0,2.48-1.58c.81-.54,1.6-1.13,2.38-1.72,1.58-1.16,3.12-2.36,4.66-3.58q4.62-3.64,9.19-7.34l9.18-7.37C307.87,347.83,310.93,345.37,314,343Z" transform="translate(0.57 8.26)"/><path class="cls-49" d="M270.86,340.81a52,52,0,0,1,9.33-3.51c3.19-.94,6.41-1.74,9.65-2.47s6.5-1.37,9.77-1.93l4.91-.82c1.65-.23,3.28-.49,4.93-.67l-4.86,1-4.86,1L290,335.61c-3.23.7-6.45,1.48-9.66,2.27A75.38,75.38,0,0,0,270.86,340.81Z" transform="translate(0.57 8.26)"/><path class="cls-10" d="M255.34,219.38l34.55-18.44.18,40.49S264.17,237.14,255.34,219.38Z" transform="translate(0.57 8.26)"/><g class="cls-50"><path class="cls-11" d="M287.65,206.49c0-.24-.46-1.11-2.3.52.84-1.24,1.3-2.51.83-2.78s-1.34.76-2,2.12c.48-2.42-.49-2.36-.71-2.25-.87.43-.17,2.86-.14,5.06C285.26,208.08,287.71,207.46,287.65,206.49Z" transform="translate(0.57 8.26)"/><path class="cls-11" d="M278.33,232.88c0-.48-.91-2.22-4.61,1.05,1.7-2.5,2.62-5,1.67-5.57s-2.68,1.52-4,4.24c1-4.84-1-4.72-1.42-4.51-1.74.87-.33,5.72-.28,10.14C273.56,236.05,278.45,234.83,278.33,232.88Z" transform="translate(0.57 8.26)"/><path class="cls-11" d="M296.08,240.38c0-.48-.91-2.22-4.61,1.05,1.69-2.5,2.62-5,1.66-5.57s-2.67,1.52-4,4.24c1-4.84-1-4.72-1.42-4.51-1.74.87-.33,5.72-.28,10.14C291.31,243.55,296.2,242.33,296.08,240.38Z" transform="translate(0.57 8.26)"/><path class="cls-11" d="M293,217.2c0-.48-.91-2.22-4.6,1,1.69-2.49,2.61-5,1.66-5.57s-2.67,1.53-4,4.24c1-4.83-1-4.71-1.42-4.5-1.75.87-.34,5.72-.28,10.14C288.26,220.37,293.16,219.14,293,217.2Z" transform="translate(0.57 8.26)"/><path class="cls-11" d="M275.44,214c0-.47-.91-2.22-4.61,1,1.69-2.5,2.62-5,1.66-5.57s-2.67,1.52-4,4.24c1-4.84-1-4.72-1.42-4.5-1.74.87-.33,5.71-.28,10.13C270.67,217.13,275.56,215.91,275.44,214Z" transform="translate(0.57 8.26)"/><path class="cls-11" d="M267.35,223.45c0-.24-.46-1.12-2.3.52.84-1.25,1.3-2.51.83-2.79s-1.34.76-2,2.12c.48-2.42-.49-2.36-.71-2.25-.87.44-.17,2.86-.14,5.07C265,225,267.41,224.42,267.35,223.45Z" transform="translate(0.57 8.26)"/><path class="cls-11" d="M287.67,230.38c0-.24-.45-1.11-2.3.52.85-1.25,1.31-2.51.83-2.78s-1.33.76-2,2.12c.48-2.42-.5-2.36-.71-2.25-.88.43-.17,2.85-.14,5.06C285.29,232,287.74,231.35,287.67,230.38Z" transform="translate(0.57 8.26)"/><path class="cls-11" d="M281.14,220c0-.24-.46-1.11-2.3.52.84-1.25,1.3-2.51.83-2.78s-1.34.76-2,2.12c.48-2.42-.49-2.36-.71-2.26-.87.44-.17,2.86-.14,5.07C278.75,221.6,281.2,221,281.14,220Z" transform="translate(0.57 8.26)"/><g class="cls-51"><ellipse class="cls-27" cx="269.12" cy="210.85" rx="21.97" ry="3.83" transform="translate(-64.7 147.96) rotate(-26.06)"/></g><g class="cls-21"><rect class="cls-52" x="258.83" y="208.21" width="62.44" height="14.17" transform="translate(54.27 496.72) rotate(-85.72)"/></g></g><circle class="cls-11" cx="290.58" cy="198.34" r="5.69" transform="translate(-60.31 190.78) rotate(-31.74)"/><g class="cls-53"><g class="cls-14"><path class="cls-54" d="M287.51,203.27c.45-.85.93-1.67,1.42-2.49s1-1.63,1.51-2.43,1-1.61,1.57-2.39l.82-1.18c.28-.39.55-.78.84-1.16-.22.42-.46.83-.7,1.25l-.72,1.23c-.49.82-1,1.63-1.51,2.44s-1,1.6-1.58,2.39S288.08,202.5,287.51,203.27Z" transform="translate(0.57 8.26)"/><path class="cls-54" d="M285.76,195.34c.84.45,1.67.94,2.49,1.43s1.62,1,2.43,1.5,1.6,1,2.39,1.58l1.18.81c.39.28.78.55,1.16.84-.42-.22-.83-.46-1.25-.69l-1.24-.73c-.82-.49-1.62-1-2.43-1.51s-1.6-1-2.39-1.57S286.52,195.92,285.76,195.34Z" transform="translate(0.57 8.26)"/><path class="cls-54" d="M285,199.65c.91-.28,1.84-.52,2.76-.75s1.86-.45,2.79-.66,1.87-.4,2.81-.57l1.4-.26,1.42-.23c-.46.15-.92.27-1.38.4l-1.38.36c-.93.23-1.86.44-2.79.65s-1.87.4-2.81.58S286,199.52,285,199.65Z" transform="translate(0.57 8.26)"/><path class="cls-54" d="M289.4,192.81c.28.92.51,1.84.75,2.77s.45,1.85.66,2.78.4,1.87.57,2.81l.26,1.41c.08.47.16.94.22,1.41-.14-.45-.26-.92-.39-1.38l-.36-1.38c-.23-.93-.44-1.86-.65-2.79s-.41-1.87-.58-2.81S289.53,193.76,289.4,192.81Z" transform="translate(0.57 8.26)"/></g><g class="cls-28"><path class="cls-16" d="M297.55,201.05c.22.14.27.53.06,1.12a4.89,4.89,0,0,1-1.57,2,7.54,7.54,0,0,1-3.57,1.55,7.69,7.69,0,0,1-8.28-4.44,7.49,7.49,0,0,1-.68-3.83,4.76,4.76,0,0,1,.83-2.44c.37-.5.73-.67,1-.57.51.22.46,1.37.91,2.83a6.25,6.25,0,0,0,8.48,4.55C296.16,201.43,297.09,200.74,297.55,201.05Z" transform="translate(0.57 8.26)"/></g></g></g></g></g></g></svg>