<svg xmlns="http://www.w3.org/2000/svg" xmlns:xlink="http://www.w3.org/1999/xlink" viewBox="0 0 63.98 53.32"><defs><style>.cls-1{fill:#fed94e;}.cls-2{fill:#ec7824;}.cls-3{isolation:isolate;}.cls-4{clip-path:url(#clip-path);}.cls-5,.cls-7{opacity:0.5;}.cls-5{mix-blend-mode:soft-light;}.cls-6{fill:#fff;}.cls-10,.cls-12,.cls-7{mix-blend-mode:color-burn;}.cls-8{fill:#868584;}.cls-9{clip-path:url(#clip-path-2);}.cls-11{fill:#797979;}.cls-12{opacity:0.2;}.cls-13{fill:#9c9b9b;}</style><clipPath id="clip-path" transform="translate(9.46 4.43)"><path class="cls-1" d="M23.31,42.8,8.22,6.63l40.35,3.66S41.84,35.69,23.31,42.8Z"/></clipPath><clipPath id="clip-path-2" transform="translate(9.46 4.43)"><circle class="cls-2" cx="5.7" cy="5.7" r="5.7" transform="translate(-1.93 3.11) rotate(-26.3)"/></clipPath></defs><g class="cls-3"><g id="Capa_2" data-name="Capa 2"><g id="Capa_1-2" data-name="Capa 1"><path class="cls-1" d="M23.31,42.8,8.22,6.63l40.35,3.66S41.84,35.69,23.31,42.8Z" transform="translate(9.46 4.43)"/><g class="cls-4"><path class="cls-2" d="M13.54,9.39c-.24,0-1.15.35.3,2.34-1.16-1-2.38-1.54-2.7-1.09s.63,1.4,1.93,2.18c-2.37-.71-2.4.27-2.31.49.35.91,2.83.44,5,.63C14.89,11.92,14.51,9.42,13.54,9.39Z" transform="translate(9.46 4.43)"/><path class="cls-2" d="M38.94,21.18c-.48,0-2.3.7.61,4.69-2.33-1.93-4.75-3.09-5.39-2.19S35.42,26.49,38,28c-4.72-1.41-4.79.54-4.62,1,.7,1.82,5.67.88,10.07,1.24C41.65,26.23,40.89,21.24,38.94,21.18Z" transform="translate(9.46 4.43)"/><path class="cls-2" d="M48.1,4.21c-.48,0-2.3.7.6,4.69C46.38,7,44,5.81,43.31,6.71s1.27,2.81,3.85,4.36c-4.73-1.42-4.79.54-4.62,1,.7,1.82,5.66.87,10.07,1.24C50.81,9.26,50.05,4.27,48.1,4.21Z" transform="translate(9.46 4.43)"/><path class="cls-2" d="M24.71,5c-.48,0-2.3.7.61,4.69C23,7.81,20.57,6.65,19.93,7.55s1.26,2.8,3.84,4.36c-4.72-1.42-4.79.53-4.62,1,.7,1.82,5.67.88,10.07,1.24C27.42,10.1,26.66,5.1,24.71,5Z" transform="translate(9.46 4.43)"/><path class="cls-2" d="M19.82,22.26c-.48,0-2.3.7.61,4.69C18.1,25,15.67,23.87,15,24.77s1.26,2.8,3.84,4.36c-4.72-1.42-4.79.53-4.62,1,.7,1.82,5.67.88,10.07,1.25C22.53,27.32,21.77,22.32,19.82,22.26Z" transform="translate(9.46 4.43)"/><path class="cls-2" d="M28.5,31.22c-.24,0-1.15.35.3,2.35-1.16-1-2.37-1.55-2.69-1.1s.63,1.41,1.92,2.18c-2.36-.7-2.4.27-2.31.5.35.91,2.83.44,5,.62C29.85,33.75,29.48,31.25,28.5,31.22Z" transform="translate(9.46 4.43)"/><path class="cls-2" d="M37.34,11.63c-.24,0-1.15.35.3,2.35-1.16-1-2.38-1.55-2.7-1.1s.64,1.41,1.93,2.18c-2.37-.7-2.4.27-2.31.5.35.91,2.83.43,5,.62C38.69,14.16,38.31,11.66,37.34,11.63Z" transform="translate(9.46 4.43)"/><path class="cls-2" d="M26.4,17.16c-.24,0-1.15.35.3,2.34-1.16-1-2.38-1.54-2.7-1.09s.63,1.4,1.93,2.18c-2.37-.71-2.4.27-2.31.49.35.91,2.83.44,5,.63C27.75,19.69,27.37,17.19,26.4,17.16Z" transform="translate(9.46 4.43)"/><g class="cls-5"><ellipse class="cls-6" cx="16.12" cy="28.26" rx="3.83" ry="21.99" transform="translate(0.54 11.92) rotate(-20.62)"/></g><g class="cls-7"><rect class="cls-8" x="15.44" y="-23.41" width="14.18" height="62.48" transform="translate(20.47 33.15) rotate(-80.28)"/></g></g><circle class="cls-2" cx="5.7" cy="5.7" r="5.7" transform="translate(7.52 7.55) rotate(-26.3)"/><g class="cls-9"><g class="cls-10"><path class="cls-11" d="M10.31,9.23C9.51,8.7,8.74,8.13,8,7.57S6.44,6.42,5.69,5.84,4.19,4.66,3.45,4L2.36,3.12c-.36-.32-.73-.62-1.08-1,.4.26.79.54,1.18.81l1.16.85C4.4,4.39,5.15,5,5.91,5.56s1.5,1.18,2.23,1.79S9.61,8.58,10.31,9.23Z" transform="translate(9.46 4.43)"/><path class="cls-11" d="M2.25,10.21c.53-.79,1.09-1.57,1.66-2.34S5.05,6.34,5.64,5.59s1.18-1.5,1.79-2.23l.92-1.1,1-1.08C9,1.59,8.76,2,8.49,2.37L7.65,3.53C7.09,4.3,6.5,5.05,5.92,5.81S4.73,7.31,4.12,8,2.9,9.51,2.25,10.21Z" transform="translate(9.46 4.43)"/><path class="cls-11" d="M6.47,11.35c-.19-.94-.34-1.88-.48-2.83S5.72,6.63,5.6,5.69s-.23-1.9-.31-2.85L5.17,1.41C5.14.93,5.1.46,5.08,0c.1.47.17.94.26,1.41L5.56,2.8c.15,1,.27,1.89.39,2.84s.23,1.9.31,2.85S6.43,10.39,6.47,11.35Z" transform="translate(9.46 4.43)"/><path class="cls-11" d="M.07,6.35C1,6.16,2,6,2.9,5.86s1.89-.27,2.84-.39,1.9-.22,2.85-.3L10,5C10.49,5,11,5,11.45,5c-.47.1-.94.18-1.41.26l-1.42.23c-.94.15-1.89.27-2.84.39s-1.9.22-2.85.31S1,6.31.07,6.35Z" transform="translate(9.46 4.43)"/></g><g class="cls-12"><path class="cls-13" d="M9.05-1c.16-.2.56-.22,1.12,0A4.94,4.94,0,0,1,12.06.81a7.48,7.48,0,0,1,1.2,3.71A7.87,7.87,0,0,1,12,9.32a7.94,7.94,0,0,1-3.94,3,7.45,7.45,0,0,1-3.89.32,4.82,4.82,0,0,1-2.34-1.05c-.46-.43-.6-.8-.48-1,.27-.49,1.4-.32,2.91-.63A7.17,7.17,0,0,0,8.81,7.2a7.14,7.14,0,0,0,.78-5.27C9.3.43,8.7-.56,9.05-1Z" transform="translate(9.46 4.43)"/></g></g></g></g></g></svg>