<svg xmlns="http://www.w3.org/2000/svg" xmlns:xlink="http://www.w3.org/1999/xlink" viewBox="0 0 301.03 333.33"><defs><style>.cls-1-gorro{fill:#fed94e;}.cls-2-gorro{fill:#ec7824;}.cls-3-gorro{isolation:isolate;}.cls-4-gorro{clip-path:url(#clip-path-gorro);}.cls-5-gorro,.cls-7-gorro{opacity:0.5;}.cls-5-gorro{mix-blend-mode:soft-light;}.cls-6-gorro{fill:#fff;}.cls-10-gorro,.cls-12-gorro,.cls-7-gorro{mix-blend-mode:color-burn;}.cls-8-gorro{fill:#868584;}.cls-9-gorro{clip-path:url(#clip-path-gorro-2);}.cls-11-gorro{fill:#797979;}.cls-12-gorro{opacity:0.2;}.cls-13-gorro{fill:#9c9b9b;}.cls-14-gorro{clip-path:url(#clip-path-gorro-3);}.cls-15-gorro{clip-path:url(#clip-path-gorro-4);}.cls-16-gorro{clip-path:url(#clip-path-gorro-5);}.cls-17-gorro{clip-path:url(#clip-path-gorro-6);}</style><clipPath id="clip-path-gorro" transform="translate(9.46 6.07)"><path class="cls-1-gorro" d="M23.31,70.2,8.22,34l40.35,3.65S41.84,63.1,23.31,70.2Z"/></clipPath><clipPath id="clip-path-gorro-2" transform="translate(9.46 6.07)"><circle class="cls-2-gorro" cx="5.7" cy="33.1" r="5.7" transform="translate(-14.08 5.95) rotate(-26.3)"/></clipPath><clipPath id="clip-path-gorro-3" transform="translate(9.46 6.07)"><path class="cls-1-gorro" d="M261,13.74l23.23-8.57-3.37,25.37S265,25.63,261,13.74Z"/></clipPath><clipPath id="clip-path-gorro-4" transform="translate(9.46 6.07)"><circle class="cls-2-gorro" cx="284.84" cy="3.6" r="3.6" transform="translate(23.01 115.8) rotate(-23.92)"/></clipPath><clipPath id="clip-path-gorro-5" transform="translate(9.46 6.07)"><path class="cls-1-gorro" d="M56.33,323.51,42.57,302.93,68,300.28S67,316.85,56.33,323.51Z"/></clipPath><clipPath id="clip-path-gorro-6" transform="translate(9.46 6.07)"><circle class="cls-2-gorro" cx="40.89" cy="302.66" r="3.6" transform="translate(-175.5 87.14) rotate(-37.42)"/></clipPath></defs><g class="cls-3-gorro"><g id="Capa_2" data-name="Capa 2"><g id="Capa_1-2" data-name="Capa 1"><path class="cls-1-gorro" d="M23.31,70.2,8.22,34l40.35,3.65S41.84,63.1,23.31,70.2Z" transform="translate(9.46 6.07)"/><g class="cls-4-gorro"><path class="cls-2-gorro" d="M13.54,36.8c-.24,0-1.15.34.3,2.34-1.16-1-2.38-1.54-2.7-1.09s.63,1.4,1.93,2.18c-2.37-.71-2.4.27-2.31.49.35.91,2.83.44,5,.62C14.89,39.32,14.51,36.82,13.54,36.8Z" transform="translate(9.46 6.07)"/><path class="cls-2-gorro" d="M38.94,48.58c-.48,0-2.3.7.61,4.69-2.33-1.92-4.75-3.08-5.39-2.18s1.26,2.8,3.84,4.36c-4.72-1.42-4.79.53-4.62,1,.7,1.82,5.67.88,10.07,1.24C41.65,53.64,40.89,48.64,38.94,48.58Z" transform="translate(9.46 6.07)"/><path class="cls-2-gorro" d="M48.1,31.61c-.48,0-2.3.7.6,4.69-2.32-1.92-4.75-3.08-5.39-2.18s1.27,2.8,3.85,4.36c-4.73-1.42-4.79.53-4.62,1,.7,1.82,5.66.88,10.07,1.24C50.81,36.67,50.05,31.67,48.1,31.61Z" transform="translate(9.46 6.07)"/><path class="cls-2-gorro" d="M24.71,32.45c-.48,0-2.3.69.61,4.68C23,35.21,20.57,34.05,19.93,35s1.26,2.81,3.84,4.36c-4.72-1.42-4.79.54-4.62,1,.7,1.82,5.67.87,10.07,1.24C27.42,37.5,26.66,32.51,24.71,32.45Z" transform="translate(9.46 6.07)"/><path class="cls-2-gorro" d="M19.82,49.67c-.48,0-2.3.7.61,4.69-2.33-1.93-4.76-3.09-5.39-2.19S16.3,55,18.88,56.53c-4.72-1.41-4.79.54-4.62,1,.7,1.82,5.67.87,10.07,1.24C22.53,54.72,21.77,49.73,19.82,49.67Z" transform="translate(9.46 6.07)"/><path class="cls-2-gorro" d="M28.5,58.63c-.24,0-1.15.35.3,2.34-1.16-1-2.37-1.54-2.69-1.09s.63,1.4,1.92,2.18c-2.36-.71-2.4.27-2.31.49.35.91,2.83.44,5,.62C29.85,61.15,29.48,58.66,28.5,58.63Z" transform="translate(9.46 6.07)"/><path class="cls-2-gorro" d="M37.34,39c-.24,0-1.15.34.3,2.34-1.16-1-2.38-1.54-2.7-1.09s.64,1.4,1.93,2.18c-2.37-.71-2.4.27-2.31.49.35.91,2.83.44,5,.62C38.69,41.56,38.31,39.07,37.34,39Z" transform="translate(9.46 6.07)"/><path class="cls-2-gorro" d="M26.4,44.56c-.24,0-1.15.35.3,2.35-1.16-1-2.38-1.54-2.7-1.09s.63,1.4,1.93,2.18c-2.37-.71-2.4.26-2.31.49.35.91,2.83.44,5,.62C27.75,47.09,27.37,44.59,26.4,44.56Z" transform="translate(9.46 6.07)"/><g class="cls-5-gorro"><ellipse class="cls-6-gorro" cx="16.12" cy="55.66" rx="3.83" ry="21.99" transform="translate(-9.12 15.31) rotate(-20.62)"/></g><g class="cls-7-gorro"><rect class="cls-8-gorro" x="15.44" y="3.99" width="14.18" height="62.48" transform="translate(-6.54 57.56) rotate(-80.28)"/></g></g><circle class="cls-2-gorro" cx="5.7" cy="33.1" r="5.7" transform="translate(-4.62 12.02) rotate(-26.3)"/><g class="cls-9-gorro"><g class="cls-10-gorro"><path class="cls-11-gorro" d="M10.31,36.63C9.51,36.1,8.74,35.54,8,35s-1.53-1.14-2.28-1.73-1.5-1.18-2.24-1.79l-1.09-.93c-.36-.31-.73-.62-1.08-.95l1.18.82,1.16.84c.78.56,1.53,1.15,2.29,1.73s1.5,1.18,2.23,1.8S9.61,36,10.31,36.63Z" transform="translate(9.46 6.07)"/><path class="cls-11-gorro" d="M2.25,37.62c.53-.8,1.09-1.57,1.66-2.34S5.05,33.75,5.64,33s1.18-1.5,1.79-2.23l.92-1.1c.32-.35.63-.72,1-1.07-.26.4-.54.79-.81,1.18l-.84,1.16c-.56.77-1.15,1.53-1.73,2.28s-1.19,1.5-1.8,2.24S2.9,36.91,2.25,37.62Z" transform="translate(9.46 6.07)"/><path class="cls-11-gorro" d="M6.47,38.76c-.19-.94-.34-1.89-.48-2.83S5.72,34,5.6,33.09s-.23-1.9-.31-2.85l-.12-1.43c0-.47-.07-.95-.09-1.43.1.47.17.94.26,1.41l.22,1.42c.15.94.27,1.89.39,2.84s.23,1.89.31,2.85S6.43,37.8,6.47,38.76Z" transform="translate(9.46 6.07)"/><path class="cls-11-gorro" d="M.07,33.75C1,33.56,2,33.41,2.9,33.27s1.89-.27,2.84-.39,1.9-.23,2.85-.31L10,32.45c.47,0,1-.07,1.43-.09-.47.1-.94.17-1.41.26l-1.42.22c-.94.15-1.89.27-2.84.39s-1.9.23-2.85.31S1,33.71.07,33.75Z" transform="translate(9.46 6.07)"/></g><g class="cls-12-gorro"><path class="cls-13-gorro" d="M9.05,26.41c.16-.2.56-.21,1.12.05a4.82,4.82,0,0,1,1.89,1.75,7.48,7.48,0,0,1,1.2,3.71A7.85,7.85,0,0,1,12,36.72a8,8,0,0,1-3.94,3,7.67,7.67,0,0,1-3.89.32A4.82,4.82,0,0,1,1.83,39c-.46-.42-.6-.79-.48-1,.27-.49,1.4-.32,2.91-.63A7.09,7.09,0,0,0,8.81,34.6a7.12,7.12,0,0,0,.78-5.26C9.3,27.83,8.7,26.85,9.05,26.41Z" transform="translate(9.46 6.07)"/></g></g><path class="cls-1-gorro" d="M261,13.74l23.23-8.57-3.37,25.37S265,25.63,261,13.74Z" transform="translate(9.46 6.07)"/><g class="cls-14-gorro"><path class="cls-2-gorro" d="M282.31,8.45c0-.15-.19-.74-1.49.13.64-.71,1-1.46.76-1.67s-.9.36-1.43,1.15c.51-1.47-.1-1.52-.25-1.47-.58.2-.35,1.78-.52,3.16C280.68,9.24,282.26,9.06,282.31,8.45Z" transform="translate(9.46 6.07)"/><path class="cls-2-gorro" d="M274.2,24.18c0-.3-.38-1.47-3,.26,1.27-1.42,2.07-2.92,1.52-3.35s-1.81.73-2.86,2.32c1-2.95-.21-3-.5-2.95-1.17.4-.7,3.56-1.05,6.33C270.94,25.75,274.11,25.41,274.2,24.18Z" transform="translate(9.46 6.07)"/><path class="cls-2-gorro" d="M284.67,30.4c0-.3-.38-1.47-3,.26,1.27-1.42,2.07-2.92,1.52-3.34s-1.81.72-2.86,2.31c1-2.95-.21-3-.5-2.94-1.16.39-.7,3.55-1,6.32C281.41,32,284.58,31.63,284.67,30.4Z" transform="translate(9.46 6.07)"/><path class="cls-2-gorro" d="M284.76,15.62c0-.3-.38-1.47-3,.26,1.28-1.42,2.07-2.92,1.52-3.35s-1.8.73-2.85,2.32c1-2.95-.21-3-.5-2.95-1.17.4-.7,3.56-1.05,6.33C281.5,17.19,284.67,16.85,284.76,15.62Z" transform="translate(9.46 6.07)"/><path class="cls-2-gorro" d="M274,12.08c0-.3-.38-1.47-3,.26,1.28-1.42,2.07-2.92,1.52-3.35s-1.8.73-2.85,2.32c1-3-.21-3-.5-2.94-1.17.39-.7,3.55-1,6.32C270.75,13.66,273.93,13.31,274,12.08Z" transform="translate(9.46 6.07)"/><path class="cls-2-gorro" d="M268.13,17.32c0-.15-.19-.73-1.48.13.63-.71,1-1.46.76-1.67s-.9.36-1.43,1.16c.51-1.48-.11-1.52-.25-1.47-.58.19-.35,1.77-.52,3.16C266.5,18.11,268.09,17.94,268.13,17.32Z" transform="translate(9.46 6.07)"/><path class="cls-2-gorro" d="M280.27,23.42c0-.16-.19-.74-1.49.12.64-.7,1-1.46.76-1.67s-.9.36-1.43,1.16c.51-1.47-.1-1.52-.25-1.47-.58.19-.35,1.77-.52,3.16C278.64,24.2,280.22,24,280.27,23.42Z" transform="translate(9.46 6.07)"/><path class="cls-2-gorro" d="M277.07,16.36c0-.15-.19-.73-1.49.13.64-.71,1-1.46.76-1.67s-.9.36-1.43,1.16c.51-1.48-.1-1.52-.25-1.47-.58.19-.35,1.77-.52,3.16C275.44,17.15,277,17,277.07,16.36Z" transform="translate(9.46 6.07)"/><g class="cls-5-gorro"><ellipse class="cls-6-gorro" cx="270.33" cy="9.59" rx="13.89" ry="2.42" transform="matrix(0.95, -0.31, 0.31, 0.95, 20.05, 91.2)"/></g><g class="cls-7-gorro"><rect class="cls-8-gorro" x="263.32" y="9.69" width="39.47" height="8.96" transform="translate(219.32 294.03) rotate(-77.9)"/></g></g><circle class="cls-2-gorro" cx="284.84" cy="3.6" r="3.6" transform="translate(32.46 121.87) rotate(-23.92)"/><g class="cls-15-gorro"><g class="cls-10-gorro"><path class="cls-11-gorro" d="M282.5,6.42c.35-.49.72-1,1.1-1.44s.77-.93,1.15-1.39.79-.92,1.2-1.36l.61-.67c.21-.22.41-.44.63-.66-.18.25-.37.49-.55.73l-.56.71-1.15,1.4c-.4.45-.79.91-1.2,1.36S282.92,6,282.5,6.42Z" transform="translate(9.46 6.07)"/><path class="cls-11-gorro" d="M282.08,1.3q.74.54,1.44,1.11l1.39,1.15c.46.4.92.79,1.36,1.2l.67.61.66.62c-.25-.17-.49-.36-.73-.54l-.71-.56-1.39-1.15c-.46-.4-.92-.79-1.37-1.2S282.51,1.73,282.08,1.3Z" transform="translate(9.46 6.07)"/><path class="cls-11-gorro" d="M281.25,3.94c.6-.09,1.2-.16,1.8-.23s1.2-.12,1.8-.17,1.21-.09,1.81-.12l.9,0,.91,0-.9.13-.9.1c-.6.07-1.2.12-1.8.17s-1.2.09-1.81.12S281.86,3.94,281.25,3.94Z" transform="translate(9.46 6.07)"/><path class="cls-11-gorro" d="M284.58,0c.09.6.16,1.2.23,1.8s.12,1.2.17,1.8.09,1.2.12,1.81l0,.9c0,.3,0,.61,0,.91-.05-.3-.08-.6-.13-.9l-.1-.9c-.07-.6-.12-1.2-.17-1.8s-.09-1.2-.12-1.81S284.58.64,284.58,0Z" transform="translate(9.46 6.07)"/></g><g class="cls-12-gorro"><path class="cls-13-gorro" d="M289,5.89c.24.18,0,1.1-1.22,1.85a4.71,4.71,0,0,1-2.37.66,5,5,0,0,1-3-.92,5,5,0,0,1-1.8-2.57,4.61,4.61,0,0,1-.1-2.45c.33-1.4,1.13-1.91,1.38-1.73s.17.89.32,1.85a4.52,4.52,0,0,0,1.62,2.94,4.5,4.5,0,0,0,3.31.64C288.07,6,288.71,5.66,289,5.89Z" transform="translate(9.46 6.07)"/></g></g><path class="cls-1-gorro" d="M56.33,323.51,42.57,302.93,68,300.28S67,316.85,56.33,323.51Z" transform="translate(9.46 6.07)"/><g class="cls-16-gorro"><path class="cls-2-gorro" d="M46.2,304c-.15,0-.67.35.47,1.41-.84-.45-1.66-.66-1.8-.34s.56.79,1.46,1.11c-1.56-.15-1.46.46-1.38.59.33.52,1.81-.07,3.2-.23C47.35,305.4,46.81,303.9,46.2,304Z" transform="translate(9.46 6.07)"/><path class="cls-2-gorro" d="M63.39,308.21c-.3.05-1.35.71.94,2.83-1.68-.91-3.32-1.33-3.61-.7s1.13,1.59,2.92,2.24c-3.1-.3-2.91.91-2.75,1.17.66,1,3.62-.15,6.4-.46C65.68,311,64.6,308,63.39,308.21Z" transform="translate(9.46 6.07)"/><path class="cls-2-gorro" d="M67,296.57c-.3.05-1.34.72,1,2.83-1.68-.9-3.32-1.33-3.61-.69s1.12,1.58,2.92,2.23c-3.11-.3-2.91.92-2.75,1.18.66,1,3.62-.15,6.4-.46C69.29,299.38,68.21,296.37,67,296.57Z" transform="translate(9.46 6.07)"/><path class="cls-2-gorro" d="M52.6,299.94c-.3.05-1.34.71.94,2.83-1.67-.91-3.32-1.33-3.6-.69s1.12,1.58,2.91,2.23c-3.1-.3-2.9.92-2.74,1.17.65,1,3.62-.14,6.39-.45C54.89,302.74,53.81,299.74,52.6,299.94Z" transform="translate(9.46 6.07)"/><path class="cls-2-gorro" d="M51.66,311.21c-.29.05-1.34.71,1,2.83-1.68-.91-3.32-1.33-3.61-.69s1.13,1.58,2.92,2.23c-3.1-.3-2.91.92-2.75,1.17.66,1.05,3.62-.14,6.4-.45C54,314,52.88,311,51.66,311.21Z" transform="translate(9.46 6.07)"/><path class="cls-2-gorro" d="M58.14,315.71c-.15,0-.67.35.47,1.41-.84-.45-1.66-.66-1.81-.35s.57.8,1.46,1.12c-1.55-.15-1.45.46-1.37.59.33.52,1.81-.08,3.2-.23C59.28,317.11,58.74,315.61,58.14,315.71Z" transform="translate(9.46 6.07)"/><path class="cls-2-gorro" d="M61.23,302.49c-.15,0-.67.35.47,1.41-.84-.45-1.66-.66-1.81-.35s.57.8,1.46,1.12c-1.55-.15-1.45.46-1.37.59.33.52,1.81-.08,3.2-.23C62.37,303.89,61.83,302.39,61.23,302.49Z" transform="translate(9.46 6.07)"/><path class="cls-2-gorro" d="M55.12,307.25c-.15,0-.67.35.47,1.41-.84-.45-1.66-.66-1.8-.35s.56.8,1.45,1.12c-1.55-.15-1.45.46-1.37.59.33.52,1.81-.08,3.2-.23C56.26,308.65,55.72,307.15,55.12,307.25Z" transform="translate(9.46 6.07)"/><g class="cls-5-gorro"><path class="cls-6-gorro" d="M57.41,327.19c-1.14.71-5.33-4-9.37-10.54s-6.39-12.38-5.25-13.08,5.33,4,9.37,10.54S58.55,326.49,57.41,327.19Z" transform="translate(9.46 6.07)"/></g><g class="cls-7-gorro"><rect class="cls-8-gorro" x="31.85" y="297.46" width="39.47" height="8.96" transform="translate(2.1 7.42) rotate(-1.4)"/></g></g><circle class="cls-2-gorro" cx="40.89" cy="302.66" r="3.6" transform="translate(-166.04 93.2) rotate(-37.42)"/><g class="cls-17-gorro"><g class="cls-10-gorro"><path class="cls-11-gorro" d="M44.18,304.29c-.56-.23-1.11-.49-1.65-.74l-1.63-.8c-.54-.27-1.07-.55-1.6-.84l-.8-.44-.78-.46.83.36.83.39c.54.25,1.08.52,1.62.79s1.08.55,1.6.84S43.66,304,44.18,304.29Z" transform="translate(9.46 6.07)"/><path class="cls-11-gorro" d="M39.3,305.88c.23-.56.49-1.1.74-1.65s.53-1.09.8-1.63.55-1.07.84-1.6l.44-.79c.15-.26.3-.53.46-.78l-.36.83-.39.82c-.25.55-.52,1.09-.79,1.63s-.55,1.07-.84,1.6S39.62,305.37,39.3,305.88Z" transform="translate(9.46 6.07)"/><path class="cls-11-gorro" d="M42.06,306.07c-.23-.56-.44-1.12-.65-1.69s-.39-1.14-.58-1.71-.37-1.15-.54-1.73l-.25-.87c-.08-.29-.16-.58-.23-.88.12.28.22.57.33.85l.31.85c.21.56.4,1.14.59,1.71s.37,1.15.54,1.73S41.92,305.49,42.06,306.07Z" transform="translate(9.46 6.07)"/><path class="cls-11-gorro" d="M37.48,303.75c.56-.23,1.13-.44,1.7-.64s1.14-.4,1.71-.59,1.15-.37,1.73-.54l.87-.25.87-.23-.84.34-.85.31-1.71.58c-.58.19-1.15.37-1.73.54S38.07,303.61,37.48,303.75Z" transform="translate(9.46 6.07)"/></g><g class="cls-12-gorro"><path class="cls-13-gorro" d="M42.15,298.11c.12-.28,1.07-.26,2.09.75A4.77,4.77,0,0,1,45.43,301a4.81,4.81,0,0,1-2.27,5.48,4.68,4.68,0,0,1-2.37.68c-1.43,0-2.11-.66-2-.94s.83-.38,1.73-.75a4,4,0,0,0,2.33-5.62C42.48,299,42,298.42,42.15,298.11Z" transform="translate(9.46 6.07)"/></g></g></g></g></g></svg>