<svg xmlns="http://www.w3.org/2000/svg" xmlns:xlink="http://www.w3.org/1999/xlink" viewBox="0 0 267.05 85.44"><defs><style>.cls-1-rama{fill:#a8cb62;}.cls-2-rama{fill:#006453;}.cls-3-rama{isolation:isolate;}.cls-4-rama{clip-path:url(#clip-path-rama);}.cls-19-rama,.cls-5-rama,.cls-8-rama{mix-blend-mode:color-burn;}.cls-6-rama{fill:#9c9b9b;}.cls-7-rama{fill:#306b2d;}.cls-17-rama,.cls-8-rama{opacity:0.5;}.cls-9-rama{clip-path:url(#clip-path-rama-2);}.cls-10-rama{clip-path:url(#clip-path-rama-3);}.cls-11-rama{clip-path:url(#clip-path-rama-4);}.cls-12-rama{clip-path:url(#clip-path-rama-5);}.cls-13-rama{clip-path:url(#clip-path-rama-6);}.cls-14-rama{clip-path:url(#clip-path-rama-7);}.cls-15-rama{clip-path:url(#clip-path-rama-8);}.cls-16-rama{mix-blend-mode:color-dodge;}.cls-17-rama{mix-blend-mode:overlay;}.cls-18-rama{fill:#fff;}.cls-19-rama{opacity:0.2;}</style><clipPath id="clip-path-rama" transform="translate(0.6 6.08)"><path class="cls-1-rama" d="M77.12,48.82s6.95,6.45,5.07,14.68S70.3,78.63,70.3,78.63s-6-10.57-4.13-18.8S77.12,48.82,77.12,48.82Z"/></clipPath><clipPath id="clip-path-rama-2" transform="translate(0.6 6.08)"><path class="cls-1-rama" d="M94.24,51.62s8.23-4.7,15.52-.44,10.88,15.87,10.88,15.87-11.88,2.57-19.17-1.69S94.24,51.62,94.24,51.62Z"/></clipPath><clipPath id="clip-path-rama-3" transform="translate(0.6 6.08)"><path class="cls-1-rama" d="M213.41,22.19s8.05,5,7.76,13.45-8.81,17.11-8.81,17.11-7.9-9.23-7.61-17.67S213.41,22.19,213.41,22.19Z"/></clipPath><clipPath id="clip-path-rama-4" transform="translate(0.6 6.08)"><path class="cls-1-rama" d="M25.39,15.83S26,25.29,19,30,0,32.87,0,32.87,2.86,21.06,9.87,16.35,25.39,15.83,25.39,15.83Z"/></clipPath><clipPath id="clip-path-rama-5" transform="translate(0.6 6.08)"><path class="cls-1-rama" d="M244.25,10.07s9.16-2.45,15.13,3.53,6.47,18.12,6.47,18.12-12.14-.54-18.1-6.52S244.25,10.07,244.25,10.07Z"/></clipPath><clipPath id="clip-path-rama-6" transform="translate(0.6 6.08)"><path class="cls-1-rama" d="M35.5,31.2S42.32,37.78,40.28,46,28.1,60.87,28.1,60.87,22.3,50.19,24.34,42,35.5,31.2,35.5,31.2Z"/></clipPath><clipPath id="clip-path-rama-7" transform="translate(0.6 6.08)"><path class="cls-1-rama" d="M155,7.91s7.83,5.35,7.18,13.77-9.52,16.72-9.52,16.72-7.51-9.56-6.86-18S155,7.91,155,7.91Z"/></clipPath><clipPath id="clip-path-rama-8" transform="translate(0.6 6.08)"><path class="cls-2-rama" d="M16.72,8.52C24,25.91,37.6,40.57,55,48.11a65.57,65.57,0,0,0,55-1.17,62.31,62.31,0,0,0,21.86-17.76c5.44-7,11.24-18.77,21.05-20.16,7.83-1.11,15.17,4.82,21.26,8.88,7.11,4.74,14.47,8.56,23,9.82,18.88,2.79,38.42-5.1,48.93-21.25,3.14-4.82-4.65-9.19-7.78-4.39-8.13,12.5-23.52,18.62-38.1,17.09-7.71-.82-14.3-4.15-20.67-8.37C173.07,6.46,166.35,1.46,158.36.28c-9.86-1.45-18,3.75-24.15,11.09s-10.65,15.26-18.05,21.22A56.25,56.25,0,0,1,67.31,43c-18.53-4.88-34.6-19.13-41.95-36.8C24.43,4,22.44,2.37,19.89,3.05c-2.08.56-4.1,3.23-3.17,5.47Z"/></clipPath></defs><g class="cls-3-rama"><g id="Capa_2" data-name="Capa 2"><g id="Capa_1-2" data-name="Capa 1"><path class="cls-1-rama" d="M77.12,48.82s6.95,6.45,5.07,14.68S70.3,78.63,70.3,78.63s-6-10.57-4.13-18.8S77.12,48.82,77.12,48.82Z" transform="translate(0.6 6.08)"/><g class="cls-4-rama"><g class="cls-5-rama"><path class="cls-6-rama" d="M65.2,70.06a17.88,17.88,0,0,0,4.12-1.76A17.94,17.94,0,0,0,73.19,66a17.52,17.52,0,0,0-4.13,1.76C66.85,68.89,65.12,69.91,65.2,70.06Z" transform="translate(0.6 6.08)"/><path class="cls-6-rama" d="M75.21,58.73a30.64,30.64,0,0,0,2.4,5.42,31,31,0,0,0,2.92,5.16c.15-.07-.93-2.5-2.4-5.42S75.36,58.65,75.21,58.73Z" transform="translate(0.6 6.08)"/><path class="cls-6-rama" d="M64.84,64.67a20,20,0,0,0,4.67-1.06c2.54-.74,4.56-1.46,4.51-1.62a20.14,20.14,0,0,0-4.67,1.06A19.59,19.59,0,0,0,64.84,64.67Z" transform="translate(0.6 6.08)"/><path class="cls-6-rama" d="M74.46,76.72a7.87,7.87,0,0,0-.9-2.88,7.86,7.86,0,0,0-1.44-2.65,8.1,8.1,0,0,0,.9,2.88A8.35,8.35,0,0,0,74.46,76.72Z" transform="translate(0.6 6.08)"/></g><path class="cls-7-rama" d="M77.18,48.76c-.36,2.6-.83,5.18-1.33,7.75s-1,5.13-1.62,7.68S73,69.28,72.35,71.81l-1,3.79c-.39,1.25-.73,2.52-1.15,3.76.16-1.3.4-2.59.6-3.89l.72-3.86c.48-2.57,1.05-5.12,1.62-7.68s1.2-5.09,1.88-7.62S76.36,51.26,77.18,48.76Z" transform="translate(0.6 6.08)"/><g class="cls-8-rama"><ellipse class="cls-6-rama" cx="78.71" cy="55.92" rx="17.7" ry="2.79" transform="translate(-2.28 10.37) rotate(-3.07)"/></g></g><path class="cls-1-rama" d="M94.24,51.62s8.23-4.7,15.52-.44,10.88,15.87,10.88,15.87-11.88,2.57-19.17-1.69S94.24,51.62,94.24,51.62Z" transform="translate(0.6 6.08)"/><g class="cls-9-rama"><g class="cls-5-rama"><path class="cls-6-rama" d="M110.94,69.35a17.78,17.78,0,0,0-.45-4.46,17.11,17.11,0,0,0-1-4.37,17.21,17.21,0,0,0,.45,4.46A17.11,17.11,0,0,0,110.94,69.35Z" transform="translate(0.6 6.08)"/><path class="cls-6-rama" d="M103.12,56.41a31.06,31.06,0,0,0,5.89-.67,31.71,31.71,0,0,0,5.8-1.24,30.45,30.45,0,0,0-5.89.66A30,30,0,0,0,103.12,56.41Z" transform="translate(0.6 6.08)"/><path class="cls-6-rama" d="M105.69,68.08a20.24,20.24,0,0,0,.39-4.77,20,20,0,0,0-.2-4.79,20.37,20.37,0,0,0-.39,4.78A19.92,19.92,0,0,0,105.69,68.08Z" transform="translate(0.6 6.08)"/><path class="cls-6-rama" d="M120.06,62.5a8,8,0,0,0-3,0,7.85,7.85,0,0,0-3,.59,8.08,8.08,0,0,0,3,0A8,8,0,0,0,120.06,62.5Z" transform="translate(0.6 6.08)"/></g><path class="cls-7-rama" d="M94.2,51.55c2.38,1.12,4.69,2.34,7,3.58S105.77,57.67,108,59s4.5,2.66,6.71,4.07l3.31,2.12c1.08.74,2.18,1.45,3.24,2.22-1.19-.54-2.35-1.16-3.53-1.73l-3.47-1.84c-2.31-1.23-4.58-2.54-6.84-3.85s-4.5-2.67-6.71-4.08S96.34,53.08,94.2,51.55Z" transform="translate(0.6 6.08)"/><g class="cls-8-rama"><path class="cls-6-rama" d="M113.4,45.68c.87,1.27-2.66,5.22-7.9,8.83S95.31,60,94.44,58.74s2.66-5.22,7.9-8.82S112.53,44.41,113.4,45.68Z" transform="translate(0.6 6.08)"/></g></g><path class="cls-1-rama" d="M213.41,22.19s8.05,5,7.76,13.45-8.81,17.11-8.81,17.11-7.9-9.23-7.61-17.67S213.41,22.19,213.41,22.19Z" transform="translate(0.6 6.08)"/><g class="cls-10-rama"><g class="cls-5-rama"><path class="cls-6-rama" d="M205.73,45.3a17.56,17.56,0,0,0,3.72-2.51,17.32,17.32,0,0,0,3.36-3,17.56,17.56,0,0,0-3.72,2.51A17.32,17.32,0,0,0,205.73,45.3Z" transform="translate(0.6 6.08)"/><path class="cls-6-rama" d="M213.42,32.28a30.52,30.52,0,0,0,3.38,4.87,31.11,31.11,0,0,0,3.84,4.51,29.53,29.53,0,0,0-3.38-4.87A30.4,30.4,0,0,0,213.42,32.28Z" transform="translate(0.6 6.08)"/><path class="cls-6-rama" d="M204.36,40.08a19.92,19.92,0,0,0,4.38-1.93,19.54,19.54,0,0,0,4.12-2.44,20.14,20.14,0,0,0-4.38,1.93A19.37,19.37,0,0,0,204.36,40.08Z" transform="translate(0.6 6.08)"/><path class="cls-6-rama" d="M216.09,50.08a8.29,8.29,0,0,0-1.43-2.65,8.06,8.06,0,0,0-1.92-2.33,8.08,8.08,0,0,0,1.43,2.65A8.06,8.06,0,0,0,216.09,50.08Z" transform="translate(0.6 6.08)"/></g><path class="cls-7-rama" d="M213.46,22.12c.14,2.62.16,5.24.17,7.86s-.06,5.23-.14,7.85-.21,5.23-.4,7.84l-.3,3.91c-.14,1.31-.24,2.61-.42,3.92-.08-1.32-.09-2.63-.14-3.94l0-3.92c0-2.62.06-5.24.14-7.85s.21-5.23.4-7.84S213.13,24.73,213.46,22.12Z" transform="translate(0.6 6.08)"/><g class="cls-8-rama"><ellipse class="cls-6-rama" cx="213.35" cy="29.28" rx="15.02" ry="2.79" transform="translate(-0.92 49.71) rotate(-11.63)"/></g></g><path class="cls-1-rama" d="M25.39,15.83S26,25.29,19,30,0,32.87,0,32.87,2.86,21.06,9.87,16.35,25.39,15.83,25.39,15.83Z" transform="translate(0.6 6.08)"/><g class="cls-11-rama"><g class="cls-5-rama"><path class="cls-6-rama" d="M2.15,23.13a17.22,17.22,0,0,0,4.21,1.55,17.89,17.89,0,0,0,4.38,1c0-.16-1.84-.85-4.21-1.55A17.7,17.7,0,0,0,2.15,23.13Z" transform="translate(0.6 6.08)"/><path class="cls-6-rama" d="M17.21,21.74a30.78,30.78,0,0,0-2,5.59,31.24,31.24,0,0,0-1.41,5.76,31.23,31.23,0,0,0,2-5.59A29.77,29.77,0,0,0,17.21,21.74Z" transform="translate(0.6 6.08)"/><path class="cls-6-rama" d="M5.59,19c-.08.15,1.77,1.23,4.12,2.43s4.32,2.06,4.4,1.91A20.37,20.37,0,0,0,10,20.87,20.81,20.81,0,0,0,5.59,19Z" transform="translate(0.6 6.08)"/><path class="cls-6-rama" d="M4.34,34.33a7.81,7.81,0,0,0,1.32-2.71,8.07,8.07,0,0,0,.76-2.92,8.1,8.1,0,0,0-1.31,2.72A8.15,8.15,0,0,0,4.34,34.33Z" transform="translate(0.6 6.08)"/></g><path class="cls-7-rama" d="M25.47,15.82c-2,1.66-4.15,3.21-6.27,4.74s-4.28,3-6.44,4.49S8.4,27.94,6.17,29.31L2.82,31.37C1.68,32,.56,32.7-.6,33.32c1-.84,2.07-1.61,3.1-2.42l3.17-2.32c2.12-1.55,4.28-3,6.44-4.49s4.36-2.89,6.6-4.26S23.16,17.08,25.47,15.82Z" transform="translate(0.6 6.08)"/><g class="cls-8-rama"><path class="cls-6-rama" d="M23.46,38.13c-1.51.31-4-5.58-5.53-13.15s-1.56-14-.05-14.27,4,5.58,5.52,13.16S25,37.83,23.46,38.13Z" transform="translate(0.6 6.08)"/></g></g><path class="cls-1-rama" d="M244.25,10.07s9.16-2.45,15.13,3.53,6.47,18.12,6.47,18.12-12.14-.54-18.1-6.52S244.25,10.07,244.25,10.07Z" transform="translate(0.6 6.08)"/><g class="cls-12-rama"><g class="cls-5-rama"><path class="cls-6-rama" d="M255.88,31.48a17.44,17.44,0,0,0,.71-4.43,17.61,17.61,0,0,0,.13-4.49A17.44,17.44,0,0,0,256,27,17.63,17.63,0,0,0,255.88,31.48Z" transform="translate(0.6 6.08)"/><path class="cls-6-rama" d="M251.62,17a30,30,0,0,0,5.87.86,30.8,30.8,0,0,0,5.92.28,29.84,29.84,0,0,0-5.87-.86A30.79,30.79,0,0,0,251.62,17Z" transform="translate(0.6 6.08)"/><path class="cls-6-rama" d="M251.13,28.91a20.07,20.07,0,0,0,1.59-4.52,19.72,19.72,0,0,0,1-4.68,20.66,20.66,0,0,0-1.59,4.52A19.72,19.72,0,0,0,251.13,28.91Z" transform="translate(0.6 6.08)"/><path class="cls-6-rama" d="M266.45,27.18a8,8,0,0,0-2.92-.77,7.81,7.81,0,0,0-3-.19,8,8,0,0,0,2.92.76A7.94,7.94,0,0,0,266.45,27.18Z" transform="translate(0.6 6.08)"/></g><path class="cls-7-rama" d="M244.23,10c2,1.68,3.94,3.45,5.86,5.24s3.78,3.62,5.64,5.46,3.67,3.73,5.44,5.65l2.66,2.89c.86,1,1.74,2,2.57,3-1-.83-2-1.72-3-2.58L260.55,27c-1.93-1.78-3.78-3.62-5.64-5.46s-3.67-3.73-5.45-5.66S245.91,12,244.23,10Z" transform="translate(0.6 6.08)"/><g class="cls-8-rama"><path class="cls-6-rama" d="M258.72,5c1,1.15-1.77,5.35-6.25,9.38s-8.95,6.37-10,5.23,1.77-5.34,6.25-9.37S257.69,3.88,258.72,5Z" transform="translate(0.6 6.08)"/></g></g><path class="cls-1-rama" d="M35.5,31.2S42.32,37.78,40.28,46,28.1,60.87,28.1,60.87,22.3,50.19,24.34,42,35.5,31.2,35.5,31.2Z" transform="translate(0.6 6.08)"/><g class="cls-13-rama"><g class="cls-5-rama"><path class="cls-6-rama" d="M23.16,52.2a17.21,17.21,0,0,0,4.16-1.68,17.65,17.65,0,0,0,3.91-2.2A16.89,16.89,0,0,0,27.07,50,17.65,17.65,0,0,0,23.16,52.2Z" transform="translate(0.6 6.08)"/><path class="cls-6-rama" d="M33.4,41.06a29.86,29.86,0,0,0,2.29,5.47,30.71,30.71,0,0,0,2.82,5.22,29.86,29.86,0,0,0-2.29-5.47A31.21,31.21,0,0,0,33.4,41.06Z" transform="translate(0.6 6.08)"/><path class="cls-6-rama" d="M22.91,46.81a20.29,20.29,0,0,0,4.69-1,20.24,20.24,0,0,0,4.54-1.53,19.68,19.68,0,0,0-4.69,1A19.66,19.66,0,0,0,22.91,46.81Z" transform="translate(0.6 6.08)"/><path class="cls-6-rama" d="M32.3,59a8,8,0,0,0-.85-2.9,8,8,0,0,0-1.39-2.68,8,8,0,0,0,.85,2.9A8,8,0,0,0,32.3,59Z" transform="translate(0.6 6.08)"/></g><path class="cls-7-rama" d="M35.55,31.14c-.4,2.6-.92,5.16-1.47,7.72S32.93,44,32.31,46.51s-1.29,5.07-2,7.58l-1.1,3.77c-.41,1.25-.78,2.5-1.23,3.74.19-1.3.46-2.58.68-3.88l.79-3.84c.54-2.57,1.15-5.11,1.78-7.65s1.29-5.07,2-7.58S34.69,33.62,35.55,31.14Z" transform="translate(0.6 6.08)"/><g class="cls-8-rama"><path class="cls-6-rama" d="M48.17,39.87c0,1.52-5.59,2.63-12.32,1.65s-11.76-3.58-11.36-5.05S30.26,35.1,36.64,36,48.21,38.31,48.17,39.87Z" transform="translate(0.6 6.08)"/></g></g><path class="cls-1-rama" d="M155,7.91s7.83,5.35,7.18,13.77-9.52,16.72-9.52,16.72-7.51-9.56-6.86-18S155,7.91,155,7.91Z" transform="translate(0.6 6.08)"/><g class="cls-14-rama"><g class="cls-5-rama"><path class="cls-6-rama" d="M146.33,30.67c.1.14,1.81-.92,3.82-2.35a17.39,17.39,0,0,0,3.49-2.82,17.63,17.63,0,0,0-3.82,2.35A17.79,17.79,0,0,0,146.33,30.67Z" transform="translate(0.6 6.08)"/><path class="cls-6-rama" d="M154.56,18a30.44,30.44,0,0,0,3.18,5,30.21,30.21,0,0,0,3.65,4.68,30.11,30.11,0,0,0-3.17-5C156.33,20,154.7,17.89,154.56,18Z" transform="translate(0.6 6.08)"/><path class="cls-6-rama" d="M145.19,25.4a20.27,20.27,0,0,0,4.46-1.74,19.16,19.16,0,0,0,4.22-2.27,20.64,20.64,0,0,0-4.47,1.74A19.74,19.74,0,0,0,145.19,25.4Z" transform="translate(0.6 6.08)"/><path class="cls-6-rama" d="M156.48,35.89a7.84,7.84,0,0,0-1.32-2.71c-.86-1.42-1.67-2.5-1.81-2.41a7.84,7.84,0,0,0,1.32,2.71A7.89,7.89,0,0,0,156.48,35.89Z" transform="translate(0.6 6.08)"/></g><path class="cls-7-rama" d="M155,7.84c0,2.63-.05,5.24-.16,7.86s-.28,5.23-.47,7.84-.43,5.21-.73,7.81l-.46,3.9c-.2,1.3-.35,2.6-.58,3.89,0-1.31,0-2.62,0-3.93l.14-3.93c.09-2.61.28-5.22.47-7.83s.43-5.22.73-7.82S154.6,10.43,155,7.84Z" transform="translate(0.6 6.08)"/><g class="cls-8-rama"><path class="cls-6-rama" d="M169.06,12.29c.12,1.57-5.93,3.23-13.14,5.4s-13.2,4-14,2.65c-.36-.67.73-2.06,2.94-3.61a35.74,35.74,0,0,1,19.73-5.86C167.32,11,169,11.54,169.06,12.29Z" transform="translate(0.6 6.08)"/></g></g><path class="cls-2-rama" d="M16.72,8.52C24,25.91,37.6,40.57,55,48.11a65.57,65.57,0,0,0,55-1.17,62.31,62.31,0,0,0,21.86-17.76c5.44-7,11.24-18.77,21.05-20.16,7.83-1.11,15.17,4.82,21.26,8.88,7.11,4.74,14.47,8.56,23,9.82,18.88,2.79,38.42-5.1,48.93-21.25,3.14-4.82-4.65-9.19-7.78-4.39-8.13,12.5-23.52,18.62-38.1,17.09-7.71-.82-14.3-4.15-20.67-8.37C173.07,6.46,166.35,1.46,158.36.28c-9.86-1.45-18,3.75-24.15,11.09s-10.65,15.26-18.05,21.22A56.25,56.25,0,0,1,67.31,43c-18.53-4.88-34.6-19.13-41.95-36.8C24.43,4,22.44,2.37,19.89,3.05c-2.08.56-4.1,3.23-3.17,5.47Z" transform="translate(0.6 6.08)"/><g class="cls-15-rama"><g class="cls-16-rama"><g class="cls-17-rama"><path class="cls-18-rama" d="M40.22,24.55c-.09,0-.51.67-1.4,1.64a11.36,11.36,0,0,1-9.12,3.7c-1.32-.08-2.12-.3-2.14-.21a4.71,4.71,0,0,0,2.1.62,10.45,10.45,0,0,0,9.48-3.84A5,5,0,0,0,40.22,24.55Z" transform="translate(0.6 6.08)"/></g><g class="cls-17-rama"><path class="cls-18-rama" d="M40.75,17.92c-.09,0-.5.94-1.43,2.33a18,18,0,0,1-4.56,4.61,17.87,17.87,0,0,1-5.93,2.63c-1.63.38-2.69.42-2.68.52a7.3,7.3,0,0,0,2.76-.12,15.81,15.81,0,0,0,10.75-7.42A7.33,7.33,0,0,0,40.75,17.92Z" transform="translate(0.6 6.08)"/></g><g class="cls-17-rama"><path class="cls-18-rama" d="M59,32.67c-.1,0-.37,1.11-1.09,2.84a23.72,23.72,0,0,1-3.78,6.18,22.59,22.59,0,0,1-2.86,2.79A10.18,10.18,0,0,1,48.5,46.2a4.13,4.13,0,0,1-2.1.33c-.5-.06-.77-.18-.79-.13s.22.22.75.36a4.1,4.1,0,0,0,2.29-.17,9.62,9.62,0,0,0,2.91-1.69,20,20,0,0,0,3-2.83,20.75,20.75,0,0,0,3.73-6.41,18.53,18.53,0,0,0,.61-2.17A2.41,2.41,0,0,0,59,32.67Z" transform="translate(0.6 6.08)"/></g><g class="cls-17-rama"><path class="cls-18-rama" d="M60.57,36.77c-.1,0-.11.91-.39,2.33a16.27,16.27,0,0,1-2,5.25,16.5,16.5,0,0,1-3.71,4.23A20.62,20.62,0,0,0,52.56,50a6.54,6.54,0,0,0,2.14-1.1,14.36,14.36,0,0,0,5.89-9.74A6.25,6.25,0,0,0,60.57,36.77Z" transform="translate(0.6 6.08)"/></g><g class="cls-17-rama"><path class="cls-18-rama" d="M64.69,38.56c-.1,0,.09,1.07.07,2.77a18.08,18.08,0,0,1-1.28,6.44A18.32,18.32,0,0,1,60,53.31c-1.16,1.23-2,1.86-2,1.94a7.65,7.65,0,0,0,2.26-1.65,16.24,16.24,0,0,0,4.94-12.28A7.8,7.8,0,0,0,64.69,38.56Z" transform="translate(0.6 6.08)"/></g><g class="cls-17-rama"><path class="cls-18-rama" d="M87.93,42.61c-.08,0,.31.83.64,2.18a12,12,0,0,1,.1,5.36A12.14,12.14,0,0,1,86.36,55c-.86,1.09-1.55,1.65-1.49,1.72a5.11,5.11,0,0,0,1.81-1.46A10.82,10.82,0,0,0,89,44.68,4.92,4.92,0,0,0,87.93,42.61Z" transform="translate(0.6 6.08)"/></g><g class="cls-17-rama"><path class="cls-18-rama" d="M109.74,33.89a43.68,43.68,0,0,1,2.15,6.25c.8,3.57.46,6.57.64,6.58a13.69,13.69,0,0,0-.07-6.71A13.68,13.68,0,0,0,109.74,33.89Z" transform="translate(0.6 6.08)"/></g><g class="cls-17-rama"><path class="cls-18-rama" d="M117.58,30.16c-.17.08,1.35,2.88,2.16,6.67s.64,7,.83,7a5.88,5.88,0,0,0,.25-2.07,22,22,0,0,0-.51-5,21.37,21.37,0,0,0-1.64-4.76A6.19,6.19,0,0,0,117.58,30.16Z" transform="translate(0.6 6.08)"/></g><g class="cls-17-rama"><path class="cls-18-rama" d="M113.42,30.68a40.56,40.56,0,0,1,2.91,6.61c1.15,3.83,1,7.13,1.15,7.13a6.07,6.07,0,0,0,.2-2.15,19.4,19.4,0,0,0-2.92-9.9A5.7,5.7,0,0,0,113.42,30.68Z" transform="translate(0.6 6.08)"/></g><g class="cls-17-rama"><path class="cls-18-rama" d="M126.17,14.89c0,.08.87.64,2.1,1.83a15.41,15.41,0,0,1,3.67,5.46,15.62,15.62,0,0,1,1,6.51c-.1,1.7-.4,2.74-.3,2.77a7.31,7.31,0,0,0,.71-2.73,14.12,14.12,0,0,0-4.8-12.32A6.89,6.89,0,0,0,126.17,14.89Z" transform="translate(0.6 6.08)"/></g><g class="cls-17-rama"><path class="cls-18-rama" d="M147.84,0c-.06.08.57.57,1.37,1.54a12.11,12.11,0,0,1,2.23,4.31,11.89,11.89,0,0,1,.29,4.85c-.19,1.24-.48,2-.39,2a4.37,4.37,0,0,0,.79-1.95,10.57,10.57,0,0,0-2.61-9.5A4.56,4.56,0,0,0,147.84,0Z" transform="translate(0.6 6.08)"/></g><g class="cls-17-rama"><path class="cls-18-rama" d="M155.82-1.32a20.65,20.65,0,0,0,.87,2,12.63,12.63,0,0,1,.81,5.08,12.67,12.67,0,0,1-1.32,5c-.6,1.18-1.14,1.83-1.06,1.9a5,5,0,0,0,1.42-1.71,11.09,11.09,0,0,0,1.54-5.14,11.27,11.27,0,0,0-1-5.27A5.16,5.16,0,0,0,155.82-1.32Z" transform="translate(0.6 6.08)"/></g><g class="cls-17-rama"><path class="cls-18-rama" d="M180.63,8.58c-.09,0,.14.86.1,2.22a9,9,0,0,1-1.59,4.92,9.11,9.11,0,0,1-4.09,3.17c-1.26.5-2.13.57-2.11.67a4.44,4.44,0,0,0,2.25-.28,8.46,8.46,0,0,0,5.95-8.49A4.37,4.37,0,0,0,180.63,8.58Z" transform="translate(0.6 6.08)"/></g><g class="cls-17-rama"><path class="cls-18-rama" d="M203.51,16.72a16.6,16.6,0,0,0,.27,2.19A16.15,16.15,0,0,1,201.5,29a17.27,17.27,0,0,0-1.19,1.86,5.51,5.51,0,0,0,1.53-1.64,13.87,13.87,0,0,0,2.2-4.95,13.72,13.72,0,0,0,.14-5.41A5.61,5.61,0,0,0,203.51,16.72Z" transform="translate(0.6 6.08)"/></g><g class="cls-17-rama"><path class="cls-18-rama" d="M205.71,15.85c-.08.06.48.84,1.1,2.23A14.91,14.91,0,0,1,207,29.61c-.58,1.4-1.12,2.2-1,2.26a6.39,6.39,0,0,0,1.4-2.1,13.36,13.36,0,0,0,1.29-5.95,13.6,13.6,0,0,0-1.45-5.92A6.18,6.18,0,0,0,205.71,15.85Z" transform="translate(0.6 6.08)"/></g><g class="cls-17-rama"><path class="cls-18-rama" d="M210.93,15.18c-.06.07.77.7,1.81,2a13.49,13.49,0,0,1,2.64,12c-.41,1.6-.89,2.52-.8,2.56a6.68,6.68,0,0,0,1.2-2.45,12.67,12.67,0,0,0-2.73-12.4A6.31,6.31,0,0,0,210.93,15.18Z" transform="translate(0.6 6.08)"/></g></g><g class="cls-19-rama"><path class="cls-6-rama" d="M256.13-6.07c.26.1-.81,4.22-5,10.53A57.36,57.36,0,0,1,242,14.84a59.2,59.2,0,0,1-15.5,9.92,57.33,57.33,0,0,1-21.92,4.71,61.07,61.07,0,0,1-25.28-5c-1-.46-2.08-1-3.13-1.48s-2-1.12-3.08-1.68-2-1.25-3-1.9l-2.86-2a61.45,61.45,0,0,0-5.62-3.59,16.76,16.76,0,0,0-5.7-2,9.4,9.4,0,0,0-5.44.94A11.68,11.68,0,0,0,148,14.39a20,20,0,0,0-2.27,2.32,58.39,58.39,0,0,0-4.14,5.78c-1.32,2.09-2.92,4.24-4.48,6.37a73.36,73.36,0,0,1-11,11.07,73.87,73.87,0,0,1-12.72,8.18L110,49.72l-3.4,1.38c-1.12.48-2.28.83-3.42,1.21s-2.27.8-3.44,1.06l-3.45.88c-1.15.25-2.31.43-3.45.65l-1.72.32-1.73.19c-1.14.12-2.28.27-3.42.36a66.12,66.12,0,0,1-25.52-3.16A70.87,70.87,0,0,1,40.69,42.33,70,70,0,0,1,27.51,29.59c-.88-1-1.6-2.11-2.33-3.13a35.52,35.52,0,0,1-2-3c-.6-1-1.16-1.93-1.7-2.83S20.55,18.8,20.12,18a41.65,41.65,0,0,1-2-4.59c-.26-.68-.51-1.29-.71-1.87l-.46-1.6c-.52-1.91-.71-2.93-.52-3s.72.84,1.57,2.59l.7,1.47.93,1.73c.67,1.24,1.41,2.69,2.41,4.23.49.77,1,1.61,1.52,2.45L25.38,22c.61.92,1.36,1.8,2.11,2.74S29,26.65,29.9,27.58A70.72,70.72,0,0,0,43,39.12a69.25,69.25,0,0,0,18.9,9.08,62.42,62.42,0,0,0,23.71,2.45c1-.1,2.11-.26,3.17-.38l1.59-.2,1.59-.32c1.06-.22,2.13-.4,3.2-.65l3.19-.86c1.08-.25,2.11-.67,3.17-1s2.13-.7,3.16-1.16l3.14-1.31,3.08-1.52a69,69,0,0,0,11.72-7.63,68.63,68.63,0,0,0,10.1-10.2c1.43-2,2.85-3.84,4.21-6a63.1,63.1,0,0,1,4.57-6.31,24.28,24.28,0,0,1,2.9-2.93A16.66,16.66,0,0,1,148,7.79a14.69,14.69,0,0,1,8.6-1.43,21.8,21.8,0,0,1,7.6,2.72,64.47,64.47,0,0,1,6.08,4L173,15l2.71,1.76c.93.53,1.85,1.07,2.78,1.58s1.89,1,2.84,1.39a57.35,57.35,0,0,0,23.17,5.11A54.48,54.48,0,0,0,225,21.11a58.88,58.88,0,0,0,15-8.66,62.1,62.1,0,0,0,9.39-9.29C254-2.51,255.69-6.29,256.13-6.07Z" transform="translate(0.6 6.08)"/></g></g></g></g></g></svg>