<?xml version="1.0" encoding="UTF-8"?>
<svg xmlns="http://www.w3.org/2000/svg" xmlns:xlink="http://www.w3.org/1999/xlink" viewBox="0 0 363.39 248.89">
  <defs>
    <style>
      .cls-dino-1 {
        clip-path: url(#clippath-dino-6);
      }

      .cls-dino-2 {
        clip-path: url(#clippath-dino-7);
      }

      .cls-dino-3 {
        clip-path: url(#clippath-dino-17);
      }

      .cls-dino-4 {
        fill: #112738;
      }

      .cls-dino-5 {
        clip-path: url(#clippath-dino-15);
      }

      .cls-dino-6 {
        clip-path: url(#clippath-dino-18);
      }

      .cls-dino-7 {
        clip-path: url(#clippath-dino-4);
      }

      .cls-dino-8 {
        clip-path: url(#clippath-dino-9);
      }

      .cls-dino-9 {
        mix-blend-mode: color-dodge;
      }

      .cls-dino-10 {
        clip-path: url(#clippath-dino-10);
      }

      .cls-dino-11 {
        fill: #332f30;
      }

      .cls-dino-12 {
        fill: #fff;
      }

      .cls-dino-13 {
        fill: #08493a;
      }

      .cls-dino-14 {
        clip-path: url(#clippath-dino-11);
      }

      .cls-dino-15 {
        fill: none;
      }

      .cls-dino-16, .cls-dino-17, .cls-dino-18, .cls-dino-19, .cls-dino-20 {
        mix-blend-mode: color-burn;
      }

      .cls-dino-21 {
        fill: #150220;
      }

      .cls-dino-17, .cls-dino-22 {
        opacity: .2;
      }

      .cls-dino-23 {
        clip-path: url(#clippath-dino-1);
      }

      .cls-dino-24 {
        fill: #605c5a;
      }

      .cls-dino-25 {
        mix-blend-mode: overlay;
      }

      .cls-dino-25, .cls-dino-26, .cls-dino-19 {
        opacity: .5;
      }

      .cls-dino-27 {
        isolation: isolate;
      }

      .cls-dino-28 {
        fill: #5373b1;
      }

      .cls-dino-29 {
        clip-path: url(#clippath-dino-5);
      }

      .cls-dino-30 {
        fill: #234f17;
      }

      .cls-dino-31 {
        clip-path: url(#clippath-dino-8);
      }

      .cls-dino-32 {
        clip-path: url(#clippath-dino-3);
      }

      .cls-dino-33 {
        fill: #94cf4d;
      }

      .cls-dino-34 {
        clip-path: url(#clippath-dino-12);
      }

      .cls-dino-35 {
        clip-path: url(#clippath-dino-14);
      }

      .cls-dino-36 {
        fill: #fff9f2;
      }

      .cls-dino-22, .cls-dino-26 {
        mix-blend-mode: soft-light;
      }

      .cls-dino-18 {
        opacity: .3;
      }

      .cls-dino-37 {
        fill: #4d91aa;
      }

      .cls-dino-38 {
        fill: #fadb37;
      }

      .cls-dino-39 {
        fill: #180a76;
      }

      .cls-dino-40 {
        clip-path: url(#clippath-dino-16);
      }

      .cls-dino-41 {
        clip-path: url(#clippath-dino-2);
      }

      .cls-dino-42 {
        fill: #f95f11;
      }

      .cls-dino-43 {
        clip-path: url(#clippath-dino-13);
      }

      .cls-dino-44 {
        fill: #79bdcb;
      }

      .cls-dino-45 {
        fill: #2d2d34;
      }

      .cls-dino-46 {
        fill: #fff4e6;
      }

      .cls-dino-47 {
        fill: #88847d;
      }

      .cls-dino-48 {
        clip-path: url(#clippath-dino);
      }

      .cls-dino-49 {
        fill: #060c33;
      }

      .cls-dino-20 {
        opacity: .1;
      }
    </style>
    <clipPath id="clippath-dino">
      <path class="cls-dino-33" d="M259.82,74.49s8.75,2.44,10.76,10.29c2.01,7.84-3.49,18.11-3.49,18.11,0,0-9.76-6.36-11.76-14.21-2.01-7.84,4.49-14.19,4.49-14.19Z"/>
    </clipPath>
    <clipPath id="clippath-dino-1">
      <path class="cls-dino-33" d="M297.27,56.59s9.08.4,12.81,7.59c3.73,7.18.69,18.43.69,18.43,0,0-10.94-3.99-14.67-11.18-3.73-7.18,1.17-14.84,1.17-14.84Z"/>
    </clipPath>
    <clipPath id="clippath-dino-2">
      <path class="cls-dino-33" d="M331.88,31.07s8.96-1.5,14.11,4.76c5.14,6.25,4.51,17.88,4.51,17.88,0,0-11.53-1.63-16.68-7.88-5.14-6.25-1.94-14.76-1.94-14.76Z"/>
    </clipPath>
    <clipPath id="clippath-dino-3">
      <path class="cls-dino-13" d="M223.78,90.23c42.92-6.49,83.48-26.75,114.91-56.64,8.83-8.4,16.84-17.58,24.1-27.36,1.34-1.81.28-4.61-1.49-5.67-2.1-1.26-4.34-.3-5.67,1.49-24.78,33.39-60.24,58.75-99.64,71.91-11.21,3.75-22.73,6.51-34.42,8.27-2.21.33-3.45,3.13-2.89,5.1.66,2.37,2.87,3.23,5.1,2.89h0Z"/>
    </clipPath>
    <clipPath id="clippath-dino-4">
      <path class="cls-dino-33" d="M24.34,160.38s.62,9.07-6.1,13.58c-6.72,4.51-18.24,2.76-18.24,2.76,0,0,2.74-11.32,9.46-15.83,6.72-4.51,14.88-.5,14.88-.5Z"/>
    </clipPath>
    <clipPath id="clippath-dino-5">
      <path class="cls-dino-33" d="M44.65,189.28s2.09,8.84-3.8,14.39c-5.89,5.55-17.54,5.7-17.54,5.7,0,0,.85-11.62,6.75-17.17,5.89-5.55,14.59-2.93,14.59-2.93Z"/>
    </clipPath>
    <clipPath id="clippath-dino-6">
      <path class="cls-dino-33" d="M77.09,200.2s6.54,6.31,4.58,14.16c-1.96,7.85-11.68,14.28-11.68,14.28,0,0-5.56-10.24-3.6-18.09s10.7-10.35,10.7-10.35Z"/>
    </clipPath>
    <clipPath id="clippath-dino-7">
      <path class="cls-dino-33" d="M152.67,219.3s4.56,7.86.52,14.88c-4.04,7.01-15.15,10.52-15.15,10.52,0,0-2.54-11.37,1.5-18.38,4.04-7.01,13.13-7.02,13.13-7.02Z"/>
    </clipPath>
    <clipPath id="clippath-dino-8">
      <path class="cls-dino-33" d="M116.05,189.95s7.5,5.13,6.88,13.2c-.62,8.07-9.13,16.03-9.13,16.03,0,0-7.19-9.16-6.57-17.23.62-8.07,8.82-11.99,8.82-11.99Z"/>
    </clipPath>
    <clipPath id="clippath-dino-9">
      <path class="cls-dino-13" d="M15.96,129.25c-2.42,17.9,1.77,36.62,12.53,51.28,10.95,14.92,27.64,24.26,46.13,25.65,9.04.68,18.27-.73,26.68-4.13,7.91-3.19,18.38-10.1,27.17-6.5,7.02,2.87,10.23,11.33,13.3,17.63,3.59,7.36,7.84,14.08,14.31,19.26,14.28,11.44,34.26,14.37,50.78,6.08,4.92-2.47.6-9.86-4.32-7.39-12.77,6.41-28.47,4.03-39.79-4.29-5.99-4.4-9.83-10.35-13.06-16.92-3.33-6.76-6.47-14.15-12.51-18.99-7.46-5.97-16.75-5.62-25.36-2.51-8.45,3.06-16.19,7.48-25.2,8.84-16.41,2.47-33.77-3.28-45.48-15-12.98-13-19.38-32.56-16.92-50.74.31-2.29-.55-4.59-2.99-5.26-1.99-.55-4.95.68-5.26,2.99h0Z"/>
    </clipPath>
    <clipPath id="clippath-dino-10">
      <ellipse class="cls-dino-15" cx="239.5" cy="124.84" rx="117.69" ry="124.05"/>
    </clipPath>
    <clipPath id="clippath-dino-11">
      <polyline class="cls-dino-37" points="223.92 206.2 176.78 188.09 174.79 173.23 169.95 186.93 158.13 184.28 165.91 195.27 155.98 203.98 172.31 201.79 216.58 236.99"/>
    </clipPath>
    <clipPath id="clippath-dino-12">
      <path class="cls-dino-36" d="M193.58,125.01c-.1-1.97-13.68-6.46-13.68-6.46,0,0,.08,12.29,2.86,13.65,2.79,1.36,10.84-6.57,10.81-7.19ZM171.89,116.4c.2-1.96-12.55-8.43-12.55-8.43,0,0-1.77,12.16.78,13.93,2.55,1.77,11.71-4.87,11.77-5.49ZM173.16,141.4c-3.05-.58-8.73,9.2-8.53,9.79.62,1.87,14.89,2.62,14.89,2.62,0,0-3.31-11.83-6.36-12.41ZM200.51,125.46s2.37,12.06,5.37,12.87c2.99.82,9.42-8.49,9.28-9.09-.47-1.92-14.64-3.79-14.64-3.79ZM195.94,142.15c-3.09.27-5.91,11.22-5.56,11.73,1.1,1.64,15.05-1.51,15.05-1.51,0,0-6.39-10.49-9.48-10.23Z"/>
    </clipPath>
    <clipPath id="clippath-dino-13">
      <path class="cls-dino-37" d="M294.58,250.12l-5.2-23.93c-5.22-24.03-5.67-48.85-1.33-73.06l4.12-22.99c4.06-18.02,4.53-43.18-27.71-53.37-22.95-7.26-35.18-3.05-41.68,3.17-7.78,7.44-19.04,9.96-29.1,6.13-13.29-5.07-28.73-9.83-34.04-7.04-4.67,2.46-8.09,10.15-10.01,15.63-1.37,3.9-.45,8.24,2.42,11.23,8.37,8.71,20.85,23.02,69.74,26.9,0,0-13.54,32.1-58.03,13.02-1.85-.79-3.93.54-3.98,2.55-.19,8.02,1.36,24.87,50.77,31.7,0,0-16.53,43.56-15.22,70.07h99.25Z"/>
    </clipPath>
    <clipPath id="clippath-dino-14">
      <path class="cls-dino-28" d="M242.24,270.64c-2.24-64.31-.23-85.84-31.69-90.59,0,0-24.06,54.41-23.81,90.59h55.49Z"/>
    </clipPath>
    <clipPath id="clippath-dino-15">
      <circle class="cls-dino-46" cx="246.32" cy="107.91" r="17.49"/>
    </clipPath>
    <clipPath id="clippath-dino-16">
      <path class="cls-dino-37" d="M270.86,195.86c9.29-4.51,38.59-9.4,38.59-9.4l4.54-13.56,2.47,11.6,13.98-1.04-8.23,10.66,8.04,6.75-16.23-2.86s-30.31,25.76-37.11,28.92"/>
    </clipPath>
    <clipPath id="clippath-dino-17">
      <path class="cls-dino-38" d="M255.34,74.43l34.55-18.43.18,40.49s-25.91-4.29-34.73-22.05Z"/>
    </clipPath>
    <clipPath id="clippath-dino-18">
      <circle class="cls-dino-42" cx="290.58" cy="53.4" r="5.69" transform="translate(15.36 160.84) rotate(-31.74)"/>
    </clipPath>
  </defs>
  <g class="cls-dino-27">
    <g id="Capa_2" data-name="Capa 2">
      <g id="Capa_1-2" data-name="Capa 1">
        <g>
          <g>
            <path class="cls-dino-33" d="M259.82,74.49s8.75,2.44,10.76,10.29c2.01,7.84-3.49,18.11-3.49,18.11,0,0-9.76-6.36-11.76-14.21-2.01-7.84,4.49-14.19,4.49-14.19Z"/>
            <g class="cls-dino-48">
              <g class="cls-dino-16">
                <path class="cls-dino-47" d="M258.98,97.82c.12.09,1.35-1.39,2.74-3.31,1.39-1.92,2.42-3.55,2.29-3.64-.12-.09-1.35,1.39-2.75,3.31-1.39,1.92-2.42,3.55-2.29,3.64Z"/>
                <path class="cls-dino-47" d="M262.54,83.77c-.09.12,1.89,1.72,4.42,3.57,2.53,1.85,4.66,3.24,4.75,3.12.09-.12-1.89-1.72-4.43-3.57-2.53-1.85-4.66-3.24-4.75-3.12Z"/>
                <path class="cls-dino-47" d="M256.31,93.39c.11.11,1.68-1.21,3.52-2.95,1.84-1.74,3.24-3.25,3.13-3.36-.11-.11-1.68,1.21-3.52,2.95-1.84,1.74-3.24,3.25-3.13,3.36Z"/>
                <path class="cls-dino-47" d="M269.8,99.43c.1-.12-.81-1.04-2.03-2.06-1.22-1.02-2.29-1.75-2.39-1.63s.81,1.04,2.03,2.06c1.22,1.02,2.29,1.75,2.39,1.63Z"/>
              </g>
              <path class="cls-dino-30" d="M259.84,74.42c.84,2.37,1.57,4.78,2.28,7.18.72,2.4,1.36,4.83,1.99,7.26.61,2.43,1.22,4.87,1.74,7.32l.78,3.68c.22,1.24.48,2.47.67,3.71-.43-1.18-.8-2.38-1.2-3.58l-1.08-3.61c-.72-2.4-1.36-4.83-1.99-7.26-.61-2.43-1.22-4.87-1.74-7.32-.54-2.45-1.05-4.91-1.46-7.39Z"/>
              <g class="cls-dino-19">
                <path class="cls-dino-47" d="M281.33,64.88c.92,1.15-5.69,7.95-14.77,15.19-9.08,7.23-17.18,12.16-18.1,11.01-.92-1.15,5.69-7.95,14.77-15.19,9.08-7.23,17.18-12.16,18.1-11.01Z"/>
              </g>
            </g>
          </g>
          <g>
            <path class="cls-dino-33" d="M297.27,56.59s9.08.4,12.81,7.59c3.73,7.18.69,18.43.69,18.43,0,0-10.94-3.99-14.67-11.18-3.73-7.18,1.17-14.84,1.17-14.84Z"/>
            <g class="cls-dino-23">
              <g class="cls-dino-16">
                <path class="cls-dino-47" d="M301.73,79.51c.14.06,1-1.66,1.93-3.85.92-2.18,1.55-4,1.41-4.06-.14-.06-1,1.66-1.93,3.85-.92,2.18-1.55,4-1.41,4.06Z"/>
                <path class="cls-dino-47" d="M302.02,65.01c-.06.14,2.23,1.25,5.12,2.47,2.89,1.22,5.27,2.1,5.34,1.96.06-.14-2.23-1.25-5.12-2.47-2.89-1.22-5.27-2.1-5.33-1.96Z"/>
                <path class="cls-dino-47" d="M298.13,75.79c.13.08,1.36-1.56,2.76-3.67,1.39-2.11,2.42-3.89,2.29-3.98-.13-.08-1.36,1.56-2.76,3.67-1.39,2.11-2.42,3.89-2.29,3.98Z"/>
                <path class="cls-dino-47" d="M312.63,78.63c.07-.14-1.03-.83-2.45-1.54-1.42-.71-2.63-1.18-2.7-1.04-.07.14,1.03.83,2.45,1.54,1.42.71,2.63,1.18,2.7,1.04Z"/>
              </g>
              <path class="cls-dino-30" d="M297.27,56.51c1.36,2.12,2.61,4.3,3.84,6.48,1.24,2.18,2.41,4.4,3.58,6.62,1.14,2.23,2.29,4.46,3.35,6.74l1.6,3.41c.5,1.16,1.03,2.29,1.49,3.46-.69-1.06-1.31-2.14-1.97-3.21l-1.87-3.27c-1.24-2.18-2.41-4.4-3.58-6.62-1.14-2.23-2.29-4.46-3.35-6.74-1.08-2.27-2.14-4.54-3.09-6.87Z"/>
              <g class="cls-dino-19">
                <path class="cls-dino-47" d="M315.17,49.14c1.01,1.07-3.69,7.16-10.5,13.6-6.81,6.44-13.15,10.79-14.17,9.72s3.69-7.16,10.5-13.6c6.81-6.44,13.15-10.79,14.17-9.72Z"/>
              </g>
            </g>
          </g>
          <g>
            <path class="cls-dino-33" d="M331.88,31.07s8.96-1.5,14.11,4.76c5.14,6.25,4.51,17.88,4.51,17.88,0,0-11.53-1.63-16.68-7.88-5.14-6.25-1.94-14.76-1.94-14.76Z"/>
            <g class="cls-dino-41">
              <g class="cls-dino-16">
                <path class="cls-dino-47" d="M341.01,52.56c.15.03.64-1.83,1.08-4.16.45-2.33.69-4.24.53-4.27-.15-.03-.64,1.83-1.08,4.16-.45,2.33-.69,4.24-.53,4.27Z"/>
                <path class="cls-dino-47" d="M338.28,38.32c-.03.15,2.44.76,5.52,1.36,3.08.6,5.6.96,5.63.81s-2.44-.76-5.52-1.36c-3.08-.6-5.6-.96-5.63-.81Z"/>
                <path class="cls-dino-47" d="M336.71,49.67c.14.06,1.01-1.81,1.93-4.16.92-2.36,1.56-4.31,1.41-4.37-.14-.06-1.01,1.81-1.93,4.16-.92,2.36-1.56,4.31-1.41,4.37Z"/>
                <path class="cls-dino-47" d="M351.49,49.43c.04-.15-1.18-.6-2.71-1-1.54-.4-2.82-.61-2.86-.46-.04.15,1.18.6,2.71,1,1.54.4,2.82.61,2.86.46Z"/>
              </g>
              <path class="cls-dino-30" d="M331.87,30.99c1.77,1.79,3.44,3.66,5.11,5.54,1.67,1.87,3.27,3.8,4.88,5.73,1.58,1.94,3.17,3.89,4.68,5.89l2.27,3c.73,1.03,1.48,2.03,2.18,3.08-.89-.89-1.73-1.82-2.6-2.73l-2.51-2.81c-1.67-1.87-3.27-3.8-4.88-5.73-1.58-1.95-3.16-3.89-4.68-5.89-1.52-1.99-3.04-4-4.45-6.08Z"/>
              <g class="cls-dino-19">
                <ellipse class="cls-dino-47" cx="336.33" cy="36.2" rx="14.39" ry="2.67" transform="translate(105.2 283.2) rotate(-53.04)"/>
              </g>
            </g>
          </g>
          <g>
            <path class="cls-dino-13" d="M223.78,90.23c42.92-6.49,83.48-26.75,114.91-56.64,8.83-8.4,16.84-17.58,24.1-27.36,1.34-1.81.28-4.61-1.49-5.67-2.1-1.26-4.34-.3-5.67,1.49-24.78,33.39-60.24,58.75-99.64,71.91-11.21,3.75-22.73,6.51-34.42,8.27-2.21.33-3.45,3.13-2.89,5.1.66,2.37,2.87,3.23,5.1,2.89h0Z"/>
            <g class="cls-dino-32">
              <g class="cls-dino-9">
                <g class="cls-dino-25">
                  <path class="cls-dino-12" d="M242.93,74.32c-.09.03.29,1.01.43,2.66.15,1.63-.04,3.98-1.16,6.23-1.13,2.25-2.9,3.81-4.29,4.67-1.41.88-2.42,1.16-2.39,1.25,0,.03.27,0,.73-.13.46-.13,1.11-.38,1.86-.78,1.5-.8,3.41-2.39,4.59-4.76,1.18-2.37,1.31-4.85,1.06-6.53-.12-.85-.32-1.51-.49-1.96-.17-.44-.3-.67-.33-.66Z"/>
                </g>
                <g class="cls-dino-25">
                  <path class="cls-dino-12" d="M276.09,64.21c-.09.04.22.81.48,2.11.26,1.3.39,3.14.04,5.12-.36,1.98-1.12,3.67-1.82,4.79-.69,1.13-1.25,1.75-1.18,1.81.04.04.71-.48,1.51-1.6.8-1.1,1.66-2.84,2.03-4.91.37-2.07.16-4-.21-5.31-.37-1.32-.81-2.05-.87-2.02Z"/>
                </g>
                <g class="cls-dino-25">
                  <path class="cls-dino-12" d="M278.73,61.08c-.08.05.47.85,1.07,2.27.6,1.41,1.17,3.49,1.11,5.83-.06,2.34-.74,4.39-1.4,5.76-.66,1.39-1.25,2.16-1.18,2.21.05.04.75-.65,1.53-2.03.78-1.37,1.55-3.49,1.61-5.93.06-2.44-.6-4.6-1.31-6-.71-1.42-1.38-2.14-1.43-2.11Z"/>
                </g>
                <g class="cls-dino-25">
                  <path class="cls-dino-12" d="M313.77,39.69c-.07.04.45.97,1.26,2.47.8,1.5,1.93,3.59,2.5,6.09.57,2.5.25,4.88-.39,6.42-.63,1.56-1.43,2.3-1.35,2.37.02.02.24-.13.58-.49.34-.35.76-.93,1.14-1.72.77-1.57,1.17-4.09.58-6.7-.6-2.61-1.81-4.71-2.7-6.17-.91-1.46-1.54-2.31-1.6-2.27Z"/>
                </g>
                <g class="cls-dino-25">
                  <path class="cls-dino-12" d="M306.89,41.56c-.06.07.78.75,1.85,2.07,1.07,1.32,2.33,3.36,2.98,5.87.65,2.51.55,4.91.25,6.58-.29,1.68-.7,2.68-.61,2.71.05.03.59-.93.99-2.64.41-1.69.58-4.19-.1-6.8-.68-2.61-2.04-4.71-3.22-5.99-1.18-1.3-2.12-1.87-2.15-1.82Z"/>
                </g>
                <g class="cls-dino-25">
                  <path class="cls-dino-12" d="M318.86,31.18c-.07.08.89.86,2.1,2.4.62.76,1.26,1.74,1.87,2.87.59,1.15,1.14,2.46,1.55,3.89.39,1.44.59,2.85.68,4.14.06,1.29.01,2.46-.12,3.43-.25,1.94-.67,3.11-.57,3.14.04.01.16-.27.36-.79.1-.26.22-.58.31-.97.09-.39.23-.82.29-1.32.19-.99.28-2.18.25-3.51-.06-1.33-.25-2.78-.66-4.26-.42-1.48-1-2.82-1.64-3.99-.66-1.15-1.35-2.13-2.02-2.88-.31-.39-.65-.7-.93-.98-.28-.29-.54-.5-.76-.67-.44-.35-.69-.52-.71-.49Z"/>
                </g>
                <g class="cls-dino-25">
                  <path class="cls-dino-12" d="M336.56,16.05c-.02.09,1.04.28,2.61.97,1.56.68,3.6,1.96,5.24,3.97,1.63,2.02,2.46,4.29,2.8,5.95.35,1.67.31,2.75.41,2.75.06,0,.24-1.08-.02-2.82-.25-1.73-1.04-4.12-2.75-6.23-1.71-2.11-3.88-3.39-5.52-3.99-1.65-.61-2.75-.66-2.76-.6Z"/>
                </g>
                <g class="cls-dino-25">
                  <path class="cls-dino-12" d="M346.75,1.51c-.03.09.98.38,2.47,1.12,1.49.73,3.43,2.01,5.17,3.86,1.73,1.86,2.87,3.88,3.51,5.42.64,1.54.86,2.56.96,2.54.04,0,.01-.27-.07-.74-.07-.47-.24-1.14-.52-1.94-.55-1.61-1.68-3.74-3.47-5.65-1.79-1.91-3.84-3.17-5.41-3.83-.78-.33-1.44-.55-1.91-.65-.46-.11-.72-.15-.73-.11Z"/>
                </g>
                <g class="cls-dino-25">
                  <path class="cls-dino-12" d="M261.28,68.4c-.07.06.44.69,1.05,1.82.62,1.12,1.27,2.79,1.52,4.72.24,1.94.03,3.71-.29,4.95-.31,1.24-.65,1.98-.56,2.02.05.03.52-.65.94-1.91.42-1.25.71-3.11.46-5.13-.26-2.02-1.01-3.74-1.73-4.85-.72-1.11-1.35-1.66-1.39-1.61Z"/>
                </g>
                <g class="cls-dino-25">
                  <path class="cls-dino-12" d="M291.12,53.28c-.07.06.54.84,1.22,2.27.68,1.42,1.37,3.54,1.4,5.94.03,2.4-.62,4.54-1.27,5.97-.65,1.44-1.25,2.24-1.17,2.3.04.04.76-.68,1.53-2.13.76-1.43,1.5-3.64,1.47-6.15-.03-2.51-.81-4.7-1.6-6.11-.79-1.43-1.53-2.13-1.57-2.09Z"/>
                </g>
              </g>
              <g class="cls-dino-17">
                <path class="cls-dino-47" d="M370.31-9.85c.32.18-.74,2.59-2.96,6.8-.56,1.05-1.19,2.22-1.87,3.5-.72,1.25-1.6,2.56-2.5,3.99-1.85,2.83-3.84,6.16-6.48,9.51-1.28,1.7-2.63,3.49-4.03,5.35-1.42,1.85-3.06,3.63-4.68,5.55-.82.95-1.66,1.92-2.5,2.9-.43.49-.84,1-1.3,1.47-.46.47-.92.95-1.39,1.43-1.87,1.91-3.8,3.88-5.77,5.91-8.15,7.83-17.74,15.81-28.58,23.09-10.91,7.18-21.98,12.92-32.33,17.44-2.62,1.05-5.18,2.08-7.66,3.07-.62.25-1.24.49-1.85.74-.62.21-1.24.42-1.86.63-1.23.41-2.44.81-3.63,1.21-1.19.39-2.36.78-3.51,1.16-1.15.37-2.27.78-3.4,1.05-2.25.6-4.41,1.17-6.47,1.71-4.1,1.18-7.92,1.78-11.24,2.43-1.66.3-3.2.62-4.64.83-1.44.16-2.76.31-3.94.45-4.74.5-7.36.59-7.41.23-.05-.37,2.47-1.16,7.05-2.27,1.14-.27,2.42-.57,3.81-.9,1.39-.35,2.87-.81,4.48-1.24,3.21-.93,6.9-1.77,10.86-3.16,1.99-.64,4.08-1.31,6.25-2.01,1.1-.32,2.17-.77,3.29-1.18,1.11-.42,2.24-.85,3.39-1.28,1.15-.43,2.32-.87,3.51-1.31.59-.22,1.19-.45,1.8-.68.59-.26,1.19-.52,1.79-.78,2.4-1.04,4.87-2.11,7.4-3.21,10.01-4.66,20.73-10.38,31.37-17.39,10.57-7.1,20-14.77,28.14-22.21,1.98-1.92,3.92-3.79,5.8-5.61.47-.45.94-.9,1.4-1.35.46-.45.88-.94,1.31-1.4.86-.93,1.71-1.84,2.55-2.74,1.65-1.82,3.34-3.49,4.81-5.24,1.47-1.75,2.87-3.43,4.22-5.03,2.78-3.14,4.94-6.25,7-8.88,1-1.33,1.99-2.54,2.83-3.69.82-1.17,1.57-2.24,2.24-3.2,2.73-3.83,4.4-5.88,4.72-5.7Z"/>
              </g>
            </g>
          </g>
        </g>
        <g>
          <g>
            <path class="cls-dino-33" d="M24.34,160.38s.62,9.07-6.1,13.58c-6.72,4.51-18.24,2.76-18.24,2.76,0,0,2.74-11.32,9.46-15.83,6.72-4.51,14.88-.5,14.88-.5Z"/>
            <g class="cls-dino-7">
              <g class="cls-dino-16">
                <path class="cls-dino-47" d="M2.06,167.39c-.04.15,1.76.81,4.04,1.48,2.27.67,4.15,1.09,4.2.95s-1.76-.81-4.04-1.48c-2.27-.67-4.15-1.09-4.2-.95Z"/>
                <path class="cls-dino-47" d="M16.5,166.05c-.15-.04-.99,2.36-1.88,5.36-.89,3.01-1.5,5.48-1.35,5.52.15.04.99-2.36,1.88-5.36.89-3.01,1.5-5.48,1.35-5.52Z"/>
                <path class="cls-dino-47" d="M5.35,163.39c-.07.14,1.7,1.18,3.96,2.33,2.26,1.15,4.14,1.97,4.21,1.83.07-.14-1.7-1.18-3.96-2.33-2.26-1.15-4.14-1.97-4.21-1.83Z"/>
                <path class="cls-dino-47" d="M4.16,178.12c.14.05.71-1.11,1.26-2.6.55-1.49.88-2.74.74-2.8-.14-.05-.71,1.11-1.26,2.6-.55,1.49-.88,2.74-.73,2.8Z"/>
              </g>
              <path class="cls-dino-30" d="M24.41,160.38c-1.96,1.59-3.98,3.07-6.01,4.54-2.03,1.48-4.1,2.89-6.17,4.3-2.09,1.39-4.18,2.77-6.32,4.09l-3.21,1.97c-1.09.62-2.16,1.28-3.27,1.87.97-.8,1.98-1.55,2.97-2.32l3.04-2.22c2.03-1.48,4.1-2.89,6.18-4.3,2.09-1.39,4.18-2.77,6.32-4.09,2.13-1.32,4.27-2.63,6.48-3.84Z"/>
              <g class="cls-dino-19">
                <path class="cls-dino-47" d="M22.48,181.76c-1.45.29-3.82-5.35-5.29-12.61-1.48-7.26-1.5-13.38-.06-13.68,1.45-.29,3.82,5.35,5.29,12.61s1.5,13.38.06,13.68Z"/>
              </g>
            </g>
          </g>
          <g>
            <path class="cls-dino-33" d="M44.65,189.28s2.09,8.84-3.8,14.39c-5.89,5.55-17.54,5.7-17.54,5.7,0,0,.85-11.62,6.75-17.17,5.89-5.55,14.59-2.93,14.59-2.93Z"/>
            <g class="cls-dino-29">
              <g class="cls-dino-16">
                <path class="cls-dino-47" d="M23.82,199.83c-.02.15,1.87.51,4.23.8,2.35.29,4.28.4,4.29.25s-1.87-.51-4.23-.8c-2.35-.29-4.27-.4-4.29-.25Z"/>
                <path class="cls-dino-47" d="M37.85,196.15c-.15-.02-.59,2.49-.98,5.6-.39,3.11-.58,5.65-.43,5.67.15.02.59-2.49.98-5.6.39-3.11.58-5.65.43-5.67Z"/>
                <path class="cls-dino-47" d="M26.42,195.35c-.05.15,1.87.89,4.28,1.65,2.41.76,4.41,1.27,4.45,1.12.05-.15-1.87-.89-4.28-1.65-2.41-.76-4.41-1.27-4.45-1.12Z"/>
                <path class="cls-dino-47" d="M27.65,210.08c.15.03.52-1.21.82-2.78.3-1.56.42-2.85.27-2.88-.15-.03-.52,1.21-.82,2.78-.3,1.56-.42,2.85-.27,2.88Z"/>
              </g>
              <path class="cls-dino-30" d="M44.73,189.26c-1.67,1.89-3.42,3.68-5.19,5.47-1.76,1.79-3.57,3.52-5.39,5.25-1.83,1.71-3.67,3.42-5.56,5.06l-2.84,2.47c-.98.79-1.93,1.61-2.92,2.38.83-.95,1.7-1.85,2.55-2.78l2.63-2.69c1.76-1.79,3.57-3.52,5.39-5.25,1.84-1.71,3.67-3.42,5.57-5.06,1.89-1.65,3.79-3.3,5.77-4.85Z"/>
              <g class="cls-dino-19">
                <path class="cls-dino-47" d="M49.09,203.28c-1.12.95-5.07-1.84-8.81-6.25s-5.86-8.75-4.74-9.71c1.12-.95,5.07,1.84,8.81,6.25s5.86,8.75,4.74,9.71Z"/>
              </g>
            </g>
          </g>
          <g>
            <path class="cls-dino-33" d="M77.09,200.2s6.54,6.31,4.58,14.16c-1.96,7.85-11.68,14.28-11.68,14.28,0,0-5.56-10.24-3.6-18.09s10.7-10.35,10.7-10.35Z"/>
            <g class="cls-dino-1">
              <g class="cls-dino-16">
                <path class="cls-dino-47" d="M65.27,220.33c.07.14,1.85-.58,3.99-1.61,2.14-1.03,3.81-1.97,3.75-2.11-.07-.14-1.85.58-3.99,1.61-2.14,1.03-3.81,1.97-3.75,2.11Z"/>
                <path class="cls-dino-47" d="M75.08,209.66c-.14.07.85,2.41,2.2,5.24,1.35,2.83,2.56,5.07,2.7,5s-.85-2.41-2.2-5.24c-1.35-2.83-2.56-5.07-2.7-5Z"/>
                <path class="cls-dino-47" d="M65.03,215.16c.04.15,2.05-.27,4.5-.93,2.44-.66,4.39-1.32,4.35-1.47-.04-.15-2.05.27-4.5.93-2.44.66-4.39,1.32-4.35,1.47Z"/>
                <path class="cls-dino-47" d="M74.03,226.89c.14-.06-.22-1.3-.81-2.78-.59-1.48-1.19-2.63-1.33-2.57-.14.06.22,1.3.81,2.78.59,1.48,1.19,2.63,1.33,2.57Z"/>
              </g>
              <path class="cls-dino-30" d="M77.15,200.15c-.39,2.49-.89,4.95-1.41,7.4-.51,2.46-1.1,4.89-1.7,7.33-.62,2.43-1.24,4.86-1.94,7.27l-1.06,3.61c-.39,1.19-.75,2.4-1.17,3.58.18-1.25.43-2.48.65-3.72l.76-3.69c.51-2.46,1.1-4.89,1.7-7.33.62-2.43,1.24-4.86,1.95-7.27.69-2.41,1.4-4.82,2.23-7.2Z"/>
              <g class="cls-dino-19">
                <path class="cls-dino-47" d="M89.24,208.51c-.03,1.46-5.36,2.52-11.81,1.59-6.46-.92-11.27-3.43-10.89-4.84.38-1.44,5.54-1.31,11.65-.45,6.11.89,11.09,2.21,11.06,3.7Z"/>
              </g>
            </g>
          </g>
          <g>
            <path class="cls-dino-33" d="M152.67,219.3s4.56,7.86.52,14.88c-4.04,7.01-15.15,10.52-15.15,10.52,0,0-2.54-11.37,1.5-18.38,4.04-7.01,13.13-7.02,13.13-7.02Z"/>
            <g class="cls-dino-2">
              <g class="cls-dino-16">
                <path class="cls-dino-47" d="M135.78,235.41c.03.15,1.94-.05,4.28-.45,2.34-.4,4.21-.85,4.18-1s-1.94.05-4.28.45c-2.34.4-4.21.85-4.18,1Z"/>
                <path class="cls-dino-47" d="M148.14,227.84c-.15.03.15,2.55.67,5.64.52,3.09,1.07,5.58,1.23,5.55.15-.03-.15-2.55-.67-5.64-.52-3.09-1.07-5.58-1.23-5.55Z"/>
                <path class="cls-dino-47" d="M136.96,230.37c0,.15,2.05.31,4.58.34,2.53.04,4.58-.06,4.59-.21,0-.15-2.05-.31-4.58-.34-2.53-.04-4.58.06-4.59.21Z"/>
                <path class="cls-dino-47" d="M142.4,244.11c.15-.02.14-1.31-.02-2.89-.16-1.58-.42-2.85-.57-2.84-.15.02-.14,1.31.02,2.89.16,1.58.42,2.85.57,2.83Z"/>
              </g>
              <path class="cls-dino-30" d="M152.74,219.25c-1.05,2.29-2.21,4.51-3.39,6.73-1.16,2.22-2.4,4.4-3.64,6.58-1.26,2.17-2.53,4.33-3.87,6.46l-2.01,3.18c-.71,1.04-1.38,2.1-2.11,3.12.52-1.15,1.1-2.26,1.64-3.39l1.74-3.34c1.17-2.22,2.4-4.4,3.65-6.58,1.26-2.17,2.53-4.33,3.87-6.45,1.33-2.13,2.67-4.25,4.12-6.31Z"/>
              <g class="cls-dino-19">
                <path class="cls-dino-47" d="M158.48,237.63c-1.21.84-5.02-2.52-8.51-7.52s-5.34-9.73-4.13-10.58,5.02,2.52,8.51,7.52c3.49,5,5.34,9.73,4.13,10.58Z"/>
              </g>
            </g>
          </g>
          <g>
            <path class="cls-dino-33" d="M116.05,189.95s7.5,5.13,6.88,13.2c-.62,8.07-9.13,16.03-9.13,16.03,0,0-7.19-9.16-6.57-17.23.62-8.07,8.82-11.99,8.82-11.99Z"/>
            <g class="cls-dino-31">
              <g class="cls-dino-16">
                <path class="cls-dino-47" d="M107.76,211.77c.09.13,1.73-.88,3.66-2.25,1.93-1.37,3.43-2.58,3.34-2.71-.09-.13-1.73.88-3.66,2.25-1.93,1.37-3.43,2.58-3.34,2.71Z"/>
                <path class="cls-dino-47" d="M115.65,199.61c-.13.09,1.24,2.24,3.04,4.8,1.81,2.56,3.37,4.57,3.5,4.48.13-.09-1.24-2.24-3.04-4.8-1.81-2.56-3.37-4.57-3.5-4.48Z"/>
                <path class="cls-dino-47" d="M106.66,206.71c.06.14,1.98-.61,4.28-1.67,2.3-1.06,4.11-2.03,4.05-2.17-.06-.14-1.98.61-4.28,1.67-2.3,1.06-4.11,2.03-4.04,2.17Z"/>
                <path class="cls-dino-47" d="M117.49,216.77c.13-.08-.44-1.25-1.27-2.6-.83-1.36-1.61-2.39-1.74-2.31-.13.08.44,1.25,1.27,2.6.83,1.36,1.61,2.39,1.74,2.31Z"/>
              </g>
              <path class="cls-dino-30" d="M116.1,189.88c.04,2.52-.05,5.03-.15,7.53-.09,2.51-.27,5.01-.45,7.51-.2,2.5-.41,5-.7,7.49l-.44,3.74c-.19,1.24-.34,2.49-.56,3.73-.03-1.26.01-2.51.02-3.77l.13-3.76c.09-2.51.27-5.01.45-7.51.21-2.5.41-5,.71-7.49.28-2.49.58-4.99,1-7.47Z"/>
              <g class="cls-dino-19">
                <path class="cls-dino-47" d="M129.55,194.15c.11,1.5-5.69,3.1-12.6,5.18-6.93,2.03-12.65,3.86-13.38,2.54-.34-.64.71-1.97,2.82-3.46,2.1-1.49,5.3-3.09,9.04-4.2,3.75-1.11,7.3-1.51,9.87-1.42,2.58.09,4.18.64,4.25,1.36Z"/>
              </g>
            </g>
          </g>
          <g>
            <path class="cls-dino-13" d="M15.96,129.25c-2.42,17.9,1.77,36.62,12.53,51.28,10.95,14.92,27.64,24.26,46.13,25.65,9.04.68,18.27-.73,26.68-4.13,7.91-3.19,18.38-10.1,27.17-6.5,7.02,2.87,10.23,11.33,13.3,17.63,3.59,7.36,7.84,14.08,14.31,19.26,14.28,11.44,34.26,14.37,50.78,6.08,4.92-2.47.6-9.86-4.32-7.39-12.77,6.41-28.47,4.03-39.79-4.29-5.99-4.4-9.83-10.35-13.06-16.92-3.33-6.76-6.47-14.15-12.51-18.99-7.46-5.97-16.75-5.62-25.36-2.51-8.45,3.06-16.19,7.48-25.2,8.84-16.41,2.47-33.77-3.28-45.48-15-12.98-13-19.38-32.56-16.92-50.74.31-2.29-.55-4.59-2.99-5.26-1.99-.55-4.95.68-5.26,2.99h0Z"/>
            <g class="cls-dino-8">
              <g class="cls-dino-9">
                <g class="cls-dino-25">
                  <path class="cls-dino-12" d="M27.64,153.88c-.05-.08-.74.31-1.94.68-1.19.37-2.94.66-4.83.39-1.89-.27-3.48-1.05-4.52-1.75-1.05-.7-1.6-1.27-1.67-1.2-.05.04.41.72,1.44,1.53,1.02.81,2.67,1.69,4.67,1.98,2,.29,3.83-.09,5.04-.57,1.22-.48,1.85-1,1.81-1.05Z"/>
                </g>
                <g class="cls-dino-25">
                  <path class="cls-dino-12" d="M31.29,148.66c-.06-.08-.87.53-2.31,1.23-1.44.7-3.57,1.42-6.01,1.61-2.44.18-4.65-.21-6.18-.69-1.53-.47-2.42-.95-2.47-.87-.03.05.8.65,2.34,1.24,1.54.59,3.82,1.06,6.35.87,2.53-.2,4.71-1,6.14-1.82,1.44-.81,2.17-1.54,2.13-1.58Z"/>
                </g>
                <g class="cls-dino-25">
                  <path class="cls-dino-12" d="M39.23,169.66c-.07-.07-.84.75-2.27,1.83-1.42,1.08-3.55,2.39-6.12,3.29-1.28.45-2.55.75-3.72.93-1.17.2-2.22.24-3.09.11-1.79-.24-2.43-1.32-2.49-1.24-.02.01.08.29.45.66.37.37,1.05.78,1.97.97.91.2,2.04.19,3.23.01,1.2-.16,2.51-.45,3.83-.91,2.65-.92,4.8-2.32,6.18-3.5.7-.59,1.21-1.12,1.55-1.5.33-.39.5-.61.47-.64Z"/>
                </g>
                <g class="cls-dino-25">
                  <path class="cls-dino-12" d="M38.58,173.83c-.08-.05-.54.7-1.45,1.75-.91,1.05-2.35,2.35-4.21,3.36-1.86,1.01-3.74,1.51-5.11,1.7-1.38.2-2.25.17-2.26.27,0,.06.87.23,2.3.12,1.43-.1,3.4-.56,5.33-1.61,1.93-1.05,3.39-2.46,4.25-3.6.87-1.14,1.2-1.97,1.15-2Z"/>
                </g>
                <g class="cls-dino-25">
                  <path class="cls-dino-12" d="M41.12,177.31c-.09-.03-.44.93-1.27,2.32-.83,1.4-2.23,3.18-4.18,4.71-1.96,1.51-4.04,2.43-5.6,2.88-1.56.46-2.58.56-2.57.66,0,.05,1.04.1,2.67-.28,1.62-.37,3.81-1.25,5.84-2.82,2.02-1.58,3.42-3.47,4.18-4.95.77-1.49.98-2.5.93-2.52Z"/>
                </g>
                <g class="cls-dino-25">
                  <path class="cls-dino-12" d="M58.4,191.9c-.09,0-.15.84-.53,2.12-.37,1.27-1.14,2.99-2.51,4.48-1.37,1.49-3.01,2.41-4.25,2.89-1.24.49-2.08.61-2.07.7,0,.06.87.08,2.2-.33,1.32-.4,3.08-1.31,4.53-2.88,1.45-1.58,2.2-3.41,2.48-4.76.29-1.36.2-2.22.14-2.22Z"/>
                </g>
                <g class="cls-dino-25">
                  <path class="cls-dino-12" d="M80.67,195.23c-.18,0-.14,2.89-1.24,6.22-1.07,3.34-2.8,5.66-2.65,5.76.09.1,2.08-2.13,3.19-5.58,1.14-3.44.84-6.42.71-6.39Z"/>
                </g>
                <g class="cls-dino-25">
                  <path class="cls-dino-12" d="M88.96,195.94c-.18-.01-.27,3.04-1.43,6.57-1.13,3.54-2.84,6.07-2.69,6.16.06.04.56-.54,1.21-1.59.65-1.05,1.42-2.59,2.01-4.39.58-1.8.86-3.5.95-4.74.09-1.23.02-2-.05-2Z"/>
                </g>
                <g class="cls-dino-25">
                  <path class="cls-dino-12" d="M85.27,194.36c-.18,0,.15,3.16-.79,6.88-.9,3.73-2.65,6.37-2.5,6.46.06.04.57-.57,1.2-1.68.64-1.11,1.36-2.74,1.84-4.64.47-1.9.58-3.69.54-4.96-.05-1.28-.22-2.06-.28-2.05Z"/>
                </g>
                <g class="cls-dino-25">
                  <path class="cls-dino-12" d="M103.46,187.45c-.08.04.4.95.85,2.53.45,1.56.78,3.84.39,6.3-.39,2.46-1.41,4.52-2.32,5.87-.91,1.36-1.66,2.08-1.59,2.14.04.05.89-.57,1.91-1.91,1.02-1.33,2.14-3.45,2.55-6.01.41-2.56,0-4.93-.57-6.5-.56-1.59-1.18-2.44-1.23-2.41Z"/>
                </g>
                <g class="cls-dino-25">
                  <path class="cls-dino-12" d="M128.57,185.65c-.09.04.19.75.39,1.94.2,1.19.22,2.87-.24,4.64-.48,1.77-1.34,3.22-2.1,4.15-.76.94-1.36,1.41-1.3,1.49.03.05.73-.32,1.59-1.23.87-.9,1.84-2.4,2.34-4.27.49-1.87.4-3.65.09-4.86-.3-1.22-.72-1.89-.77-1.86Z"/>
                </g>
                <g class="cls-dino-25">
                  <path class="cls-dino-12" d="M135.83,188.38c-.1,0-.05.81-.25,2.08-.19,1.26-.73,2.97-1.79,4.6-1.07,1.63-2.42,2.8-3.49,3.48-1.08.69-1.84.97-1.8,1.06.01.05.83-.09,2-.72,1.17-.62,2.64-1.81,3.76-3.52,1.11-1.71,1.61-3.53,1.71-4.85.11-1.33-.09-2.13-.14-2.13Z"/>
                </g>
                <g class="cls-dino-25">
                  <path class="cls-dino-12" d="M151.58,208.58c-.09-.03-.3.78-.99,1.88-.67,1.1-1.91,2.48-3.7,3.3-1.79.82-3.65.86-4.92.65-1.29-.2-2.03-.56-2.07-.48-.03.05.67.55,2,.86,1.31.32,3.3.35,5.22-.53,1.92-.89,3.2-2.41,3.81-3.61.63-1.21.71-2.07.65-2.08Z"/>
                </g>
                <g class="cls-dino-25">
                  <path class="cls-dino-12" d="M166.57,226.37c-.09-.02-.3.76-.84,1.95-.53,1.18-1.44,2.74-2.78,4.18-1.35,1.44-2.84,2.45-3.98,3.06-1.14.61-1.91.88-1.88.97.02.06.84-.08,2.06-.61,1.22-.53,2.81-1.54,4.21-3.04,1.4-1.5,2.29-3.16,2.74-4.41.45-1.26.53-2.08.47-2.1Z"/>
                </g>
                <g class="cls-dino-25">
                  <path class="cls-dino-12" d="M168.82,226.72c-.1,0,0,.93-.17,2.37-.16,1.45-.66,3.42-1.75,5.36-1.1,1.93-2.53,3.38-3.69,4.26-1.16.89-1.99,1.28-1.95,1.37.02.05.92-.22,2.18-1.05,1.25-.82,2.8-2.29,3.94-4.31,1.13-2.01,1.6-4.1,1.66-5.6.07-1.51-.17-2.42-.22-2.41Z"/>
                </g>
                <g class="cls-dino-25">
                  <path class="cls-dino-12" d="M173.47,228.69c-.09.03.29.96.54,2.52.25,1.55.28,3.77-.45,6.05-.74,2.28-2.06,4.07-3.17,5.18-1.11,1.12-1.96,1.65-1.9,1.73.03.05.96-.36,2.18-1.44,1.21-1.07,2.66-2.9,3.43-5.29.77-2.39.67-4.72.31-6.3-.35-1.59-.87-2.47-.92-2.44Z"/>
                </g>
              </g>
              <g class="cls-dino-17">
                <path class="cls-dino-47" d="M221.15,232.96c.17.21-2.71,3.11-9.27,6.27-3.27,1.56-7.48,3.14-12.57,4.18-5.09,1-11.07,1.49-17.63.71-6.53-.79-13.64-2.85-20.42-6.7-6.78-3.81-13.29-9.29-18.48-16.41-.65-.88-1.25-1.82-1.88-2.74-.59-.94-1.16-1.91-1.73-2.88-.52-1-1.06-2.01-1.57-3.02-.47-1-.94-2-1.41-3.01-.92-1.99-1.85-3.92-2.92-5.69-1.06-1.78-2.3-3.31-3.74-4.45-1.45-1.08-3.12-1.76-4.95-1.85-.91-.06-1.87,0-2.85.2-.98.17-1.98.47-3,.82-2.03.72-4.09,1.72-6.23,2.78-2.1,1.1-4.47,2.1-6.79,3.11-4.73,1.82-9.6,3.08-14.46,3.84-4.87.76-9.73.86-14.48.62-1.18-.09-2.36-.19-3.54-.28-1.17-.17-2.33-.34-3.48-.5-1.16-.14-2.29-.41-3.42-.65-1.12-.26-2.26-.44-3.35-.79-1.1-.32-2.19-.63-3.28-.94-1.08-.34-2.13-.75-3.18-1.13l-1.57-.57-1.52-.67c-1.01-.45-2.02-.88-3.01-1.35-7.81-3.92-14.54-9.08-19.59-14.96-5.12-5.82-8.84-12.08-11.41-18.09-2.58-6.02-4.02-11.8-4.74-16.92-.24-1.27-.31-2.52-.42-3.72-.1-1.2-.23-2.34-.21-3.45-.01-1.1-.02-2.16-.03-3.17.02-1.01.11-1.96.16-2.87.07-1.81.34-3.4.55-4.77.11-.69.2-1.32.32-1.89.14-.57.28-1.08.39-1.55.49-1.84.83-2.77,1.01-2.73.18.04.19,1.04.05,2.9-.04.46-.08.98-.13,1.55-.02.57-.04,1.2-.06,1.88-.05,1.36-.14,2.91-.06,4.67.03.88.02,1.8.07,2.77.08.97.17,1.98.26,3.04.05,1.06.25,2.16.42,3.29.17,1.14.32,2.32.61,3.53.96,4.85,2.58,10.28,5.24,15.88,2.65,5.59,6.34,11.35,11.25,16.66,4.85,5.36,11.16,9.98,18.44,13.5.92.43,1.87.8,2.81,1.21l1.42.6,1.47.51c.98.33,1.96.7,2.96,1.01,1.01.28,2.03.55,3.05.83,1.01.32,2.07.46,3.12.7,1.05.21,2.1.46,3.18.57,1.07.15,2.15.29,3.23.44,1.09.08,2.18.15,3.28.23,4.4.18,8.9.07,13.39-.65,4.48-.72,8.95-1.89,13.29-3.55,2.13-.94,4.22-1.8,6.38-2.92,2.16-1.07,4.4-2.16,6.83-3.01,1.22-.42,2.48-.8,3.82-1.02,1.32-.25,2.72-.35,4.13-.25,2.84.15,5.63,1.29,7.82,2.98,2.16,1.73,3.74,3.83,4.97,5.92,1.24,2.1,2.21,4.2,3.12,6.22.45.99.9,1.98,1.35,2.96.47.93.93,1.85,1.39,2.77.52.89,1.02,1.78,1.54,2.65.57.84,1.09,1.71,1.68,2.53,4.64,6.58,10.53,11.76,16.7,15.44,6.17,3.72,12.66,5.82,18.71,6.8,6.08.96,11.73.76,16.6.09,4.88-.71,8.99-1.94,12.26-3.15,6.56-2.46,9.83-4.75,10.08-4.36Z"/>
              </g>
            </g>
          </g>
        </g>
        <g class="cls-dino-10">
          <g>
            <g>
              <g>
                <polyline class="cls-dino-37" points="223.92 206.2 176.78 188.09 174.79 173.23 169.95 186.93 158.13 184.28 165.91 195.27 155.98 203.98 172.31 201.79 216.58 236.99"/>
                <g class="cls-dino-14">
                  <g class="cls-dino-16">
                    <path class="cls-dino-47" d="M172,193.54s.12.02.35.02c.22-.01.55-.03.95-.1.4-.07.87-.18,1.36-.39.48-.22,1.06-.5,1.33-1.13.2-.66-.11-1.25-.35-1.71-.27-.47-.57-.84-.83-1.15-.26-.31-.49-.53-.65-.69-.16-.15-.26-.23-.27-.22-.02.02.32.38.81,1,.24.31.53.69.78,1.15.23.44.49,1.02.33,1.55-.22.52-.76.82-1.22,1.03-.47.22-.93.34-1.31.42-.77.17-1.27.19-1.27.22Z"/>
                    <path class="cls-dino-47" d="M180.93,206.74s.12.02.35.02c.22-.01.55-.03.95-.1.4-.07.87-.18,1.36-.39.48-.22,1.06-.5,1.33-1.13.2-.66-.11-1.25-.35-1.71-.27-.47-.57-.84-.83-1.15-.26-.31-.49-.53-.65-.69-.16-.15-.26-.23-.27-.22-.02.02.32.38.81,1,.24.31.53.69.78,1.15.23.44.49,1.02.33,1.55-.22.52-.76.82-1.22,1.03-.47.22-.93.34-1.31.42-.77.17-1.27.19-1.27.22Z"/>
                    <path class="cls-dino-47" d="M198.24,203.68s.12.02.35.02c.22-.01.55-.03.95-.1.4-.07.87-.18,1.36-.39.48-.22,1.06-.5,1.33-1.13.2-.66-.11-1.25-.35-1.71-.27-.47-.57-.84-.83-1.15-.26-.31-.49-.53-.65-.69-.16-.15-.26-.23-.27-.22-.02.02.32.38.81,1,.24.31.53.69.78,1.15.23.44.49,1.02.33,1.55-.22.52-.76.82-1.22,1.03-.47.22-.93.34-1.31.42-.77.17-1.27.19-1.27.22Z"/>
                    <path class="cls-dino-47" d="M200.08,219.71s.25.01.7-.05c.45-.07,1.1-.18,1.85-.52.37-.17.78-.39,1.1-.77.37-.37.38-1.02.16-1.51-.2-.51-.53-.99-.9-1.44-.19-.23-.38-.45-.59-.67l-.32-.32-.17-.16c-.08-.1-.05,0-.04-.08v-.04c1.1-.1,2.37-.42,3.22-1.06.44-.3.77-.85.66-1.35-.08-.49-.3-.89-.52-1.22-.93-1.32-1.75-1.9-1.75-1.9-.04.04.75.66,1.63,1.98.21.33.41.72.48,1.17.09.45-.19.89-.61,1.19-.41.3-.92.53-1.46.69-.27.08-.55.15-.84.21-.14.03-.29.05-.44.07l-.22.03-.29.03c-.02.05-.03.11-.05.16,0,.02-.06.12-.03.17l.12.11.16.16.32.32c.21.21.4.43.59.65.36.44.68.9.88,1.38.2.48.2,1-.12,1.34-.29.35-.68.57-1.04.75-1.47.65-2.51.64-2.49.69Z"/>
                  </g>
                  <g class="cls-dino-18">
                    <ellipse class="cls-dino-47" cx="198.97" cy="222.45" rx="27.7" ry="9.57" transform="translate(-85.09 313.97) rotate(-66.05)"/>
                  </g>
                  <g class="cls-dino-20">
                    <path class="cls-dino-47" d="M174.79,173.23c.78-.03,1.56,1.35,2.27,3.77.35,1.21.69,2.67.99,4.34.15.83.3,1.72.43,2.65.08.65.11.46.16.56.05.05.09.08.13.09.11-.01.19-.03.24-.06.03,0-.04-.03.07.01l.28.09.56.19c.37.13.75.26,1.13.4,1.52.54,3.08,1.13,4.67,1.76,12.04,4.77,21.17,10.22,20.39,12.19-.78,1.97-11.17-.31-23.21-5.07-1.59-.63-3.13-1.27-4.61-1.92-2.2-.96-4.31-1.89-6.31-2.77,0-.99,0-1.95,0-2.9,0-.88,0-2.02.04-2.31.06-.94.13-1.83.21-2.68.16-1.69.37-3.17.62-4.4.5-2.46,1.16-3.91,1.94-3.95Z"/>
                  </g>
                  <g class="cls-dino-20">
                    <path class="cls-dino-47" d="M154.34,183.3c.53-2.05,4.43-2.8,8.71-1.69s7.31,3.67,6.78,5.72c-.53,2.05-4.43,2.8-8.71,1.69-4.28-1.11-7.31-3.67-6.78-5.72Z"/>
                  </g>
                  <g class="cls-dino-20">
                    <path class="cls-dino-47" d="M152.15,206.23c-1.19-1.75.96-5.28,4.8-7.89.96-.66,1.95-1.18,2.77-1.54.83-.37,1.56-.61,2.22-.78,1.31-.31,2.49-.51,3.43,0,.45.26.77.73.86,1.41.09.67-.06,1.54-.48,2.44-.41.91-1.09,1.82-1.88,2.64-.81.83-1.67,1.52-2.62,2.17-3.84,2.61-7.92,3.31-9.11,1.56Z"/>
                  </g>
                </g>
              </g>
              <g>
                <g>
                  <path class="cls-dino-36" d="M193.58,125.01c-.1-1.97-13.68-6.46-13.68-6.46,0,0,.08,12.29,2.86,13.65,2.79,1.36,10.84-6.57,10.81-7.19ZM171.89,116.4c.2-1.96-12.55-8.43-12.55-8.43,0,0-1.77,12.16.78,13.93,2.55,1.77,11.71-4.87,11.77-5.49ZM173.16,141.4c-3.05-.58-8.73,9.2-8.53,9.79.62,1.87,14.89,2.62,14.89,2.62,0,0-3.31-11.83-6.36-12.41ZM200.51,125.46s2.37,12.06,5.37,12.87c2.99.82,9.42-8.49,9.28-9.09-.47-1.92-14.64-3.79-14.64-3.79ZM195.94,142.15c-3.09.27-5.91,11.22-5.56,11.73,1.1,1.64,15.05-1.51,15.05-1.51,0,0-6.39-10.49-9.48-10.23Z"/>
                  <g class="cls-dino-34">
                    <g class="cls-dino-16">
                      <path class="cls-dino-11" d="M231.73,132.28c.04.26-1.05.64-3.07,1.09-.51.11-1.07.23-1.69.35-.62.11-1.3.18-2.03.28-1.46.17-3.12.42-4.97.47-.93.04-1.9.08-2.91.13-1.01.03-2.06-.02-3.16-.03-2.19,0-4.51-.21-6.96-.42-4.88-.54-10.22-1.51-15.68-3.07-5.45-1.61-10.47-3.66-14.88-5.82-2.18-1.14-4.25-2.2-6.1-3.38-.93-.58-1.84-1.1-2.68-1.67-.83-.58-1.62-1.14-2.38-1.67-1.54-1.04-2.81-2.14-3.95-3.06-.56-.47-1.09-.9-1.56-1.32-.45-.44-.86-.84-1.23-1.2-1.46-1.47-2.18-2.37-2.01-2.57.39-.46,4.02,2.24,10.23,5.89.78.45,1.59.92,2.44,1.41.85.49,1.77.93,2.7,1.43,1.85,1.02,3.91,1.94,6.05,2.96,4.34,1.91,9.2,3.78,14.44,5.34,5.25,1.5,10.36,2.53,15.04,3.24,2.35.29,4.58.62,6.69.75,1.05.08,2.07.2,3.05.24.98.04,1.92.08,2.82.12,7.2.25,11.71-.08,11.79.52Z"/>
                    </g>
                    <g class="cls-dino-16">
                      <path class="cls-dino-11" d="M212.16,147.74c.16.45-2.29,1.92-6.71,3.14-.55.14-1.14.29-1.74.45-.61.14-1.25.24-1.91.37-1.32.27-2.75.41-4.26.58-3.01.25-6.35.29-9.82.03-6.95-.56-13.05-2.15-17.3-3.64-4.26-1.5-6.72-2.87-6.56-3.35.17-.52,2.92-.07,7.26.74,4.34.8,10.3,1.91,16.91,2.44,3.31.25,6.45.32,9.32.27,1.43-.07,2.79-.08,4.06-.21.63-.05,1.25-.08,1.84-.14.59-.06,1.16-.13,1.7-.19,4.32-.49,7.04-1.02,7.22-.48Z"/>
                    </g>
                  </g>
                </g>
                <g>
                  <path class="cls-dino-37" d="M294.58,250.12l-5.2-23.93c-5.22-24.03-5.67-48.85-1.33-73.06l4.12-22.99c4.06-18.02,4.53-43.18-27.71-53.37-22.95-7.26-35.18-3.05-41.68,3.17-7.78,7.44-19.04,9.96-29.1,6.13-13.29-5.07-28.73-9.83-34.04-7.04-4.67,2.46-8.09,10.15-10.01,15.63-1.37,3.9-.45,8.24,2.42,11.23,8.37,8.71,20.85,23.02,69.74,26.9,0,0-13.54,32.1-58.03,13.02-1.85-.79-3.93.54-3.98,2.55-.19,8.02,1.36,24.87,50.77,31.7,0,0-16.53,43.56-15.22,70.07h99.25Z"/>
                  <g class="cls-dino-43">
                    <g>
                      <path class="cls-dino-39" d="M315,156.15c-5.08,2.13-11.79,3.75-18.83,4.12-7.04.41-14.35-.56-20.58-2.45-6.25-1.93-11.38-4.79-14.6-7.54-.8-.7-1.5-1.37-2.08-2.01-.57-.67-1.01-1.31-1.34-1.9-.65-1.18-.82-2.19-.45-2.99.37-.8,1.24-1.36,2.48-1.74.62-.19,1.32-.33,2.1-.43.79-.14,1.66-.24,2.58-.31,3.71-.31,8.46-.45,13.47-1,5.02-.59,10.28-1.52,15.06-2.9,4.78-1.36,9.06-3.01,12.42-4.41l9.78,23.55Z"/>
                      <path class="cls-dino-39" d="M316.58,114.56c-3.45,2.15-8.12,4.2-13.19,5.52-5.07,1.34-10.54,1.89-15.44,1.65-4.91-.26-9.23-1.31-12.21-2.75-1.49-.72-2.66-1.52-3.43-2.38-.78-.84-1.17-1.71-1.14-2.59.03-.88.48-1.73,1.23-2.55.75-.8,1.8-1.61,3.05-2.41,2.5-1.6,5.77-3.24,9.16-5.05,3.4-1.83,6.92-3.79,10.1-5.77,3.19-1.97,6.06-3.88,8.41-5.34l13.46,21.66Z"/>
                      <path class="cls-dino-39" d="M326.81,234.26c-3.71,3.24-8.92,6.55-14.76,9.01-5.82,2.48-12.28,3.99-18.14,4.45-5.88.43-11.15-.22-14.82-1.44-.92-.31-1.74-.65-2.46-1-.72-.37-1.32-.77-1.81-1.17-.98-.8-1.5-1.65-1.5-2.53,0-.88.5-1.75,1.37-2.61.43-.43.96-.85,1.56-1.27.6-.44,1.27-.89,2.01-1.32,2.94-1.78,6.82-3.74,10.82-6.04,3.99-2.33,8.09-4.96,11.71-7.7,3.63-2.73,6.8-5.46,9.33-7.66l16.7,19.27Z"/>
                      <path class="cls-dino-39" d="M317.2,181.18c-3.09,1.74-7.2,3.42-11.66,4.66-4.45,1.25-9.26,2.01-13.66,2.18-4.41.16-8.41-.28-11.34-1.2-2.94-.92-4.8-2.33-5.1-4.04-.58-3.49,4.88-7.6,11.08-11.97,3.12-2.19,6.49-4.41,9.64-6.5,3.16-2.08,6.12-3.99,8.58-5.37l12.45,22.25Z"/>
                    </g>
                    <g>
                      <path class="cls-dino-28" d="M242.24,270.64c-2.24-64.31-.23-85.84-31.69-90.59,0,0-24.06,54.41-23.81,90.59h55.49Z"/>
                      <g class="cls-dino-35">
                        <g class="cls-dino-16">
                          <path class="cls-dino-47" d="M199.35,203.13c3.55,1.27,7.14,2.32,10.8,3.04,3.65.71,7.35,1.18,11.05,1.3,3.71.16,7.42-.03,11.12-.46l2.77-.39,2.75-.52,2.75-.6c.9-.25,1.81-.49,2.73-.71-.86.39-1.73.75-2.61,1.11l-2.68.95-2.74.75-2.78.61c-3.73.73-7.56.97-11.37.84-3.8-.16-7.6-.69-11.27-1.7-3.67-.99-7.24-2.36-10.52-4.22Z"/>
                          <path class="cls-dino-47" d="M193.69,228.33c4.5,1.77,9.09,3.24,13.77,4.28,4.68,1.03,9.42,1.73,14.2,1.99,4.77.29,9.56.15,14.33-.33l3.57-.44,3.55-.62,3.54-.73c1.17-.3,2.33-.6,3.52-.87-1.12.44-2.26.86-3.4,1.28l-3.48,1.08-3.55.84-3.59.67c-4.81.78-9.71.97-14.58.71-4.87-.3-9.71-1.06-14.4-2.39-4.69-1.31-9.24-3.1-13.47-5.46Z"/>
                          <path class="cls-dino-47" d="M201.83,200.44c3.9.19,7.77.28,11.63.12,3.86-.17,7.7-.48,11.51-1.06,3.82-.54,7.59-1.33,11.34-2.26l2.8-.75,2.78-.85,2.77-.88c.91-.33,1.83-.65,2.76-.95-.86.46-1.73.91-2.6,1.34l-2.67,1.22-2.73,1.06-2.77.97c-3.72,1.23-7.57,2.08-11.45,2.66-3.89.54-7.81.82-11.73.7-3.92-.1-7.82-.5-11.64-1.34Z"/>
                        </g>
                      </g>
                    </g>
                    <g class="cls-dino-16">
                      <path class="cls-dino-47" d="M166.26,93.6c-1.03.24-5.05-8.36-2.06-8.8,2.99-.43,3.09,8.56,2.06,8.8Z"/>
                    </g>
                    <g class="cls-dino-16">
                      <path class="cls-dino-47" d="M172.9,96.22c-.58-.88,6.08-7.65,7.53-4.99,1.45,2.65-6.95,5.87-7.53,4.99Z"/>
                    </g>
                    <g>
                      <g>
                        <circle class="cls-dino-46" cx="246.32" cy="107.91" r="17.49"/>
                        <g class="cls-dino-5">
                          <path class="cls-dino-21" d="M230.94,93.81c2.39-6.69,9.74-10.17,16.43-7.79,6.69,2.39,10.17,9.74,7.79,16.43-2.39,6.69-9.74,10.17-16.43,7.79-6.69-2.39-10.17-9.74-7.79-16.43Z"/>
                          <g class="cls-dino-19">
                            <path class="cls-dino-11" d="M266.82,109.8c.45.27.52,1.17.13,2.56-.39,1.39-1.26,3.28-2.76,5.39-1.51,2.09-3.69,4.4-6.69,6.34-2.99,1.96-6.84,3.42-11.07,3.76-4.24.32-8.43-.58-11.74-2.48-3.31-1.89-5.55-4.51-6.85-6.95-1.29-2.47-1.66-4.73-1.56-6.25.11-1.54.61-2.34,1.11-2.37,1.12-.09,2.03,2.69,4.88,5.51,1.41,1.4,3.3,2.83,5.59,3.76,2.26.94,5.04,1.37,7.99,1.15,5.98-.42,10.96-3.52,14.41-6.19,3.46-2.69,5.62-4.8,6.56-4.23Z"/>
                          </g>
                        </g>
                      </g>
                      <path class="cls-dino-4" d="M234.09,95.4c2.93-3.58,7.62-5.78,12.44-5.89,4.83-.19,9.73,1.85,13.15,5.34,3.42,3.5,5.34,8.44,5.05,13.26-.14,2.41-.75,4.76-1.79,6.9-1.11,2.09-2.56,3.99-4.39,5.4,1.44-1.79,2.63-3.74,3.32-5.86.77-2.08,1.11-4.29,1.03-6.46-.16-4.34-1.9-8.54-4.92-11.58-2.97-3.09-7.13-4.93-11.47-5.18-4.35-.24-8.8,1.22-12.41,4.07Z"/>
                    </g>
                    <g class="cls-dino-19">
                      <path class="cls-dino-47" d="M242.43,140.92s.03.51.35,1.26c.16.37.38.81.72,1.24.34.41.76.93,1.5,1.04.76.02,1.25-.45,1.64-.81.38-.39.67-.78.89-1.12.44-.68.63-1.14.59-1.17-.05-.03-.33.38-.82,1-.25.31-.54.67-.92,1.02-.36.33-.85.71-1.35.68-.5-.07-.93-.5-1.25-.87-.33-.39-.56-.79-.75-1.14-.38-.69-.54-1.16-.6-1.14Z"/>
                      <path class="cls-dino-47" d="M234.9,179.48s.03.51.35,1.26c.16.37.38.81.72,1.24.34.41.76.93,1.5,1.04.76.02,1.25-.45,1.64-.81.38-.39.67-.78.89-1.12.44-.68.63-1.14.59-1.17-.05-.03-.33.38-.82,1-.25.31-.54.67-.92,1.02-.36.33-.85.71-1.35.68-.5-.07-.93-.5-1.25-.87-.33-.39-.56-.79-.75-1.14-.38-.69-.54-1.16-.6-1.14Z"/>
                      <path class="cls-dino-47" d="M179.41,163.35s.03.51.35,1.26c.16.37.38.81.72,1.24.34.41.76.93,1.5,1.04.76.02,1.25-.45,1.64-.81.38-.39.67-.78.89-1.12.44-.68.63-1.14.59-1.17-.05-.03-.33.38-.82,1-.25.31-.54.67-.92,1.02-.36.33-.85.71-1.35.68-.5-.07-.93-.5-1.25-.87-.33-.39-.56-.79-.75-1.14-.38-.69-.54-1.16-.6-1.14Z"/>
                      <path class="cls-dino-47" d="M278.69,235.61s.03.51.35,1.26c.16.37.38.81.72,1.24.34.41.76.93,1.5,1.04.76.02,1.25-.45,1.64-.81.38-.39.67-.78.89-1.12.44-.68.63-1.14.59-1.17-.05-.03-.33.38-.82,1-.25.31-.54.67-.92,1.02-.36.33-.85.71-1.35.68-.5-.07-.93-.5-1.25-.87-.33-.39-.56-.79-.75-1.14-.38-.69-.54-1.16-.6-1.14Z"/>
                      <path class="cls-dino-47" d="M251.2,225.69s.03.51.35,1.26c.16.37.38.81.72,1.24.34.41.76.93,1.5,1.04.76.02,1.25-.45,1.64-.81.38-.39.67-.78.89-1.12.44-.68.63-1.14.59-1.17-.05-.03-.33.38-.82,1-.25.31-.54.67-.92,1.02-.36.33-.85.71-1.35.68-.5-.07-.93-.49-1.25-.87-.33-.39-.56-.79-.75-1.14-.38-.69-.54-1.16-.6-1.14Z"/>
                      <path class="cls-dino-47" d="M208.93,113.42s.03.51.35,1.26c.16.37.38.81.72,1.24.34.41.76.93,1.5,1.04.76.02,1.25-.45,1.64-.81.39-.39.67-.78.89-1.12.44-.68.63-1.14.59-1.17-.05-.03-.33.38-.82,1-.25.31-.54.67-.92,1.02-.36.33-.85.71-1.35.68-.5-.07-.93-.5-1.25-.87-.33-.39-.56-.79-.75-1.14-.38-.69-.54-1.16-.6-1.14Z"/>
                      <path class="cls-dino-47" d="M279.93,112.48s-.12.5-.03,1.31c.05.4.13.88.33,1.4.2.49.46,1.11,1.13,1.43.72.24,1.33-.07,1.8-.3.48-.26.87-.55,1.18-.81.62-.52.94-.91.9-.94-.04-.05-.43.27-1.07.72-.32.22-.72.48-1.17.71-.45.21-1.02.43-1.49.26-.45-.21-.75-.74-.94-1.2-.2-.47-.31-.92-.39-1.31-.16-.77-.18-1.26-.25-1.26Z"/>
                      <path class="cls-dino-47" d="M194.24,93.88s.03.51.35,1.26c.16.37.38.81.72,1.24.34.41.76.93,1.5,1.04.76.02,1.25-.45,1.64-.81.38-.39.67-.78.89-1.12.44-.68.63-1.14.59-1.17-.05-.03-.33.38-.82,1-.25.31-.54.67-.92,1.02-.36.33-.85.71-1.35.68-.5-.07-.93-.5-1.25-.87-.33-.39-.56-.79-.75-1.14-.38-.69-.54-1.16-.6-1.14Z"/>
                      <path class="cls-dino-47" d="M266.26,138.2s.02.26.16.69c.15.43.4,1.05.89,1.72.25.33.55.69,1.01.94.22.12.52.2.81.16.29-.04.55-.17.79-.32.47-.32.87-.74,1.24-1.21.18-.23.36-.48.53-.73l.25-.39.12-.2s.02,0-.02,0c.06,0-.05,0-.03,0h0s.03.09.03.09l.08.22c.05.14.11.29.17.43.12.28.26.55.4.8.3.51.64.98,1.07,1.34.21.18.46.33.73.41.28.08.58.04.82-.05.48-.19.82-.51,1.1-.8.56-.6.9-1.16,1.13-1.54.22-.39.32-.62.3-.63-.07-.05-.53.85-1.63,1.97-.28.27-.61.55-1.01.69-.4.16-.83,0-1.2-.33-.37-.33-.69-.77-.97-1.25-.14-.24-.26-.5-.38-.77-.06-.13-.11-.27-.16-.41l-.07-.21-.11-.34c-.07,0-.15-.01-.24-.02h-.14s-.09-.04-.1,0l-.12.19-.12.19-.24.38c-.16.25-.33.48-.5.71-.35.45-.72.86-1.13,1.14-.41.29-.86.4-1.24.18-.39-.19-.69-.52-.94-.82-.96-1.26-1.2-2.28-1.28-2.24Z"/>
                      <path class="cls-dino-47" d="M240.21,198.65s.02.26.16.69c.15.43.4,1.05.89,1.72.25.33.55.69,1.01.94.22.12.52.2.81.16.29-.04.55-.17.79-.32.47-.32.87-.74,1.24-1.21.18-.23.36-.48.53-.73l.25-.39.12-.2s.02,0-.02,0c.06,0-.05,0-.03,0h0,0s.03.09.03.09l.08.22c.05.14.11.29.17.43.12.28.26.55.4.8.3.51.64.98,1.07,1.34.21.18.46.33.73.41.28.08.58.04.82-.05.48-.19.82-.51,1.1-.8.56-.6.9-1.16,1.13-1.54.22-.39.32-.62.3-.63-.07-.05-.53.85-1.63,1.97-.28.27-.61.55-1.01.69-.4.16-.83,0-1.2-.33-.37-.33-.69-.77-.97-1.25-.14-.24-.26-.5-.38-.77-.06-.13-.11-.27-.16-.41l-.07-.21-.11-.34c-.07,0-.15-.01-.24-.02h-.14s-.09-.04-.1,0l-.12.19-.12.19-.24.38c-.16.25-.33.48-.5.71-.35.45-.72.86-1.13,1.14-.41.29-.86.4-1.24.18-.39-.19-.69-.52-.94-.82-.96-1.26-1.2-2.28-1.28-2.24Z"/>
                      <path class="cls-dino-47" d="M224.87,82.14s-.05.25-.02.71c.04.45.12,1.12.42,1.89.16.38.36.81.74,1.17.19.18.45.33.75.36.29.03.58-.02.84-.11.54-.19,1.03-.5,1.5-.85.24-.18.47-.37.7-.57l.34-.31.17-.16s.02,0-.02,0c.05.02-.05-.02-.03,0h0s0,.1,0,.1l.02.23c.01.15.03.31.06.46.04.3.11.59.19.88.16.57.37,1.11.7,1.57.16.23.36.44.61.58.25.15.55.19.8.16.51-.07.92-.29,1.27-.5.69-.44,1.16-.89,1.48-1.2.32-.32.47-.52.45-.53-.05-.06-.73.69-2.07,1.49-.34.19-.73.37-1.16.41-.43.06-.8-.2-1.08-.62-.28-.41-.48-.92-.62-1.46-.07-.27-.13-.55-.17-.84-.02-.14-.04-.29-.05-.43l-.02-.22-.02-.36c-.07-.02-.15-.05-.22-.08l-.13-.04s-.08-.05-.1-.01l-.16.16-.16.16-.33.3c-.22.2-.44.38-.67.56-.45.34-.91.64-1.39.82-.48.18-.93.16-1.25-.14-.32-.29-.53-.68-.7-1.03-.61-1.47-.58-2.51-.66-2.49Z"/>
                      <path class="cls-dino-47" d="M264.95,168.46s.02.26.16.69c.15.43.4,1.05.89,1.72.25.33.55.69,1.01.94.22.12.52.2.81.16.29-.04.55-.17.79-.32.47-.32.87-.74,1.24-1.21.18-.23.36-.48.53-.73l.25-.39.12-.2s.02,0-.02,0c.06,0-.05,0-.03,0h0s0,0,0,0l.03.09.08.22c.05.14.11.29.17.43.12.28.26.55.4.8.3.51.64.98,1.07,1.34.21.18.46.33.73.41.28.08.58.04.82-.05.48-.19.82-.51,1.1-.8.56-.6.9-1.16,1.13-1.54.22-.39.32-.62.3-.63-.07-.05-.53.85-1.63,1.97-.28.27-.61.55-1.01.69-.4.16-.83,0-1.2-.33-.37-.33-.69-.77-.97-1.25-.14-.24-.26-.5-.38-.77-.06-.13-.11-.27-.16-.41l-.07-.21-.11-.34c-.07,0-.15-.01-.24-.02h-.14s-.09-.04-.1,0l-.12.19-.12.19-.24.38c-.16.25-.33.48-.5.71-.35.45-.72.86-1.13,1.14-.41.29-.86.4-1.24.18-.39-.19-.69-.52-.94-.82-.96-1.26-1.2-2.28-1.28-2.24Z"/>
                      <path class="cls-dino-47" d="M172.54,105.89s-.08.24-.12.7c-.03.45-.04,1.12.14,1.93.1.4.23.85.56,1.26.16.2.4.39.68.46.28.07.57.06.85.01.56-.11,1.09-.34,1.61-.62.26-.14.52-.3.77-.46l.38-.26.19-.13s.02,0-.02-.01c.05.03-.04-.02-.03-.01h0s0,.1,0,.1v.23c-.02.15-.03.31-.02.46,0,.3.02.6.05.9.07.59.21,1.15.46,1.65.13.25.29.49.51.67.23.19.52.27.77.27.52.01.95-.15,1.33-.3.75-.33,1.28-.71,1.64-.97.36-.27.54-.44.52-.46-.04-.07-.82.57-2.27,1.17-.36.14-.78.26-1.2.24-.43,0-.76-.32-.98-.77-.21-.45-.34-.98-.4-1.53-.03-.28-.05-.56-.05-.85,0-.15,0-.29.01-.44v-.22s.04-.36.04-.36c-.07-.03-.14-.07-.21-.11l-.12-.06s-.07-.06-.1-.03l-.18.13-.18.13-.37.25c-.25.16-.49.31-.74.45-.5.27-1,.5-1.49.6-.5.11-.95.02-1.21-.32-.28-.33-.43-.75-.54-1.12-.39-1.54-.21-2.56-.29-2.56Z"/>
                      <path class="cls-dino-47" d="M207.73,157.65s.02.26.16.69c.15.43.4,1.05.89,1.72.25.33.55.69,1.01.94.22.12.52.2.81.16.29-.04.55-.17.79-.32.47-.32.87-.74,1.24-1.21.18-.23.36-.48.53-.73l.25-.39.12-.2s.02,0-.02,0c.06,0-.05,0-.03,0h0s.03.09.03.09l.08.22c.05.14.11.29.17.43.12.28.26.55.4.8.3.51.64.98,1.07,1.34.21.18.46.33.73.41.28.08.58.04.82-.05.48-.19.82-.51,1.1-.8.56-.6.9-1.16,1.13-1.54.22-.39.32-.62.3-.63-.07-.05-.53.85-1.63,1.97-.28.27-.61.55-1.01.69-.4.16-.83,0-1.2-.33-.37-.33-.69-.77-.97-1.25-.14-.24-.26-.5-.38-.77-.06-.13-.11-.27-.16-.41l-.07-.21-.11-.34c-.07,0-.15-.01-.24-.02h-.14s-.09-.04-.1,0l-.12.19-.12.19-.24.38c-.16.25-.33.48-.5.71-.35.45-.72.86-1.13,1.14-.41.29-.86.4-1.24.18-.39-.19-.69-.52-.94-.82-.96-1.26-1.2-2.28-1.28-2.24Z"/>
                    </g>
                    <ellipse class="cls-dino-44" cx="261.96" cy="186.33" rx="6.59" ry="2.45"/>
                    <ellipse class="cls-dino-44" cx="229.14" cy="151.98" rx="3.22" ry="1.23"/>
                    <ellipse class="cls-dino-44" cx="255.98" cy="238.47" rx="4.29" ry="1.23"/>
                    <g class="cls-dino-17">
                      <path class="cls-dino-47" d="M222.68,132.02c.13.98-4.61,2.72-12.68,3.07-8.01.37-19.4-1.04-30.79-6.08-11.4-5.02-20.13-12.48-25.26-18.64-5.19-6.19-7.09-10.86-6.28-11.43.9-.66,4.31,2.77,10.11,7.6,5.77,4.84,14.18,10.91,24.52,15.47,10.34,4.57,20.5,6.68,27.96,7.68,7.47,1.03,12.3,1.23,12.42,2.34Z"/>
                    </g>
                    <g class="cls-dino-17">
                      <path class="cls-dino-47" d="M232.54,176.05c.15,1.01-4.24,2.72-11.71,3.68-7.44.94-18,.95-29.29-1.47-5.63-1.21-10.91-2.75-15.63-4.87-4.7-2.09-8.69-4.84-11.46-7.72-2.8-2.85-4.41-5.73-5.14-7.82-.72-2.11-.66-3.4-.19-3.59,1.03-.44,3.31,3.46,8.86,7.3,2.75,1.93,6.31,3.77,10.58,5.29,4.25,1.52,9.28,2.79,14.56,3.92,10.57,2.26,20.37,3.09,27.54,3.55,7.16.44,11.74.65,11.89,1.73Z"/>
                    </g>
                    <g class="cls-dino-17">
                      <path class="cls-dino-47" d="M291.52,96.63c.03.26-.58.56-1.76.82-1.18.22-2.94.34-5.07.05-2.14-.28-4.62-.99-7.19-2.1-2.58-1.1-5.24-2.61-7.89-4.33-2.63-1.72-5.07-3.4-7.24-5.19-2.15-1.77-3.94-3.66-5.14-5.48-1.22-1.82-1.83-3.53-2.03-4.73-.22-1.2-.07-1.9.16-1.95.58-.13,1.36,2.25,4,5,1.3,1.39,3.05,2.86,5.17,4.37,2.1,1.5,4.6,3.08,7.16,4.77,5.11,3.37,9.87,5.88,13.58,7,3.69,1.15,6.2,1.19,6.26,1.77Z"/>
                    </g>
                    <g class="cls-dino-17">
                      <path class="cls-dino-47" d="M301.85,211.69c1.11,1.8-3.53,6.69-10.37,10.94-6.84,4.24-13.29,6.23-14.41,4.43-1.11-1.8,3.53-6.69,10.37-10.94,6.84-4.24,13.29-6.23,14.41-4.43Z"/>
                    </g>
                    <g class="cls-dino-17">
                      <path class="cls-dino-47" d="M297.26,252.71c-1.22.5-3.2-1.11-5.74-4.58-2.41-3.5-5.42-8.87-8.04-15.94-2.66-7.06-5.07-15.78-6.55-25.71-1.47-9.92-1.91-21.04-.99-32.63.56-5.78,1.28-11.42,2.45-16.78,1.06-5.41,2.48-10.37,3.77-14.93,2.65-9.12,4.86-16.76,5.97-23.26,1.16-6.5,1.42-11.8,1.54-15.66.15-3.85.29-6.32,1.54-6.87,1.15-.53,3.4,1,5.66,4.94,2.28,3.9,4.29,10.28,4.79,18.2.57,7.93-.58,17.21-2.31,26.63-.83,4.73-1.81,9.49-2.5,14.31-.81,4.83-1.31,9.87-1.82,15.03-.82,10.34-.94,20.26-.53,29.3.42,9.04,1.28,17.21,2.13,24.14.8,6.94,1.72,12.58,1.92,16.7.33,4.07-.03,6.62-1.26,7.11Z"/>
                    </g>
                    <g class="cls-dino-22">
                      <path class="cls-dino-12" d="M197.89,254.27c-.48.14-1.32-.74-2.15-2.62-.83-1.87-1.68-4.75-2.05-8.37-.4-3.62-.34-7.95.17-12.61.52-4.67,1.39-9.64,2.52-14.86,2.28-10.42,5.39-19.59,8.19-25.99,2.8-6.41,5.23-10.08,6.21-9.71,2.01.77-2.52,17.1-6.92,37.35-1.1,5.06-2.16,9.93-3.02,14.26-.85,4.34-1.43,8.22-1.73,11.5-.63,6.53-.14,10.72-1.21,11.05Z"/>
                    </g>
                    <g class="cls-dino-22">
                      <path class="cls-dino-12" d="M257.29,70.1c-.05.55-1.85.83-4.95,1.34-3.09.52-7.51,1.35-12.57,3.31-2.53.98-5.2,2.25-7.9,3.88-1.34.84-2.67,1.72-4.02,2.75-1.36,1.03-2.76,2.18-4.29,3.37-1.53,1.19-3.18,2.44-5.08,3.59-1.88,1.15-4.06,2.2-6.42,2.85-4.73,1.35-9.75,1.13-14.37.22-4.65-.91-8.84-2.37-12.72-3.69-3.82-1.31-7.44-2.4-10.86-2.99-3.42-.62-6.58-.62-9.37-.04-1.38.32-2.68.77-3.86,1.34-1.17.6-2.24,1.32-3.21,2.1-3.86,3.24-5.94,7.27-7.23,10.04-1.29,2.81-1.91,4.52-2.47,4.45-.49-.06-.89-1.93-.39-5.29.25-1.68.76-3.72,1.72-5.99.97-2.26,2.43-4.76,4.66-7.14,1.13-1.17,2.46-2.29,3.99-3.28,1.56-.96,3.29-1.76,5.15-2.35,3.75-1.13,7.93-1.33,12.01-.81,4.1.49,8.17,1.58,12.19,2.84,3.96,1.24,7.89,2.53,11.84,3.3,3.95.77,7.69.9,10.96.06,3.23-.8,6.24-2.73,9.27-4.87,1.51-1.06,3.04-2.17,4.62-3.21,1.58-1.05,3.24-1.98,4.83-2.8,3.23-1.61,6.39-2.73,9.33-3.48,5.9-1.49,10.83-1.51,14.14-1.12,3.32.4,5.06,1.14,5.01,1.64Z"/>
                    </g>
                    <g class="cls-dino-22">
                      <path class="cls-dino-12" d="M170.96,169.19c-.58.84-2.48.78-4.9-.64-1.21-.7-2.49-1.77-3.71-3.14-1.2-1.39-2.32-3.1-3.17-5.05-.84-1.95-1.32-3.94-1.52-5.77-.17-1.83-.08-3.5.24-4.86.62-2.74,1.87-4.17,2.88-4.01,1.07.15,1.77,1.71,2.53,3.83.36,1.03.78,2.25,1.26,3.6.49,1.31,1.02,2.71,1.64,4.17.64,1.44,1.3,2.79,1.92,4.04.66,1.26,1.26,2.4,1.77,3.37,1.03,2,1.69,3.57,1.07,4.46Z"/>
                    </g>
                  </g>
                </g>
              </g>
              <g>
                <g>
                  <path class="cls-dino-37" d="M270.86,195.86c9.29-4.51,38.59-9.4,38.59-9.4l4.54-13.56,2.47,11.6,13.98-1.04-8.23,10.66,8.04,6.75-16.23-2.86s-30.31,25.76-37.11,28.92"/>
                  <g class="cls-dino-40">
                    <g class="cls-dino-20">
                      <path class="cls-dino-47" d="M330.8,201.56c-.63.94-3.85-.53-8.82-.49-2.46.02-5.35.47-8.09,1.75-2.78,1.28-5.68,3.63-9.09,6.31-6.71,5.23-12.92,9.93-17.78,12.96-4.84,3.03-8.21,4.41-8.86,3.57-.65-.84,1.53-3.71,5.45-7.78,3.92-4.05,9.61-9.43,16.48-14.79,3.35-2.61,6.99-5.38,11.21-6.83,4.24-1.45,8.28-1.32,11.38-.56,3.14.75,5.37,2.13,6.68,3.29,1.31,1.19,1.73,2.15,1.44,2.57Z"/>
                    </g>
                    <g class="cls-dino-20">
                      <path class="cls-dino-47" d="M332.83,180.79c1.65,1.32.71,5.26-2.11,8.8-2.82,3.54-6.45,5.35-8.1,4.03-1.65-1.32-.71-5.26,2.11-8.8,2.82-3.54,6.45-5.35,8.1-4.03Z"/>
                    </g>
                    <g class="cls-dino-20">
                      <path class="cls-dino-47" d="M312.69,170.19c2.08-.38,4.37,2.59,5.11,6.64.75,4.05-.34,7.64-2.41,8.02-2.08.38-4.37-2.59-5.11-6.64s.34-7.64,2.41-8.02Z"/>
                    </g>
                    <g class="cls-dino-19">
                      <path class="cls-dino-47" d="M293.91,204.69s.23.29.59.82c.36.52.82,1.35,1.01,2.47.08.55.14,1.19-.06,1.77-.1.28-.28.54-.53.64-.24.11-.56.07-.83-.09-.56-.32-.84-1.1-1.11-1.87-.27-.78-.47-1.6-.59-2.47-.12-.86-.18-1.72.1-2.41.25-.71.99-.93,1.58-.58.61.33,1.03.91,1.39,1.48.36.56.64,1.12.86,1.65.86,2.13.79,3.63.9,3.61.04,0,.09-.36.06-1.02-.03-.66-.16-1.62-.57-2.74-.2-.56-.47-1.16-.83-1.76-.36-.59-.8-1.27-1.55-1.7-.37-.21-.88-.33-1.36-.17-.48.15-.85.57-1.02,1.01-.37.89-.27,1.83-.15,2.72.12.9.34,1.77.63,2.58.3.77.57,1.67,1.39,2.16.39.22.9.3,1.33.09.43-.2.66-.61.78-.96.23-.74.12-1.42,0-2.01-.26-1.19-.81-2.03-1.24-2.53-.44-.51-.76-.7-.78-.67Z"/>
                      <path class="cls-dino-47" d="M290.28,190.94s-.44.27-.93.92c-.24.32-.52.73-.73,1.23-.2.5-.44,1.12-.18,1.82.35.67,1,.87,1.51,1.04.53.15,1.01.2,1.41.23.81.06,1.3,0,1.3-.05,0-.06-.49-.1-1.27-.23-.39-.07-.85-.15-1.34-.31-.47-.16-1.03-.4-1.25-.85-.18-.47-.02-1.05.16-1.51.18-.47.42-.88.63-1.21.42-.66.75-1.04.7-1.08Z"/>
                      <path class="cls-dino-47" d="M315.23,185.2s-.44.27-.93.92c-.24.32-.52.73-.73,1.23-.2.5-.44,1.12-.18,1.82.35.67,1,.87,1.51,1.04.53.15,1.01.2,1.41.23.81.06,1.3,0,1.3-.05,0-.06-.49-.1-1.27-.23-.39-.07-.85-.15-1.34-.31-.47-.16-1.03-.4-1.25-.85-.18-.47-.02-1.05.16-1.51.18-.48.42-.88.63-1.21.42-.66.75-1.04.7-1.08Z"/>
                      <path class="cls-dino-47" d="M305.37,189.51s-.21.15-.5.5c-.29.35-.69.89-1.01,1.65-.15.38-.3.83-.28,1.35.01.26.1.55.29.77.19.22.43.38.69.5.52.24,1.09.35,1.67.43.29.03.59.06.9.07h.46s.23.01.23.01c0,0,.01.02,0-.02.03.05-.02-.05-.01-.03h0s-.06.07-.06.07l-.15.18c-.1.12-.19.24-.27.37-.18.25-.33.5-.48.76-.28.52-.5,1.06-.59,1.61-.04.28-.05.56.03.84.08.28.27.52.47.67.42.31.86.43,1.26.52.8.17,1.45.17,1.9.16.45-.01.69-.05.69-.07,0-.08-1-.01-2.53-.36-.37-.1-.79-.24-1.12-.51-.35-.26-.44-.7-.35-1.2.08-.49.29-.99.57-1.48.14-.24.29-.49.46-.72.08-.12.17-.24.26-.35l.14-.17.23-.27c-.03-.07-.07-.14-.11-.21l-.06-.12s-.02-.09-.07-.08h-.23s-.23,0-.23,0h-.45c-.3-.02-.59-.04-.87-.07-.56-.07-1.11-.17-1.56-.37-.47-.2-.79-.53-.8-.97-.04-.43.08-.86.21-1.22.58-1.48,1.32-2.21,1.25-2.25Z"/>
                      <path class="cls-dino-47" d="M279.38,208.04s-.21.15-.5.5c-.29.35-.69.89-1.01,1.65-.15.38-.3.83-.28,1.35.01.26.1.55.29.77.19.22.43.38.69.5.52.24,1.09.35,1.67.43.29.03.59.06.9.07h.46s.23.01.23.01c0,0,.01.02,0-.02.03.05-.02-.05-.01-.03h0s-.06.07-.06.07l-.15.18c-.1.12-.19.24-.27.37-.18.25-.33.5-.48.76-.28.52-.5,1.06-.59,1.61-.04.28-.05.56.03.84.08.28.27.52.47.67.42.31.86.43,1.26.52.8.17,1.45.17,1.9.16.45-.01.69-.05.69-.07,0-.08-1-.01-2.53-.36-.37-.1-.79-.24-1.12-.51-.35-.26-.44-.7-.35-1.2.08-.49.29-.99.57-1.48.14-.24.29-.49.46-.72.08-.12.17-.24.26-.35l.14-.17.23-.27c-.03-.07-.07-.14-.11-.21l-.06-.12s-.02-.09-.07-.08h-.23s-.23,0-.23,0h-.45c-.3-.02-.59-.04-.87-.07-.56-.07-1.11-.17-1.56-.37-.47-.2-.79-.53-.8-.97-.04-.43.08-.86.21-1.22.58-1.48,1.32-2.21,1.25-2.25Z"/>
                    </g>
                  </g>
                </g>
                <g>
                  <path class="cls-dino-49" d="M314.03,198.01c-2.89,2.66-5.85,5.24-8.83,7.79-2.98,2.56-6.01,5.06-9.06,7.52-3.07,2.45-6.15,4.89-9.32,7.21-1.58,1.16-3.18,2.31-4.81,3.41-.82.54-1.64,1.09-2.49,1.59-.82.53-1.71.98-2.59,1.4.84-.51,1.69-1,2.48-1.58.81-.54,1.6-1.13,2.38-1.73,1.58-1.16,3.13-2.36,4.66-3.58,3.08-2.43,6.14-4.88,9.19-7.34l9.17-7.37c3.06-2.45,6.12-4.91,9.22-7.32Z"/>
                  <path class="cls-dino-49" d="M270.86,195.86c2.95-1.54,6.14-2.57,9.32-3.51,3.19-.94,6.42-1.73,9.66-2.46,3.24-.71,6.5-1.37,9.77-1.94l4.91-.82c1.64-.23,3.28-.49,4.93-.68-1.62.35-3.24.71-4.86,1.06l-4.86,1.03-9.71,2.11c-3.24.71-6.45,1.48-9.67,2.27-3.21.82-6.4,1.69-9.48,2.92Z"/>
                </g>
              </g>
            </g>
            <g>
              <g>
                <path class="cls-dino-38" d="M255.34,74.43l34.55-18.43.18,40.49s-25.91-4.29-34.73-22.05Z"/>
                <g class="cls-dino-3">
                  <g>
                    <path class="cls-dino-42" d="M287.65,61.55c-.02-.24-.46-1.11-2.3.52.85-1.25,1.31-2.51.83-2.78-.48-.27-1.34.76-1.99,2.12.48-2.42-.49-2.36-.71-2.25-.87.44-.17,2.86-.14,5.07,1.92-1.09,4.37-1.7,4.31-2.67Z"/>
                    <path class="cls-dino-42" d="M278.33,87.94c-.03-.48-.91-2.22-4.61,1.04,1.69-2.49,2.62-5.02,1.66-5.57-.95-.55-2.67,1.52-3.97,4.24.96-4.84-.99-4.72-1.42-4.5-1.74.87-.34,5.72-.28,10.14,3.85-2.18,8.74-3.4,8.62-5.35Z"/>
                    <path class="cls-dino-42" d="M296.08,95.44c-.03-.48-.91-2.22-4.61,1.04,1.69-2.49,2.62-5.02,1.66-5.57-.95-.55-2.67,1.52-3.97,4.24.96-4.84-.99-4.72-1.42-4.5-1.74.87-.34,5.72-.28,10.14,3.85-2.18,8.74-3.4,8.62-5.35Z"/>
                    <path class="cls-dino-42" d="M293.03,72.25c-.03-.48-.91-2.22-4.61,1.04,1.69-2.49,2.62-5.02,1.66-5.57-.95-.55-2.67,1.52-3.97,4.24.96-4.84-.99-4.72-1.42-4.5-1.74.87-.34,5.72-.28,10.14,3.85-2.18,8.74-3.4,8.62-5.35Z"/>
                    <path class="cls-dino-42" d="M275.44,69.02c-.03-.48-.91-2.22-4.61,1.04,1.69-2.49,2.62-5.02,1.66-5.57-.95-.55-2.67,1.52-3.97,4.24.96-4.84-.99-4.72-1.42-4.5-1.74.87-.34,5.72-.28,10.14,3.85-2.18,8.74-3.4,8.62-5.35Z"/>
                    <path class="cls-dino-42" d="M267.35,78.5c-.02-.24-.46-1.11-2.3.52.85-1.25,1.31-2.51.83-2.78-.48-.27-1.34.76-1.99,2.12.48-2.42-.49-2.36-.71-2.25-.87.44-.17,2.86-.14,5.07,1.92-1.09,4.37-1.7,4.31-2.67Z"/>
                    <path class="cls-dino-42" d="M287.67,85.43c-.02-.24-.46-1.11-2.3.52.85-1.25,1.31-2.51.83-2.78-.48-.27-1.34.76-1.99,2.12.48-2.42-.49-2.36-.71-2.25-.87.44-.17,2.86-.14,5.07,1.92-1.09,4.37-1.7,4.31-2.67Z"/>
                    <path class="cls-dino-42" d="M281.14,75.07c-.02-.24-.46-1.11-2.3.52.85-1.25,1.31-2.51.83-2.78-.48-.27-1.34.76-1.99,2.12.48-2.42-.49-2.36-.71-2.25-.87.44-.17,2.86-.14,5.07,1.92-1.09,4.37-1.7,4.31-2.67Z"/>
                  </g>
                  <g class="cls-dino-26">
                    <ellipse class="cls-dino-12" cx="269.12" cy="65.9" rx="21.97" ry="3.83" transform="translate(-1.59 124.95) rotate(-26.06)"/>
                  </g>
                  <g class="cls-dino-19">
                    <rect class="cls-dino-45" x="258.83" y="63.26" width="62.44" height="14.17" transform="translate(198.24 354.33) rotate(-85.72)"/>
                  </g>
                </g>
              </g>
              <g>
                <circle class="cls-dino-42" cx="290.58" cy="53.4" r="5.69" transform="translate(15.36 160.84) rotate(-31.74)"/>
                <g class="cls-dino-6">
                  <g class="cls-dino-16">
                    <path class="cls-dino-24" d="M287.51,58.32c.45-.84.94-1.67,1.43-2.49.49-.82,1-1.63,1.51-2.44.52-.8,1.03-1.6,1.58-2.39l.81-1.18c.28-.39.55-.78.84-1.16-.22.42-.46.84-.7,1.25l-.73,1.23c-.49.82-1,1.63-1.51,2.44-.52.8-1.03,1.6-1.58,2.39-.54.79-1.08,1.57-1.66,2.34Z"/>
                    <path class="cls-dino-24" d="M285.76,50.4c.84.45,1.67.94,2.49,1.43.82.49,1.63,1,2.44,1.51.8.52,1.6,1.03,2.39,1.58l1.18.81c.39.28.78.55,1.16.84-.42-.22-.84-.46-1.25-.7l-1.23-.73c-.82-.49-1.63-1-2.44-1.51-.8-.52-1.6-1.03-2.39-1.58-.79-.54-1.57-1.08-2.34-1.66Z"/>
                    <path class="cls-dino-24" d="M285.03,54.71c.92-.28,1.84-.52,2.77-.75.92-.24,1.86-.45,2.79-.66.93-.2,1.87-.4,2.8-.58l1.41-.26c.47-.07.94-.16,1.42-.22-.46.14-.92.26-1.38.39l-1.39.36c-.92.24-1.86.45-2.79.66-.93.2-1.87.4-2.8.58-.94.18-1.88.35-2.83.48Z"/>
                    <path class="cls-dino-24" d="M289.4,47.86c.28.92.52,1.84.75,2.77.24.92.45,1.86.66,2.79.2.93.4,1.87.58,2.8l.26,1.41c.07.47.16.94.22,1.42-.14-.46-.26-.92-.39-1.38l-.36-1.39c-.24-.92-.45-1.86-.66-2.79-.2-.93-.4-1.87-.58-2.8-.18-.94-.35-1.88-.48-2.83Z"/>
                  </g>
                  <g class="cls-dino-17">
                    <path class="cls-dino-47" d="M297.55,56.1c.21.14.27.53.06,1.12-.2.59-.71,1.34-1.57,2.04-.85.7-2.08,1.31-3.57,1.55-1.48.24-3.26.06-4.9-.8-1.63-.89-2.76-2.27-3.38-3.64-.63-1.37-.8-2.73-.69-3.83.11-1.1.45-1.94.83-2.44.38-.5.73-.67.97-.57.51.22.45,1.37.9,2.83.4,1.45,1.46,3.34,3.18,4.27,1.72.92,3.88.75,5.31.28,1.47-.44,2.39-1.12,2.86-.82Z"/>
                  </g>
                </g>
              </g>
            </g>
          </g>
        </g>
      </g>
    </g>
  </g>
</svg>