<?xml version="1.0" encoding="UTF-8"?>
<svg xmlns="http://www.w3.org/2000/svg" xmlns:xlink="http://www.w3.org/1999/xlink" viewBox="0 0 288.44 301.54">
  <defs>
    <style>
      .cls-gorro-1 {
        clip-path: url(#clippath-gorro-4);
      }

      .cls-gorro-2 {
        fill: #fff;
      }

      .cls-gorro-3, .cls-gorro-4, .cls-gorro-5 {
        mix-blend-mode: color-burn;
      }

      .cls-gorro-4 {
        opacity: .2;
      }

      .cls-gorro-6 {
        clip-path: url(#clippath-gorro-1);
      }

      .cls-gorro-7 {
        fill: #605c5a;
      }

      .cls-gorro-8 {
        isolation: isolate;
      }

      .cls-gorro-9 {
        clip-path: url(#clippath-gorro-5);
      }

      .cls-gorro-10 {
        clip-path: url(#clippath-gorro-3);
      }

      .cls-gorro-11 {
        mix-blend-mode: soft-light;
      }

      .cls-gorro-11, .cls-gorro-5 {
        opacity: .5;
      }

      .cls-gorro-12 {
        fill: #fadb37;
      }

      .cls-gorro-13 {
        clip-path: url(#clippath-gorro-2);
      }

      .cls-gorro-14 {
        fill: #f95f11;
      }

      .cls-gorro-15 {
        fill: #2d2d34;
      }

      .cls-gorro-16 {
        fill: #88847d;
      }

      .cls-gorro-17 {
        clip-path: url(#clippath-gorro);
      }
    </style>
    <clipPath id="clippath-gorro">
      <path class="cls-gorro-12" d="M23.31,70.2l-15.09-36.17,40.35,3.66s-6.73,25.4-25.27,32.51Z"/>
    </clipPath>
    <clipPath id="clippath-gorro-1">
      <circle class="cls-gorro-14" cx="5.7" cy="33.1" r="5.7" transform="translate(-14.08 5.95) rotate(-26.3)"/>
    </clipPath>
    <clipPath id="clippath-gorro-2">
      <path class="cls-gorro-12" d="M260.96,13.74l23.22-8.57-3.37,25.37s-15.86-4.92-19.86-16.8Z"/>
    </clipPath>
    <clipPath id="clippath-gorro-3">
      <circle class="cls-gorro-14" cx="284.84" cy="3.6" r="3.6" transform="translate(23.01 115.8) rotate(-23.92)"/>
    </clipPath>
    <clipPath id="clippath-gorro-4">
      <path class="cls-gorro-12" d="M59.14,301.54l-13.76-20.58,25.46-2.65s-1.08,16.57-11.7,23.23Z"/>
    </clipPath>
    <clipPath id="clippath-gorro-5">
      <circle class="cls-gorro-14" cx="43.7" cy="280.69" r="3.6" transform="translate(-161.57 84.32) rotate(-37.42)"/>
    </clipPath>
  </defs>
  <g class="cls-gorro-8">
    <g id="Capa_2" data-name="Capa 2">
      <g id="Capa_1-2" data-name="Capa 1">
        <g>
          <g>
            <path class="cls-gorro-12" d="M23.31,70.2l-15.09-36.17,40.35,3.66s-6.73,25.4-25.27,32.51Z"/>
            <g class="cls-gorro-17">
              <g>
                <path class="cls-gorro-14" d="M13.54,36.8c-.24,0-1.15.35.3,2.34-1.16-.96-2.38-1.54-2.69-1.09-.32.45.63,1.4,1.92,2.18-2.36-.71-2.4.27-2.31.49.35.91,2.83.44,5.04.62-.9-2.02-1.28-4.52-2.26-4.55Z"/>
                <path class="cls-gorro-14" d="M38.94,48.58c-.48-.01-2.3.7.6,4.69-2.32-1.92-4.75-3.08-5.39-2.18-.64.9,1.26,2.8,3.85,4.36-4.73-1.42-4.79.54-4.62.98.7,1.82,5.66.88,10.07,1.24-1.81-4.04-2.56-9.03-4.51-9.09Z"/>
                <path class="cls-gorro-14" d="M48.1,31.61c-.48-.01-2.3.7.6,4.69-2.32-1.92-4.75-3.08-5.39-2.18-.64.9,1.26,2.8,3.85,4.36-4.73-1.42-4.79.54-4.62.98.7,1.82,5.66.88,10.07,1.24-1.81-4.04-2.56-9.03-4.51-9.09Z"/>
                <path class="cls-gorro-14" d="M24.71,32.45c-.48-.01-2.3.7.6,4.69-2.32-1.92-4.75-3.08-5.39-2.18-.64.9,1.26,2.8,3.85,4.36-4.73-1.42-4.79.54-4.62.98.7,1.82,5.66.88,10.07,1.24-1.81-4.04-2.56-9.03-4.51-9.09Z"/>
                <path class="cls-gorro-14" d="M19.82,49.67c-.48-.01-2.3.7.6,4.69-2.32-1.92-4.75-3.08-5.39-2.18-.64.9,1.26,2.8,3.85,4.36-4.73-1.42-4.79.54-4.62.98.7,1.82,5.66.88,10.07,1.24-1.81-4.04-2.56-9.03-4.51-9.09Z"/>
                <path class="cls-gorro-14" d="M28.5,58.63c-.24,0-1.15.35.3,2.34-1.16-.96-2.38-1.54-2.69-1.09-.32.45.63,1.4,1.92,2.18-2.36-.71-2.4.27-2.31.49.35.91,2.83.44,5.04.62-.9-2.02-1.28-4.52-2.26-4.55Z"/>
                <path class="cls-gorro-14" d="M37.34,39.04c-.24,0-1.15.35.3,2.34-1.16-.96-2.38-1.54-2.69-1.09-.32.45.63,1.4,1.92,2.18-2.36-.71-2.4.27-2.31.49.35.91,2.83.44,5.04.62-.9-2.02-1.28-4.52-2.26-4.55Z"/>
                <path class="cls-gorro-14" d="M26.4,44.56c-.24,0-1.15.35.3,2.34-1.16-.96-2.38-1.54-2.69-1.09-.32.45.63,1.4,1.92,2.18-2.36-.71-2.4.27-2.31.49.35.91,2.83.44,5.04.62-.9-2.02-1.28-4.52-2.26-4.55Z"/>
              </g>
              <g class="cls-gorro-11">
                <ellipse class="cls-gorro-2" cx="16.12" cy="55.66" rx="3.83" ry="21.99" transform="translate(-18.57 9.25) rotate(-20.62)"/>
              </g>
              <g class="cls-gorro-5">
                <rect class="cls-gorro-15" x="15.44" y="3.99" width="14.18" height="62.48" transform="translate(-16 51.49) rotate(-80.28)"/>
              </g>
            </g>
          </g>
          <g>
            <circle class="cls-gorro-14" cx="5.7" cy="33.1" r="5.7" transform="translate(-14.08 5.95) rotate(-26.3)"/>
            <g class="cls-gorro-6">
              <g class="cls-gorro-3">
                <path class="cls-gorro-7" d="M10.31,36.63c-.8-.53-1.57-1.09-2.34-1.66-.77-.56-1.53-1.15-2.28-1.73-.75-.59-1.5-1.18-2.23-1.8l-1.1-.92c-.36-.32-.72-.63-1.07-.95.4.26.79.54,1.18.81l1.16.84c.77.56,1.53,1.15,2.28,1.73.75.59,1.5,1.18,2.23,1.8.73.61,1.47,1.23,2.17,1.87Z"/>
                <path class="cls-gorro-7" d="M2.25,37.62c.53-.8,1.09-1.57,1.66-2.34.56-.77,1.15-1.53,1.73-2.28.59-.75,1.18-1.5,1.8-2.23l.92-1.1c.32-.36.63-.72.95-1.07-.26.4-.54.79-.81,1.18l-.84,1.16c-.56.77-1.15,1.53-1.73,2.28-.59.75-1.18,1.5-1.8,2.23-.61.73-1.23,1.47-1.87,2.17Z"/>
                <path class="cls-gorro-7" d="M6.47,38.76c-.19-.94-.34-1.88-.48-2.83-.15-.94-.27-1.89-.39-2.84-.11-.95-.22-1.9-.31-2.85l-.13-1.43c-.03-.48-.07-.95-.09-1.43.1.47.17.94.26,1.41l.22,1.42c.15.94.27,1.89.39,2.84.11.95.22,1.9.31,2.85.09.95.17,1.9.21,2.86Z"/>
                <path class="cls-gorro-7" d="M.07,33.75c.94-.19,1.88-.34,2.83-.48.94-.15,1.89-.27,2.84-.39.95-.11,1.9-.22,2.85-.31l1.43-.13c.48-.03.95-.07,1.43-.09-.47.1-.94.17-1.41.26l-1.42.22c-.94.15-1.89.27-2.84.39-.95.11-1.9.22-2.85.31-.95.09-1.9.17-2.86.21Z"/>
              </g>
              <g class="cls-gorro-4">
                <path class="cls-gorro-16" d="M9.05,26.41c.16-.2.56-.21,1.12.05.56.26,1.27.83,1.88,1.76.62.92,1.11,2.2,1.2,3.71.1,1.5-.25,3.25-1.26,4.8-1.04,1.54-2.52,2.53-3.94,3.02-1.43.5-2.8.54-3.88.32-1.09-.21-1.89-.64-2.35-1.06-.46-.42-.6-.79-.48-1.02.27-.49,1.4-.32,2.91-.63,1.48-.26,3.47-1.13,4.55-2.76,1.08-1.63,1.11-3.8.78-5.27-.3-1.51-.89-2.49-.54-2.93Z"/>
              </g>
            </g>
          </g>
        </g>
        <g>
          <g>
            <path class="cls-gorro-12" d="M260.96,13.74l23.22-8.57-3.37,25.37s-15.86-4.92-19.86-16.8Z"/>
            <g class="cls-gorro-13">
              <g>
                <path class="cls-gorro-14" d="M282.31,8.45c.01-.15-.19-.74-1.49.13.64-.71,1.04-1.46.76-1.67-.28-.21-.9.36-1.43,1.16.51-1.47-.11-1.52-.25-1.47-.58.2-.35,1.78-.52,3.16,1.3-.52,2.88-.69,2.93-1.3Z"/>
                <path class="cls-gorro-14" d="M274.2,24.18c.02-.3-.38-1.47-2.97.26,1.27-1.42,2.07-2.92,1.52-3.34-.55-.43-1.8.72-2.85,2.31,1.02-2.95-.21-3.04-.5-2.94-1.17.39-.7,3.55-1.05,6.32,2.6-1.03,5.77-1.38,5.86-2.61Z"/>
                <path class="cls-gorro-14" d="M284.67,30.4c.02-.3-.38-1.47-2.97.26,1.27-1.42,2.07-2.92,1.52-3.34-.55-.43-1.8.72-2.85,2.31,1.02-2.95-.21-3.04-.5-2.94-1.17.39-.7,3.55-1.05,6.32,2.6-1.03,5.77-1.38,5.86-2.61Z"/>
                <path class="cls-gorro-14" d="M284.76,15.62c.02-.3-.38-1.47-2.97.26,1.27-1.42,2.07-2.92,1.52-3.34-.55-.43-1.8.72-2.85,2.31,1.02-2.95-.21-3.04-.5-2.94-1.17.39-.7,3.55-1.05,6.32,2.6-1.03,5.77-1.38,5.86-2.61Z"/>
                <path class="cls-gorro-14" d="M274.02,12.08c.02-.3-.38-1.47-2.97.26,1.27-1.42,2.07-2.92,1.52-3.34-.55-.43-1.8.72-2.85,2.31,1.02-2.95-.21-3.04-.5-2.94-1.17.39-.7,3.55-1.05,6.32,2.6-1.03,5.77-1.38,5.86-2.61Z"/>
                <path class="cls-gorro-14" d="M268.13,17.32c.01-.15-.19-.74-1.49.13.64-.71,1.04-1.46.76-1.67-.28-.21-.9.36-1.43,1.16.51-1.47-.11-1.52-.25-1.47-.58.2-.35,1.78-.52,3.16,1.3-.52,2.88-.69,2.93-1.3Z"/>
                <path class="cls-gorro-14" d="M280.27,23.42c.01-.15-.19-.74-1.49.13.64-.71,1.04-1.46.76-1.67-.28-.21-.9.36-1.43,1.16.51-1.47-.11-1.52-.25-1.47-.58.2-.35,1.78-.52,3.16,1.3-.52,2.88-.69,2.93-1.3Z"/>
                <path class="cls-gorro-14" d="M277.07,16.36c.01-.15-.19-.74-1.49.13.64-.71,1.04-1.46.76-1.67-.28-.21-.9.36-1.43,1.16.51-1.47-.11-1.52-.25-1.47-.58.2-.35,1.78-.52,3.16,1.3-.52,2.88-.69,2.93-1.3Z"/>
              </g>
              <g class="cls-gorro-11">
                <ellipse class="cls-gorro-2" cx="270.33" cy="9.59" rx="13.89" ry="2.42" transform="translate(10.59 85.13) rotate(-18.25)"/>
              </g>
              <g class="cls-gorro-5">
                <rect class="cls-gorro-15" x="263.32" y="9.69" width="39.47" height="8.96" transform="translate(209.86 287.97) rotate(-77.9)"/>
              </g>
            </g>
          </g>
          <g>
            <circle class="cls-gorro-14" cx="284.84" cy="3.6" r="3.6" transform="translate(23.01 115.8) rotate(-23.92)"/>
            <g class="cls-gorro-10">
              <g class="cls-gorro-3">
                <path class="cls-gorro-7" d="M282.5,6.42c.36-.49.73-.96,1.11-1.43.38-.47.76-.93,1.15-1.4.39-.46.79-.92,1.19-1.36l.61-.67c.21-.22.41-.44.63-.65-.18.25-.36.48-.54.73l-.56.71c-.38.47-.76.93-1.15,1.4-.39.46-.79.92-1.19,1.36-.4.45-.81.89-1.24,1.32Z"/>
                <path class="cls-gorro-7" d="M282.08,1.3c.49.36.96.73,1.43,1.11.47.38.93.76,1.4,1.15.46.39.92.79,1.36,1.19l.67.61c.22.21.44.41.65.63-.25-.18-.48-.36-.73-.54l-.71-.56c-.47-.38-.93-.76-1.4-1.15-.46-.39-.92-.79-1.36-1.19-.45-.4-.89-.81-1.32-1.24Z"/>
                <path class="cls-gorro-7" d="M281.25,3.94c.6-.1,1.2-.17,1.8-.23.6-.07,1.2-.12,1.8-.17.6-.05,1.2-.09,1.81-.12l.9-.04c.3,0,.6-.02.91-.02-.3.05-.6.09-.9.13l-.9.1c-.6.07-1.2.12-1.8.17-.6.05-1.2.09-1.81.12-.6.03-1.21.06-1.81.06Z"/>
                <path class="cls-gorro-7" d="M284.58.03c.1.6.17,1.2.23,1.8.07.6.12,1.2.17,1.8.05.6.09,1.2.12,1.81l.04.9c0,.3.02.6.02.91-.05-.3-.09-.6-.13-.9l-.1-.9c-.07-.6-.12-1.2-.17-1.8-.05-.6-.09-1.2-.12-1.81-.03-.6-.06-1.21-.06-1.81Z"/>
              </g>
              <g class="cls-gorro-4">
                <path class="cls-gorro-16" d="M288.98,5.89c.24.18,0,1.1-1.22,1.85-.6.37-1.42.64-2.37.66-.95.02-2.04-.24-3-.92-.94-.7-1.53-1.66-1.8-2.57-.28-.91-.27-1.78-.1-2.46.34-1.39,1.14-1.91,1.38-1.73.3.18.17.9.32,1.85.13.94.62,2.22,1.62,2.95,1,.72,2.37.8,3.3.63.96-.15,1.6-.5,1.86-.26Z"/>
              </g>
            </g>
          </g>
        </g>
        <g>
          <g>
            <path class="cls-gorro-12" d="M59.14,301.54l-13.76-20.58,25.46-2.65s-1.08,16.57-11.7,23.23Z"/>
            <g class="cls-gorro-1">
              <g>
                <path class="cls-gorro-14" d="M49.01,282.02c-.15.02-.67.36.47,1.42-.84-.45-1.66-.67-1.8-.35-.14.32.56.79,1.46,1.12-1.55-.15-1.45.46-1.37.59.33.52,1.81-.07,3.2-.23-.81-1.14-1.34-2.64-1.95-2.54Z"/>
                <path class="cls-gorro-14" d="M66.2,286.23c-.3.05-1.34.71.94,2.83-1.68-.91-3.32-1.33-3.61-.7-.29.64,1.12,1.58,2.92,2.23-3.1-.3-2.91.92-2.74,1.17.66,1.04,3.62-.15,6.39-.46-1.61-2.28-2.69-5.29-3.9-5.09Z"/>
                <path class="cls-gorro-14" d="M69.8,274.6c-.3.05-1.34.71.94,2.83-1.68-.91-3.32-1.33-3.61-.7-.29.64,1.12,1.58,2.92,2.23-3.1-.3-2.91.92-2.74,1.17.66,1.04,3.62-.15,6.39-.46-1.61-2.28-2.69-5.29-3.9-5.09Z"/>
                <path class="cls-gorro-14" d="M55.41,277.96c-.3.05-1.34.71.94,2.83-1.68-.91-3.32-1.33-3.61-.7-.29.64,1.12,1.58,2.92,2.23-3.1-.3-2.91.92-2.74,1.17.66,1.04,3.62-.15,6.39-.46-1.61-2.28-2.69-5.29-3.9-5.09Z"/>
                <path class="cls-gorro-14" d="M54.48,289.23c-.3.05-1.34.71.94,2.83-1.68-.91-3.32-1.33-3.61-.7-.29.64,1.12,1.58,2.92,2.23-3.1-.3-2.91.92-2.74,1.17.66,1.04,3.62-.15,6.39-.46-1.61-2.28-2.69-5.29-3.9-5.09Z"/>
                <path class="cls-gorro-14" d="M60.95,293.73c-.15.02-.67.36.47,1.42-.84-.45-1.66-.67-1.8-.35-.14.32.56.79,1.46,1.12-1.55-.15-1.45.46-1.37.59.33.52,1.81-.07,3.2-.23-.81-1.14-1.34-2.64-1.95-2.54Z"/>
                <path class="cls-gorro-14" d="M64.04,280.51c-.15.02-.67.36.47,1.42-.84-.45-1.66-.67-1.8-.35-.14.32.56.79,1.46,1.12-1.55-.15-1.45.46-1.37.59.33.52,1.81-.07,3.2-.23-.81-1.14-1.34-2.64-1.95-2.54Z"/>
                <path class="cls-gorro-14" d="M57.93,285.27c-.15.02-.67.36.47,1.42-.84-.45-1.66-.67-1.8-.35-.14.32.56.79,1.46,1.12-1.55-.15-1.45.46-1.37.59.33.52,1.81-.07,3.2-.23-.81-1.14-1.34-2.64-1.95-2.54Z"/>
              </g>
              <g class="cls-gorro-11">
                <path class="cls-gorro-2" d="M60.22,305.21c-1.14.7-5.33-4.02-9.37-10.54-4.04-6.52-6.39-12.38-5.25-13.09,1.14-.7,5.33,4.02,9.37,10.54s6.39,12.38,5.25,13.09Z"/>
              </g>
              <g class="cls-gorro-5">
                <rect class="cls-gorro-15" x="34.66" y="275.48" width="39.47" height="8.96" transform="translate(-6.82 1.41) rotate(-1.4)"/>
              </g>
            </g>
          </g>
          <g>
            <circle class="cls-gorro-14" cx="43.7" cy="280.69" r="3.6" transform="translate(-161.57 84.32) rotate(-37.42)"/>
            <g class="cls-gorro-9">
              <g class="cls-gorro-3">
                <path class="cls-gorro-7" d="M46.99,282.31c-.56-.23-1.11-.48-1.65-.74-.55-.25-1.09-.52-1.63-.79-.54-.28-1.07-.55-1.6-.84l-.79-.44c-.26-.15-.52-.3-.78-.46.28.11.55.24.83.36l.82.38c.55.25,1.09.52,1.63.8.54.28,1.07.55,1.6.84.53.29,1.06.58,1.58.9Z"/>
                <path class="cls-gorro-7" d="M42.11,283.91c.23-.56.48-1.11.74-1.65.25-.55.52-1.09.79-1.63.28-.54.55-1.07.84-1.6l.44-.79c.15-.26.3-.52.46-.78-.11.28-.24.55-.36.83l-.38.82c-.25.55-.52,1.09-.8,1.63-.28.54-.55,1.07-.84,1.6-.29.53-.58,1.06-.9,1.58Z"/>
                <path class="cls-gorro-7" d="M44.87,284.1c-.23-.56-.44-1.13-.65-1.69-.21-.57-.4-1.14-.59-1.71-.19-.57-.37-1.15-.54-1.73l-.25-.87c-.08-.29-.16-.58-.23-.88.12.28.22.56.33.84l.31.85c.21.57.4,1.14.59,1.71.18.57.37,1.15.54,1.73.17.58.34,1.16.48,1.75Z"/>
                <path class="cls-gorro-7" d="M40.29,281.78c.56-.23,1.13-.44,1.69-.65.57-.21,1.14-.4,1.71-.59.57-.19,1.15-.37,1.73-.54l.87-.25c.29-.08.58-.16.88-.23-.28.12-.56.22-.84.33l-.85.31c-.57.21-1.14.4-1.71.59-.57.18-1.15.37-1.73.54-.58.17-1.16.34-1.75.48Z"/>
              </g>
              <g class="cls-gorro-4">
                <path class="cls-gorro-16" d="M44.97,276.13c.12-.28,1.07-.26,2.08.75.5.49.95,1.23,1.2,2.15.24.91.24,2.04-.2,3.13-.46,1.08-1.26,1.88-2.08,2.35-.82.48-1.67.67-2.37.67-1.43,0-2.12-.66-2-.94.11-.34.83-.37,1.72-.75.89-.34,2.01-1.13,2.49-2.26.47-1.14.23-2.49-.16-3.36-.37-.9-.85-1.44-.69-1.75Z"/>
              </g>
            </g>
          </g>
        </g>
      </g>
    </g>
  </g>
</svg>