<?xml version="1.0" encoding="UTF-8"?>
<svg xmlns="http://www.w3.org/2000/svg" xmlns:xlink="http://www.w3.org/1999/xlink" viewBox="0 0 265.85 78.63">
  <defs>
    <style>
      .cls-rama-1 {
        clip-path: url(#clippath-rama-6);
      }

      .cls-rama-2 {
        clip-path: url(#clippath-rama-7);
      }

      .cls-rama-3 {
        clip-path: url(#clippath-rama-4);
      }

      .cls-rama-4 {
        mix-blend-mode: color-dodge;
      }

      .cls-rama-5 {
        fill: #fff;
      }

      .cls-rama-6 {
        fill: #08493a;
      }

      .cls-rama-7, .cls-rama-8, .cls-rama-9 {
        mix-blend-mode: color-burn;
      }

      .cls-rama-8 {
        opacity: .2;
      }

      .cls-rama-10 {
        clip-path: url(#clippath-rama-1);
      }

      .cls-rama-11 {
        mix-blend-mode: overlay;
      }

      .cls-rama-11, .cls-rama-9 {
        opacity: .5;
      }

      .cls-rama-12 {
        isolation: isolate;
      }

      .cls-rama-13 {
        clip-path: url(#clippath-rama-5);
      }

      .cls-rama-14 {
        fill: #234f17;
      }

      .cls-rama-15 {
        clip-path: url(#clippath-rama-3);
      }

      .cls-rama-16 {
        fill: #94cf4d;
      }

      .cls-rama-17 {
        clip-path: url(#clippath-rama-2);
      }

      .cls-rama-18 {
        fill: #88847d;
      }

      .cls-rama-19 {
        clip-path: url(#clippath-rama);
      }
    </style>
    <clipPath id="clippath-rama">
      <path class="cls-rama-16" d="M77.12,48.82s6.95,6.45,5.06,14.68c-1.88,8.23-11.89,15.13-11.89,15.13,0,0-6.01-10.56-4.12-18.79,1.88-8.23,10.95-11.01,10.95-11.01Z"/>
    </clipPath>
    <clipPath id="clippath-rama-1">
      <path class="cls-rama-16" d="M94.24,51.62s8.23-4.7,15.52-.44c7.29,4.26,10.88,15.87,10.88,15.87,0,0-11.88,2.57-19.17-1.69-7.29-4.26-7.23-13.74-7.23-13.74Z"/>
    </clipPath>
    <clipPath id="clippath-rama-2">
      <path class="cls-rama-16" d="M213.41,22.19s8.05,5.01,7.75,13.45c-.29,8.44-8.81,17.11-8.81,17.11,0,0-7.9-9.23-7.61-17.67.29-8.44,8.66-12.89,8.66-12.89Z"/>
    </clipPath>
    <clipPath id="clippath-rama-3">
      <path class="cls-rama-16" d="M25.39,15.83s.65,9.46-6.36,14.16c-7.01,4.71-19.02,2.88-19.02,2.88,0,0,2.86-11.81,9.87-16.52,7.01-4.71,15.52-.53,15.52-.53Z"/>
    </clipPath>
    <clipPath id="clippath-rama-4">
      <path class="cls-rama-16" d="M244.25,10.07s9.16-2.45,15.12,3.53c5.96,5.98,6.47,18.12,6.47,18.12,0,0-12.14-.54-18.1-6.52-5.96-5.98-3.49-15.13-3.49-15.13Z"/>
    </clipPath>
    <clipPath id="clippath-rama-5">
      <path class="cls-rama-16" d="M35.5,31.2s6.82,6.58,4.78,14.77c-2.04,8.19-12.18,14.89-12.18,14.89,0,0-5.8-10.68-3.76-18.87,2.04-8.19,11.16-10.8,11.16-10.8Z"/>
    </clipPath>
    <clipPath id="clippath-rama-6">
      <path class="cls-rama-16" d="M154.99,7.91s7.83,5.35,7.18,13.77c-.65,8.42-9.52,16.72-9.52,16.72,0,0-7.5-9.56-6.86-17.98.65-8.42,9.2-12.51,9.2-12.51Z"/>
    </clipPath>
    <clipPath id="clippath-rama-7">
      <path class="cls-rama-6" d="M16.72,8.52c7.24,17.4,20.87,32.05,38.28,39.59,17.71,7.67,37.67,7.3,55.05-1.17,8.5-4.15,16.07-10.28,21.85-17.76,5.44-7.04,11.24-18.77,21.05-20.16,7.83-1.11,15.18,4.82,21.26,8.88,7.11,4.74,14.47,8.56,23.03,9.82,18.88,2.79,38.42-5.1,48.93-21.25,3.14-4.82-4.65-9.19-7.78-4.38-8.13,12.49-23.52,18.62-38.1,17.08-7.71-.81-14.3-4.15-20.67-8.37-6.56-4.34-13.28-9.34-21.26-10.52-9.86-1.46-18.05,3.75-24.16,11.09-6,7.21-10.64,15.26-18.04,21.22-13.48,10.86-32.14,14.82-48.86,10.42-18.53-4.88-34.59-19.12-41.95-36.8-.93-2.22-2.91-3.85-5.46-3.17-2.08.56-4.1,3.22-3.17,5.46h0Z"/>
    </clipPath>
  </defs>
  <g class="cls-rama-12">
    <g id="Capa_2" data-name="Capa 2">
      <g id="Capa_1-2" data-name="Capa 1">
        <g>
          <g>
            <path class="cls-rama-16" d="M77.12,48.82s6.95,6.45,5.06,14.68c-1.88,8.23-11.89,15.13-11.89,15.13,0,0-6.01-10.56-4.12-18.79,1.88-8.23,10.95-11.01,10.95-11.01Z"/>
            <g class="cls-rama-19">
              <g class="cls-rama-7">
                <path class="cls-rama-18" d="M65.2,70.06c.07.14,1.92-.64,4.13-1.76,2.21-1.12,3.94-2.14,3.87-2.28s-1.92.64-4.13,1.76c-2.21,1.11-3.94,2.14-3.86,2.28Z"/>
                <path class="cls-rama-18" d="M75.21,58.73c-.14.07.93,2.5,2.4,5.42,1.47,2.92,2.78,5.23,2.92,5.16.14-.07-.93-2.5-2.4-5.42-1.47-2.92-2.78-5.23-2.92-5.16Z"/>
                <path class="cls-rama-18" d="M64.84,64.67c.04.15,2.14-.32,4.67-1.06,2.53-.74,4.55-1.46,4.51-1.62-.05-.15-2.14.32-4.67,1.06-2.53.74-4.55,1.46-4.51,1.62Z"/>
                <path class="cls-rama-18" d="M74.46,76.72c.15-.06-.26-1.35-.9-2.88-.65-1.53-1.29-2.71-1.44-2.65s.26,1.35.9,2.88c.65,1.53,1.29,2.71,1.44,2.65Z"/>
              </g>
              <path class="cls-rama-14" d="M77.18,48.76c-.35,2.6-.83,5.18-1.32,7.75-.48,2.57-1.05,5.13-1.62,7.68-.6,2.55-1.2,5.09-1.88,7.62l-1.03,3.79c-.39,1.25-.73,2.52-1.15,3.76.16-1.3.4-2.59.6-3.89l.72-3.86c.48-2.57,1.05-5.13,1.62-7.68.6-2.55,1.2-5.09,1.88-7.62.67-2.53,1.37-5.05,2.18-7.55Z"/>
              <g class="cls-rama-9">
                <ellipse class="cls-rama-18" cx="78.71" cy="55.92" rx="17.7" ry="2.79" transform="translate(-2.88 4.29) rotate(-3.07)"/>
              </g>
            </g>
          </g>
          <g>
            <path class="cls-rama-16" d="M94.24,51.62s8.23-4.7,15.52-.44c7.29,4.26,10.88,15.87,10.88,15.87,0,0-11.88,2.57-19.17-1.69-7.29-4.26-7.23-13.74-7.23-13.74Z"/>
            <g class="cls-rama-10">
              <g class="cls-rama-7">
                <path class="cls-rama-18" d="M110.94,69.35c.16-.03-.04-2.03-.44-4.46-.4-2.44-.86-4.4-1.02-4.37-.16.03.04,2.03.44,4.46.4,2.44.86,4.4,1.02,4.37Z"/>
                <path class="cls-rama-18" d="M103.12,56.41c.03.16,2.66-.14,5.89-.67,3.23-.53,5.82-1.08,5.8-1.24s-2.66.14-5.89.67c-3.23.53-5.82,1.08-5.8,1.24Z"/>
                <path class="cls-rama-18" d="M105.69,68.08c.16,0,.33-2.13.39-4.77.05-2.64-.03-4.78-.19-4.79s-.33,2.13-.39,4.77c-.05,2.64.03,4.78.19,4.79Z"/>
                <path class="cls-rama-18" d="M120.06,62.5c-.02-.16-1.37-.16-3.02,0-1.65.16-2.98.42-2.96.58.02.16,1.37.16,3.02,0,1.65-.16,2.98-.42,2.96-.58Z"/>
              </g>
              <path class="cls-rama-14" d="M94.2,51.55c2.38,1.11,4.69,2.34,7,3.58,2.31,1.23,4.58,2.54,6.84,3.84,2.25,1.33,4.5,2.66,6.71,4.07l3.31,2.12c1.08.74,2.18,1.45,3.25,2.22-1.2-.55-2.35-1.16-3.53-1.74l-3.47-1.84c-2.31-1.23-4.58-2.54-6.84-3.85-2.25-1.33-4.5-2.67-6.71-4.08-2.21-1.4-4.41-2.82-6.55-4.34Z"/>
              <g class="cls-rama-9">
                <path class="cls-rama-18" d="M113.4,45.68c.87,1.27-2.66,5.22-7.9,8.83-5.24,3.61-10.19,5.5-11.06,4.24-.87-1.27,2.66-5.22,7.9-8.83,5.24-3.61,10.19-5.5,11.06-4.24Z"/>
              </g>
            </g>
          </g>
          <g>
            <g>
              <path class="cls-rama-16" d="M213.41,22.19s8.05,5.01,7.75,13.45c-.29,8.44-8.81,17.11-8.81,17.11,0,0-7.9-9.23-7.61-17.67.29-8.44,8.66-12.89,8.66-12.89Z"/>
              <g class="cls-rama-17">
                <g class="cls-rama-7">
                  <path class="cls-rama-18" d="M205.73,45.3c.1.13,1.76-1,3.72-2.51,1.96-1.51,3.46-2.84,3.36-2.97-.1-.13-1.76,1-3.72,2.51-1.96,1.51-3.46,2.84-3.36,2.97Z"/>
                  <path class="cls-rama-18" d="M213.42,32.28c-.13.1,1.39,2.28,3.38,4.87,2,2.59,3.72,4.61,3.84,4.51.13-.1-1.39-2.28-3.38-4.87-2-2.59-3.72-4.61-3.84-4.51Z"/>
                  <path class="cls-rama-18" d="M204.36,40.08c.07.14,2.04-.72,4.39-1.92,2.35-1.21,4.19-2.3,4.12-2.44s-2.04.72-4.39,1.92c-2.35,1.21-4.19,2.3-4.12,2.44Z"/>
                  <path class="cls-rama-18" d="M216.09,50.08c.13-.09-.51-1.28-1.43-2.66-.93-1.38-1.78-2.42-1.92-2.33-.13.09.51,1.28,1.43,2.66.93,1.38,1.78,2.42,1.92,2.33Z"/>
                </g>
                <path class="cls-rama-14" d="M213.46,22.12c.15,2.62.17,5.24.17,7.86.02,2.62-.06,5.23-.14,7.85-.1,2.61-.21,5.23-.4,7.84l-.3,3.92c-.14,1.3-.24,2.61-.42,3.91-.09-1.31-.1-2.62-.15-3.93l-.03-3.93c-.01-2.62.06-5.23.14-7.85.1-2.61.21-5.23.41-7.84.18-2.61.38-5.22.71-7.83Z"/>
                <g class="cls-rama-9">
                  <path class="cls-rama-18" d="M228.06,26.25c.31,1.51-6.02,4.09-14.15,5.76-8.12,1.67-14.96,1.81-15.27.3-.31-1.51,6.02-4.09,14.15-5.76,8.12-1.67,14.96-1.81,15.27-.3Z"/>
                </g>
              </g>
            </g>
            <g>
              <path class="cls-rama-16" d="M25.39,15.83s.65,9.46-6.36,14.16c-7.01,4.71-19.02,2.88-19.02,2.88,0,0,2.86-11.81,9.87-16.52,7.01-4.71,15.52-.53,15.52-.53Z"/>
              <g class="cls-rama-15">
                <g class="cls-rama-7">
                  <path class="cls-rama-18" d="M2.15,23.13c-.05.15,1.84.85,4.21,1.54,2.37.7,4.33,1.14,4.38.99.05-.15-1.84-.85-4.21-1.55-2.37-.7-4.33-1.14-4.38-.99Z"/>
                  <path class="cls-rama-18" d="M17.21,21.74c-.15-.05-1.03,2.46-1.97,5.59-.93,3.14-1.56,5.71-1.41,5.76.15.05,1.03-2.46,1.97-5.59.93-3.13,1.56-5.71,1.41-5.76Z"/>
                  <path class="cls-rama-18" d="M5.59,18.96c-.07.14,1.78,1.23,4.13,2.43,2.35,1.2,4.32,2.05,4.39,1.91.07-.14-1.78-1.23-4.13-2.43-2.35-1.2-4.32-2.05-4.39-1.91Z"/>
                  <path class="cls-rama-18" d="M4.34,34.33c.15.06.74-1.16,1.31-2.72.57-1.56.92-2.86.77-2.92s-.74,1.16-1.31,2.72c-.57,1.56-.92,2.86-.77,2.92Z"/>
                </g>
                <path class="cls-rama-14" d="M25.47,15.82c-2.04,1.66-4.15,3.21-6.27,4.74-2.11,1.55-4.28,3.02-6.44,4.49-2.18,1.45-4.36,2.89-6.59,4.26l-3.35,2.05c-1.14.65-2.26,1.33-3.42,1.95,1.01-.84,2.07-1.61,3.1-2.42l3.17-2.32c2.11-1.54,4.28-3.02,6.44-4.48,2.18-1.45,4.36-2.89,6.59-4.26,2.22-1.38,4.46-2.75,6.76-4.01Z"/>
                <g class="cls-rama-9">
                  <path class="cls-rama-18" d="M23.46,38.13c-1.51.31-3.98-5.58-5.52-13.16-1.54-7.57-1.57-13.96-.06-14.27,1.51-.31,3.98,5.58,5.52,13.16,1.54,7.57,1.57,13.96.06,14.27Z"/>
                </g>
              </g>
            </g>
            <g>
              <path class="cls-rama-16" d="M244.25,10.07s9.16-2.45,15.12,3.53c5.96,5.98,6.47,18.12,6.47,18.12,0,0-12.14-.54-18.1-6.52-5.96-5.98-3.49-15.13-3.49-15.13Z"/>
              <g class="cls-rama-3">
                <g class="cls-rama-7">
                  <path class="cls-rama-18" d="M255.88,31.48c.16.02.48-1.97.71-4.43.23-2.46.29-4.47.13-4.49-.16-.02-.48,1.97-.71,4.43-.23,2.46-.29,4.47-.13,4.48Z"/>
                  <path class="cls-rama-18" d="M251.62,16.96c-.02.16,2.61.54,5.87.86,3.26.31,5.91.44,5.92.28.02-.16-2.61-.54-5.87-.86-3.26-.31-5.91-.44-5.92-.28Z"/>
                  <path class="cls-rama-18" d="M251.13,28.91c.15.04.87-1.98,1.59-4.52.72-2.54,1.19-4.63,1.03-4.68s-.87,1.98-1.59,4.52c-.72,2.54-1.19,4.63-1.03,4.68Z"/>
                  <path class="cls-rama-18" d="M266.45,27.18c.03-.16-1.28-.5-2.92-.77-1.64-.27-2.99-.35-3.01-.19-.03.16,1.28.5,2.92.77,1.64.27,2.99.35,3.01.19Z"/>
                </g>
                <path class="cls-rama-14" d="M244.23,10c2.02,1.68,3.94,3.46,5.86,5.24,1.92,1.78,3.78,3.62,5.64,5.46,1.84,1.86,3.68,3.72,5.45,5.65l2.66,2.89c.86.99,1.74,1.96,2.57,2.98-1.02-.83-1.98-1.72-2.97-2.58l-2.89-2.66c-1.92-1.78-3.78-3.62-5.64-5.46-1.84-1.86-3.67-3.73-5.45-5.65-1.78-1.92-3.55-3.85-5.23-5.87Z"/>
                <g class="cls-rama-9">
                  <path class="cls-rama-18" d="M258.72,5.02c1.03,1.14-1.77,5.34-6.25,9.37-4.48,4.03-8.95,6.37-9.98,5.23s1.77-5.34,6.25-9.37c4.48-4.03,8.95-6.37,9.98-5.23Z"/>
                </g>
              </g>
            </g>
            <g>
              <path class="cls-rama-16" d="M35.5,31.2s6.82,6.58,4.78,14.77c-2.04,8.19-12.18,14.89-12.18,14.89,0,0-5.8-10.68-3.76-18.87,2.04-8.19,11.16-10.8,11.16-10.8Z"/>
              <g class="cls-rama-13">
                <g class="cls-rama-7">
                  <path class="cls-rama-18" d="M23.16,52.2c.07.14,1.93-.61,4.16-1.68,2.23-1.07,3.98-2.06,3.91-2.2-.07-.14-1.93.61-4.16,1.68-2.23,1.07-3.98,2.06-3.91,2.2Z"/>
                  <path class="cls-rama-18" d="M33.4,41.06c-.15.07.88,2.52,2.29,5.47,1.41,2.95,2.67,5.29,2.82,5.22.15-.07-.88-2.52-2.29-5.47-1.41-2.95-2.67-5.29-2.82-5.22Z"/>
                  <path class="cls-rama-18" d="M22.91,46.81c.04.16,2.14-.28,4.69-.97,2.55-.69,4.58-1.37,4.54-1.53-.04-.16-2.14.28-4.69.97-2.55.69-4.58,1.37-4.54,1.53Z"/>
                  <path class="cls-rama-18" d="M32.3,59.04c.15-.06-.23-1.36-.85-2.9-.62-1.54-1.24-2.74-1.39-2.68s.23,1.36.85,2.9c.62,1.54,1.24,2.74,1.39,2.68Z"/>
                </g>
                <path class="cls-rama-14" d="M35.55,31.14c-.4,2.6-.93,5.16-1.47,7.72-.53,2.56-1.15,5.11-1.77,7.65-.65,2.54-1.29,5.07-2.03,7.58l-1.11,3.77c-.41,1.25-.78,2.5-1.22,3.74.19-1.3.45-2.58.68-3.88l.79-3.85c.53-2.56,1.15-5.11,1.77-7.65.65-2.53,1.29-5.07,2.03-7.58.72-2.52,1.46-5.03,2.33-7.51Z"/>
                <g class="cls-rama-9">
                  <path class="cls-rama-18" d="M48.17,39.87c-.03,1.52-5.59,2.63-12.32,1.66-6.74-.96-11.76-3.58-11.36-5.05.4-1.5,5.78-1.37,12.15-.47,6.37.92,11.57,2.31,11.53,3.86Z"/>
                </g>
              </g>
            </g>
            <g>
              <path class="cls-rama-16" d="M154.99,7.91s7.83,5.35,7.18,13.77c-.65,8.42-9.52,16.72-9.52,16.72,0,0-7.5-9.56-6.86-17.98.65-8.42,9.2-12.51,9.2-12.51Z"/>
              <g class="cls-rama-1">
                <g class="cls-rama-7">
                  <path class="cls-rama-18" d="M146.33,30.67c.09.13,1.8-.92,3.82-2.35,2.02-1.43,3.58-2.69,3.49-2.83s-1.8.92-3.82,2.35c-2.02,1.43-3.58,2.69-3.49,2.83Z"/>
                  <path class="cls-rama-18" d="M154.56,17.99c-.13.09,1.29,2.33,3.17,5.01,1.88,2.67,3.52,4.77,3.65,4.67.13-.09-1.29-2.33-3.17-5.01-1.88-2.67-3.52-4.76-3.65-4.67Z"/>
                  <path class="cls-rama-18" d="M145.19,25.4c.07.15,2.07-.63,4.46-1.74,2.4-1.11,4.29-2.12,4.22-2.27-.07-.15-2.07.63-4.46,1.74-2.4,1.11-4.29,2.12-4.22,2.27Z"/>
                  <path class="cls-rama-18" d="M156.48,35.89c.14-.08-.45-1.3-1.32-2.71-.87-1.41-1.68-2.49-1.82-2.41s.45,1.3,1.32,2.71c.87,1.41,1.68,2.49,1.82,2.41Z"/>
                </g>
                <path class="cls-rama-14" d="M155.03,7.84c.04,2.63-.05,5.24-.16,7.86-.1,2.62-.28,5.23-.47,7.84-.21,2.61-.43,5.21-.73,7.82l-.46,3.9c-.2,1.3-.35,2.6-.58,3.89-.03-1.31.01-2.62.02-3.93l.14-3.92c.1-2.62.28-5.23.47-7.84.21-2.61.43-5.21.74-7.81.29-2.6.6-5.2,1.04-7.79Z"/>
                <g class="cls-rama-9">
                  <path class="cls-rama-18" d="M169.06,12.29c.11,1.57-5.93,3.23-13.14,5.4-7.23,2.12-13.2,4.03-13.96,2.65-.35-.67.74-2.06,2.94-3.61,2.2-1.55,5.53-3.22,9.43-4.38,3.91-1.16,7.61-1.58,10.3-1.48,2.69.1,4.36.67,4.43,1.42Z"/>
                </g>
              </g>
            </g>
            <g>
              <path class="cls-rama-6" d="M16.72,8.52c7.24,17.4,20.87,32.05,38.28,39.59,17.71,7.67,37.67,7.3,55.05-1.17,8.5-4.15,16.07-10.28,21.85-17.76,5.44-7.04,11.24-18.77,21.05-20.16,7.83-1.11,15.18,4.82,21.26,8.88,7.11,4.74,14.47,8.56,23.03,9.82,18.88,2.79,38.42-5.1,48.93-21.25,3.14-4.82-4.65-9.19-7.78-4.38-8.13,12.49-23.52,18.62-38.1,17.08-7.71-.81-14.3-4.15-20.67-8.37-6.56-4.34-13.28-9.34-21.26-10.52-9.86-1.46-18.05,3.75-24.16,11.09-6,7.21-10.64,15.26-18.04,21.22-13.48,10.86-32.14,14.82-48.86,10.42-18.53-4.88-34.59-19.12-41.95-36.8-.93-2.22-2.91-3.85-5.46-3.17-2.08.56-4.1,3.22-3.17,5.46h0Z"/>
              <g class="cls-rama-2">
                <g class="cls-rama-4">
                  <g class="cls-rama-11">
                    <path class="cls-rama-5" d="M40.22,24.55c-.08-.05-.5.67-1.39,1.64-.88.96-2.3,2.15-4.14,2.89-1.84.75-3.68.88-4.99.81-1.31-.07-2.11-.3-2.14-.21-.02.06.75.43,2.1.62,1.34.19,3.29.12,5.24-.68,1.95-.79,3.41-2.1,4.24-3.16.84-1.07,1.14-1.88,1.08-1.9Z"/>
                  </g>
                  <g class="cls-rama-11">
                    <path class="cls-rama-5" d="M40.75,17.92c-.1-.04-.5.93-1.44,2.32-.93,1.39-2.46,3.16-4.56,4.61-2.1,1.45-4.3,2.26-5.93,2.63-1.63.38-2.69.42-2.68.52,0,.06,1.07.17,2.76-.12,1.69-.28,4-1.06,6.18-2.56,2.17-1.51,3.72-3.38,4.58-4.87.87-1.49,1.14-2.53,1.09-2.54Z"/>
                  </g>
                  <g class="cls-rama-11">
                    <path class="cls-rama-5" d="M58.96,32.67c-.1-.02-.36,1.12-1.09,2.84-.71,1.72-1.94,4.02-3.78,6.18-.92,1.08-1.9,2.02-2.86,2.79-.95.79-1.87,1.39-2.72,1.72-.85.35-1.6.39-2.1.33-.51-.06-.78-.18-.8-.14-.01.02.23.22.76.36.53.14,1.36.15,2.28-.17.93-.3,1.93-.9,2.92-1.69,1-.78,2.02-1.73,2.96-2.84,1.9-2.22,3.1-4.62,3.73-6.41.32-.9.51-1.65.61-2.17.1-.52.13-.81.09-.82Z"/>
                  </g>
                  <g class="cls-rama-11">
                    <path class="cls-rama-5" d="M60.57,36.77c-.1,0-.11.91-.39,2.34-.27,1.42-.88,3.35-2.02,5.24-1.15,1.89-2.57,3.33-3.71,4.23-1.13.91-1.94,1.34-1.89,1.43.02.06.9-.25,2.14-1.1,1.23-.84,2.77-2.29,3.96-4.25,1.18-1.97,1.76-4,1.93-5.48.18-1.49.04-2.41-.02-2.4Z"/>
                  </g>
                  <g class="cls-rama-11">
                    <path class="cls-rama-5" d="M64.69,38.56c-.1.02.09,1.07.08,2.76-.01,1.69-.33,4.04-1.29,6.44-.97,2.4-2.36,4.31-3.53,5.54-1.16,1.24-2.03,1.86-1.97,1.94.03.05.99-.46,2.26-1.65,1.27-1.18,2.77-3.13,3.77-5.61.99-2.48,1.26-4.93,1.16-6.66-.09-1.74-.43-2.77-.49-2.76Z"/>
                  </g>
                  <g class="cls-rama-11">
                    <path class="cls-rama-5" d="M87.93,42.61c-.09.04.31.83.64,2.18.34,1.34.54,3.29.09,5.36-.45,2.06-1.44,3.76-2.31,4.84-.86,1.09-1.55,1.65-1.49,1.72.04.05.82-.39,1.8-1.46.98-1.05,2.09-2.8,2.56-4.98.47-2.18.18-4.23-.27-5.59-.45-1.38-.98-2.11-1.04-2.07Z"/>
                  </g>
                  <g class="cls-rama-11">
                    <path class="cls-rama-5" d="M109.74,33.89c-.16.09,1.4,2.67,2.16,6.25.8,3.57.46,6.57.64,6.58.13.04.75-3.02-.07-6.71-.79-3.7-2.62-6.22-2.72-6.13Z"/>
                  </g>
                  <g class="cls-rama-11">
                    <path class="cls-rama-5" d="M117.58,30.16c-.16.08,1.35,2.88,2.17,6.67.85,3.78.64,6.96.82,6.96.07,0,.22-.78.25-2.07.03-1.29-.08-3.08-.5-5.01-.43-1.93-1.07-3.61-1.64-4.76-.57-1.16-1.03-1.81-1.09-1.78Z"/>
                  </g>
                  <g class="cls-rama-11">
                    <path class="cls-rama-5" d="M113.42,30.68c-.16.1,1.79,2.77,2.9,6.61,1.15,3.83.96,7.13,1.15,7.13.07,0,.21-.81.2-2.15,0-1.33-.21-3.19-.79-5.15-.58-1.96-1.41-3.63-2.13-4.75-.72-1.13-1.28-1.74-1.33-1.7Z"/>
                  </g>
                  <g class="cls-rama-11">
                    <path class="cls-rama-5" d="M126.17,14.89c-.05.08.87.65,2.1,1.83,1.23,1.17,2.73,3.05,3.67,5.47.94,2.42,1.11,4.81,1,6.51-.1,1.71-.4,2.74-.3,2.77.06.02.5-.98.71-2.73.22-1.73.12-4.24-.87-6.76-.98-2.52-2.6-4.43-3.94-5.56-1.34-1.14-2.35-1.58-2.37-1.53Z"/>
                  </g>
                  <g class="cls-rama-11">
                    <path class="cls-rama-5" d="M147.84.04c-.06.08.57.57,1.37,1.54.8.96,1.71,2.47,2.23,4.31.5,1.85.49,3.6.29,4.84-.19,1.24-.48,1.99-.39,2.02.05.03.48-.67.79-1.95.31-1.27.39-3.13-.14-5.07-.54-1.94-1.56-3.5-2.48-4.43-.92-.94-1.64-1.32-1.67-1.27Z"/>
                  </g>
                  <g class="cls-rama-11">
                    <path class="cls-rama-5" d="M155.82-1.32c-.08.06.39.76.87,2,.49,1.24.91,3.05.81,5.08-.11,2.03-.71,3.79-1.31,4.98-.6,1.19-1.14,1.84-1.07,1.9.04.04.7-.52,1.43-1.7.73-1.17,1.42-3.02,1.54-5.15.1-2.13-.41-4.03-1.01-5.27-.6-1.25-1.2-1.88-1.25-1.84Z"/>
                  </g>
                  <g class="cls-rama-11">
                    <path class="cls-rama-5" d="M180.63,8.58c-.1.02.13.86.1,2.22-.03,1.34-.42,3.24-1.59,4.92-1.18,1.68-2.83,2.69-4.09,3.18-1.26.5-2.13.56-2.12.66,0,.06.89.14,2.25-.27,1.35-.4,3.16-1.42,4.43-3.23,1.27-1.81,1.61-3.86,1.53-5.26-.07-1.42-.45-2.24-.51-2.21Z"/>
                  </g>
                  <g class="cls-rama-11">
                    <path class="cls-rama-5" d="M203.51,16.72c-.09.03.13.85.27,2.19.15,1.34.14,3.22-.31,5.23-.46,2.01-1.26,3.7-1.97,4.85-.71,1.15-1.26,1.8-1.19,1.86.04.05.71-.51,1.53-1.64.82-1.12,1.72-2.87,2.2-4.95.47-2.09.4-4.05.15-5.41-.25-1.37-.62-2.16-.68-2.14Z"/>
                  </g>
                  <g class="cls-rama-11">
                    <path class="cls-rama-5" d="M205.71,15.85c-.08.06.48.84,1.09,2.23.62,1.39,1.2,3.43,1.24,5.75.03,2.32-.5,4.38-1.08,5.78-.57,1.41-1.12,2.2-1.03,2.26.04.04.71-.68,1.41-2.09.7-1.4,1.32-3.54,1.29-5.95-.04-2.41-.72-4.53-1.45-5.92-.73-1.39-1.42-2.09-1.46-2.05Z"/>
                  </g>
                  <g class="cls-rama-11">
                    <path class="cls-rama-5" d="M210.93,15.18c-.06.08.77.71,1.81,1.98,1.04,1.26,2.24,3.25,2.78,5.69.54,2.44.28,4.75-.13,6.33-.41,1.59-.9,2.51-.81,2.56.05.03.68-.83,1.2-2.44.53-1.6.87-4.01.3-6.57-.56-2.56-1.88-4.6-3.03-5.83-1.16-1.25-2.08-1.77-2.12-1.71Z"/>
                  </g>
                </g>
                <g class="cls-rama-8">
                  <path class="cls-rama-18" d="M256.13-6.07c.26.1-.8,4.22-5.05,10.53-2.13,3.13-5.08,6.77-9.12,10.38-4.06,3.58-9.19,7.17-15.5,9.92-6.3,2.72-13.78,4.61-21.92,4.71-8.11.13-16.86-1.38-25.28-5.05-1.05-.45-2.08-.98-3.13-1.48-1.03-.54-2.05-1.12-3.08-1.68-.99-.63-2.02-1.25-3-1.89-.95-.65-1.9-1.31-2.86-1.97-1.88-1.31-3.73-2.56-5.62-3.59-1.89-1.05-3.82-1.77-5.71-2.04-1.88-.2-3.74.06-5.43.94-.85.42-1.68.99-2.46,1.68-.79.67-1.54,1.46-2.27,2.32-1.45,1.71-2.78,3.7-4.15,5.78-1.32,2.09-2.92,4.25-4.48,6.37-3.3,4.13-7.02,7.83-11,11.07-3.98,3.25-8.32,5.9-12.71,8.18-1.12.54-2.23,1.08-3.33,1.61-1.14.46-2.27.92-3.4,1.38-1.12.49-2.28.84-3.42,1.22-1.15.36-2.27.8-3.44,1.06-1.16.29-2.31.59-3.45.88-1.15.26-2.31.44-3.46.66l-1.72.31c-.58.07-1.15.13-1.73.19-1.15.12-2.28.27-3.42.36-9.1.58-17.87-.53-25.52-3.16-7.68-2.55-14.32-6.23-19.8-10.28-5.49-4.06-9.83-8.51-13.17-12.74-.88-1.02-1.61-2.1-2.33-3.13-.72-1.03-1.44-1.99-2-3-.59-.99-1.16-1.93-1.7-2.83-.51-.92-.93-1.83-1.36-2.67-.89-1.67-1.49-3.24-2.01-4.59-.26-.68-.51-1.3-.71-1.87-.17-.59-.32-1.12-.46-1.6-.53-1.91-.71-2.93-.53-2.99s.72.84,1.57,2.59c.21.44.44.93.7,1.47.29.53.6,1.1.94,1.72.67,1.25,1.4,2.7,2.41,4.23.49.77.96,1.61,1.52,2.46.58.83,1.2,1.7,1.84,2.6.61.93,1.36,1.81,2.11,2.75.76.93,1.51,1.93,2.41,2.86,3.42,3.86,7.74,7.9,13.08,11.54,5.33,3.64,11.68,6.89,18.9,9.08,7.2,2.27,15.3,3.11,23.72,2.45,1.05-.1,2.1-.26,3.16-.39l1.6-.2,1.59-.31c1.06-.22,2.13-.4,3.2-.65,1.06-.28,2.12-.57,3.19-.85,1.08-.25,2.11-.68,3.18-1.02,1.06-.36,2.13-.69,3.16-1.16,1.04-.43,2.09-.87,3.14-1.31,1.02-.5,2.05-1.01,3.08-1.52,4.06-2.15,8.05-4.62,11.72-7.63,3.66-3.01,7.07-6.41,10.1-10.2,1.43-1.97,2.85-3.85,4.21-5.99,1.39-2.1,2.82-4.26,4.57-6.31.87-1.02,1.81-2.02,2.9-2.93,1.06-.92,2.27-1.75,3.59-2.4,2.63-1.36,5.75-1.8,8.61-1.43,2.85.42,5.39,1.48,7.59,2.72,2.22,1.24,4.2,2.62,6.08,3.96.93.66,1.85,1.31,2.77,1.96.91.59,1.81,1.18,2.71,1.76.93.53,1.85,1.07,2.78,1.57.95.46,1.88.96,2.84,1.39,7.64,3.48,15.67,5.05,23.17,5.12,7.52.1,14.47-1.42,20.43-3.73,5.98-2.34,10.96-5.49,15-8.66,4.02-3.21,7.08-6.48,9.39-9.29,4.61-5.67,6.35-9.45,6.79-9.23Z"/>
                </g>
              </g>
            </g>
          </g>
        </g>
      </g>
    </g>
  </g>
</svg>