<?xml version="1.0" encoding="UTF-8"?>
<svg xmlns="http://www.w3.org/2000/svg" xmlns:xlink="http://www.w3.org/1999/xlink" viewBox="0 0 113.14 345.5">
  <defs>
    <style>
      .cls-palmera-1 {
        fill: #4aad7b;
      }

      .cls-palmera-2, .cls-palmera-3 {
        mix-blend-mode: color-burn;
      }

      .cls-palmera-4 {
        clip-path: url(#clippath-palmera-1);
      }

      .cls-palmera-5 {
        isolation: isolate;
      }

      .cls-palmera-6 {
        fill: #58942d;
      }

      .cls-palmera-3 {
        opacity: .3;
      }

      .cls-palmera-7 {
        fill: #88847d;
      }

      .cls-palmera-8 {
        clip-path: url(#clippath-palmera);
      }

      .cls-palmera-9 {
        opacity: .5;
      }
    </style>
    <clipPath id="clippath-palmera">
      <path class="cls-palmera-1" d="M71.94,345.5L61.52,59.95c0-.5-16.94,0-16.94,0v285.06s26.86.5,27.36.5Z"/>
    </clipPath>
    <clipPath id="clippath-palmera-1">
      <path class="cls-palmera-6" d="M112.53,15.74c-.41-.43-1.04-1.05-1.91-1.8-.87-.73-1.99-1.54-3.38-2.42-1.39-.81-3.06-1.71-5.02-2.44-3.9-1.5-9.03-2.58-15.06-2.21-2.99.22-6.23.73-9.53,1.81-3.3,1.07-6.73,2.58-10.02,4.74-3.3,2.15-6.35,4.78-8.98,7.71-1.21,1.35-2.33,2.77-3.35,4.22-.75-1.67-1.6-3.31-2.57-4.91-2.04-3.36-4.55-6.51-7.4-9.24-2.84-2.74-5.93-4.86-8.97-6.52-3.04-1.68-6.13-2.77-9.03-3.55C21.43-.32,16.2-.21,12.09.54c-2.06.35-3.87.93-5.38,1.47-1.53.6-2.78,1.2-3.77,1.75-.99.57-1.72,1.07-2.21,1.41-.49.35-.73.55-.73.55,0,0,.19.26.57.73.38.47.93,1.13,1.64,1.94.7.83,1.55,1.83,2.51,2.91.95,1.14,2.02,2.32,3.16,3.65,2.28,2.62,4.83,5.58,7.59,8.61,2.75,3.07,5.73,6.17,9.12,9.41,1.7,1.63,3.43,3.21,5.19,4.83,1.77,1.63,3.52,3.35,5.28,5.11.43.45.9.88,1.31,1.34.42.46.85.91,1.29,1.36.82.93,1.71,1.84,2.49,2.8.38.43.75.86,1.11,1.3-1.08-.54-2.21-1.02-3.37-1.43-3.01-1.06-6.29-1.66-9.64-1.68-3.34-.03-6.74.55-9.89,1.7-3.15,1.15-6.04,2.87-8.47,4.98-2.41,2.15-4.39,4.62-5.78,7.41-1.38,2.79-2.19,5.88-2.31,9.2,3.34-.34,6.19-.73,8.74-1.08,2.55-.35,4.82-.62,6.89-.78,4.13-.36,7.34-.34,10.72-.36,3.37,0,7.04.07,11.5.28,2.76.08,5.72.24,9.13.26.08.22.12.34.12.34,0,0,.09-.12.26-.34,1.08,0,2.2-.01,3.38-.05.19,0,.37.01.55.02.22.43.33.66.33.66,0,0,.13-.22.38-.64,4.49.08,8.22-.14,11.63-.24,4.46-.21,8.14-.28,11.5-.28,3.38.02,6.59,0,10.72.36,2.07.15,4.33.43,6.89.78,2.55.35,5.4.74,8.74,1.08-.12-3.32-.93-6.41-2.31-9.2-1.39-2.79-3.37-5.26-5.78-7.41-2.42-2.11-5.31-3.83-8.47-4.98-3.15-1.15-6.55-1.72-9.89-1.7-2.14.01-4.26.26-6.29.72.4-.29.82-.56,1.22-.85,2.06-1.41,4.1-2.77,6.14-4.05,2.04-1.27,4.03-2.51,6-3.79,3.94-2.55,7.43-5.05,10.71-7.56,3.27-2.47,6.33-4.9,9.05-7.06,1.36-1.1,2.63-2.06,3.78-3.01,1.14-.88,2.16-1.71,3.01-2.39.84-.66,1.51-1.22,1.97-1.6.46-.39.7-.61.7-.61,0,0-.2-.24-.61-.68Z"/>
    </clipPath>
  </defs>
  <g class="cls-palmera-5">
    <g id="Capa_2" data-name="Capa 2">
      <g id="Capa_1-2" data-name="Capa 1">
        <g>
          <g>
            <path class="cls-palmera-1" d="M71.94,345.5L61.52,59.95c0-.5-16.94,0-16.94,0v285.06s26.86.5,27.36.5Z"/>
            <g class="cls-palmera-8">
              <g class="cls-palmera-2">
                <g class="cls-palmera-9">
                  <path class="cls-palmera-7" d="M72.57,82.28c.24.16-.71,2.21-2.99,5.04-1.13,1.42-2.63,2.99-4.43,4.59-1.82,1.57-3.95,3.15-6.35,4.57-2.41,1.39-4.83,2.47-7.1,3.29-2.27.78-4.38,1.32-6.17,1.61-3.58.59-5.84.42-5.86.13-.03-.35,2.13-.76,5.49-1.73,1.68-.48,3.64-1.15,5.77-2.01,2.12-.89,4.39-1.97,6.68-3.3,2.28-1.35,4.34-2.8,6.15-4.21,1.79-1.44,3.34-2.81,4.58-4.05,2.49-2.45,3.91-4.13,4.2-3.93Z"/>
                </g>
                <g class="cls-palmera-9">
                  <path class="cls-palmera-7" d="M81.29,118.07c.15.23-1.65,1.75-5.12,3.29-.87.38-1.82.77-2.89,1.09-1.05.38-2.21.63-3.43.93-2.46.49-5.21.81-8.11.77-2.9-.07-5.64-.48-8.08-1.07-1.21-.34-2.36-.64-3.4-1.05-1.05-.36-2-.79-2.85-1.2-3.4-1.66-5.14-3.25-4.99-3.48.19-.31,2.22.76,5.62,1.96.85.3,1.78.62,2.81.88,1.01.32,2.12.53,3.27.8,2.33.44,4.92.77,7.65.83,2.73.03,5.33-.2,7.68-.55,1.16-.22,2.28-.39,3.3-.67,1.04-.22,1.98-.51,2.84-.78,3.45-1.08,5.51-2.07,5.69-1.75Z"/>
                </g>
                <g class="cls-palmera-9">
                  <path class="cls-palmera-7" d="M75.93,136.56c.22.19-1.05,2.12-3.69,4.72-1.31,1.31-3,2.73-4.98,4.19-2,1.43-4.29,2.86-6.82,4.14-2.54,1.26-5.06,2.24-7.4,2.98-2.35.71-4.5,1.21-6.33,1.48-3.66.56-5.96.42-5.99.13-.1-.71,8.92-1.71,18.68-6.67,9.82-4.84,16.02-11.46,16.53-10.96Z"/>
                </g>
                <g class="cls-palmera-9">
                  <path class="cls-palmera-7" d="M84.62,179.18c.17.2-1.85,2.38-6.04,4.59-4.14,2.21-10.66,4.22-17.98,3.7-7.31-.52-13.48-3.44-17.27-6.22-3.84-2.79-5.53-5.23-5.33-5.4.26-.27,2.34,1.72,6.23,4.03,3.85,2.31,9.71,4.79,16.53,5.28,6.82.49,12.98-1.13,17.11-2.87,4.18-1.73,6.52-3.4,6.74-3.1Z"/>
                </g>
                <g class="cls-palmera-9">
                  <path class="cls-palmera-7" d="M79.87,187c.23.13-.78,2.62-3.47,6.01-.34.42-.7.85-1.08,1.31-.38.45-.83.87-1.26,1.33-.86.94-1.9,1.81-2.98,2.76-2.22,1.8-4.85,3.57-7.81,5.06-2.97,1.45-5.97,2.47-8.75,3.15-1.4.29-2.73.59-4,.71-.63.07-1.24.17-1.83.2-.59.02-1.15.05-1.69.07-4.32.09-6.93-.61-6.89-.88.04-.37,2.65-.27,6.77-.77.51-.07,1.05-.14,1.61-.21.56-.08,1.13-.22,1.73-.32,1.2-.19,2.45-.55,3.77-.88,2.61-.76,5.43-1.79,8.25-3.16,2.8-1.41,5.32-3.04,7.51-4.66,1.06-.85,2.1-1.63,2.98-2.47.45-.41.9-.78,1.3-1.18.4-.4.78-.79,1.14-1.15,2.88-2.97,4.38-5.12,4.7-4.92Z"/>
                </g>
                <g class="cls-palmera-9">
                  <path class="cls-palmera-7" d="M87.74,228.22c.2.18-1.61,2.67-5.56,5.61-3.91,2.93-10.17,6.12-17.69,7.2-7.52,1.08-14.42-.23-19-1.95-4.62-1.71-7.05-3.59-6.91-3.82.17-.33,2.85,1.01,7.41,2.25,4.53,1.26,11.08,2.23,18.17,1.21,7.09-1.01,13.1-3.78,17.1-6.26,4.03-2.47,6.22-4.51,6.48-4.24Z"/>
                </g>
              </g>
              <g class="cls-palmera-3">
                <ellipse class="cls-palmera-7" cx="68.15" cy="68.73" rx="27.17" ry="5.1" transform="translate(-1.57 1.6) rotate(-1.33)"/>
              </g>
            </g>
          </g>
          <g>
            <path class="cls-palmera-6" d="M112.53,15.74c-.41-.43-1.04-1.05-1.91-1.8-.87-.73-1.99-1.54-3.38-2.42-1.39-.81-3.06-1.71-5.02-2.44-3.9-1.5-9.03-2.58-15.06-2.21-2.99.22-6.23.73-9.53,1.81-3.3,1.07-6.73,2.58-10.02,4.74-3.3,2.15-6.35,4.78-8.98,7.71-1.21,1.35-2.33,2.77-3.35,4.22-.75-1.67-1.6-3.31-2.57-4.91-2.04-3.36-4.55-6.51-7.4-9.24-2.84-2.74-5.93-4.86-8.97-6.52-3.04-1.68-6.13-2.77-9.03-3.55C21.43-.32,16.2-.21,12.09.54c-2.06.35-3.87.93-5.38,1.47-1.53.6-2.78,1.2-3.77,1.75-.99.57-1.72,1.07-2.21,1.41-.49.35-.73.55-.73.55,0,0,.19.26.57.73.38.47.93,1.13,1.64,1.94.7.83,1.55,1.83,2.51,2.91.95,1.14,2.02,2.32,3.16,3.65,2.28,2.62,4.83,5.58,7.59,8.61,2.75,3.07,5.73,6.17,9.12,9.41,1.7,1.63,3.43,3.21,5.19,4.83,1.77,1.63,3.52,3.35,5.28,5.11.43.45.9.88,1.31,1.34.42.46.85.91,1.29,1.36.82.93,1.71,1.84,2.49,2.8.38.43.75.86,1.11,1.3-1.08-.54-2.21-1.02-3.37-1.43-3.01-1.06-6.29-1.66-9.64-1.68-3.34-.03-6.74.55-9.89,1.7-3.15,1.15-6.04,2.87-8.47,4.98-2.41,2.15-4.39,4.62-5.78,7.41-1.38,2.79-2.19,5.88-2.31,9.2,3.34-.34,6.19-.73,8.74-1.08,2.55-.35,4.82-.62,6.89-.78,4.13-.36,7.34-.34,10.72-.36,3.37,0,7.04.07,11.5.28,2.76.08,5.72.24,9.13.26.08.22.12.34.12.34,0,0,.09-.12.26-.34,1.08,0,2.2-.01,3.38-.05.19,0,.37.01.55.02.22.43.33.66.33.66,0,0,.13-.22.38-.64,4.49.08,8.22-.14,11.63-.24,4.46-.21,8.14-.28,11.5-.28,3.38.02,6.59,0,10.72.36,2.07.15,4.33.43,6.89.78,2.55.35,5.4.74,8.74,1.08-.12-3.32-.93-6.41-2.31-9.2-1.39-2.79-3.37-5.26-5.78-7.41-2.42-2.11-5.31-3.83-8.47-4.98-3.15-1.15-6.55-1.72-9.89-1.7-2.14.01-4.26.26-6.29.72.4-.29.82-.56,1.22-.85,2.06-1.41,4.1-2.77,6.14-4.05,2.04-1.27,4.03-2.51,6-3.79,3.94-2.55,7.43-5.05,10.71-7.56,3.27-2.47,6.33-4.9,9.05-7.06,1.36-1.1,2.63-2.06,3.78-3.01,1.14-.88,2.16-1.71,3.01-2.39.84-.66,1.51-1.22,1.97-1.6.46-.39.7-.61.7-.61,0,0-.2-.24-.61-.68Z"/>
            <g class="cls-palmera-4">
              <g class="cls-palmera-2">
                <path class="cls-palmera-7" d="M51.8,73.02s.01-.31,0-.89c0-.58-.02-1.45-.03-2.56,0-.55-.02-1.17-.03-1.85,0-.67.06-1.41.1-2.19.1-1.57.11-3.37.39-5.34.11-.99.23-2.02.35-3.09.13-1.07.37-2.18.57-3.33.35-2.31.99-4.72,1.61-7.27,1.41-5.05,3.35-10.49,5.98-15.95,2.69-5.43,5.79-10.31,8.9-14.53,1.63-2.06,3.13-4.05,4.74-5.74.79-.86,1.51-1.73,2.27-2.49.77-.76,1.51-1.49,2.22-2.18,1.38-1.43,2.79-2.55,3.97-3.59.6-.51,1.14-1.01,1.67-1.43.54-.41,1.03-.78,1.47-1.11.88-.67,1.57-1.2,2.03-1.55.46-.36.7-.56.7-.56,0,0-.26.17-.73.51-.47.35-1.17.85-2.07,1.51-.45.33-.94.7-1.49,1.1-.53.42-1.08.91-1.69,1.41-1.19,1.03-2.61,2.14-4,3.57-.71.69-1.46,1.42-2.24,2.18-.77.76-1.5,1.63-2.29,2.49-1.62,1.69-3.13,3.68-4.77,5.74-3.13,4.22-6.25,9.11-8.94,14.56-2.63,5.47-4.57,10.94-5.97,16-.61,2.56-1.25,4.97-1.59,7.29-.19,1.15-.43,2.26-.55,3.34-.12,1.08-.23,2.11-.34,3.1-.27,1.97-.27,3.77-.35,5.35-.03.79-.08,1.52-.08,2.2.02.68.04,1.29.05,1.85.03,1.11.06,1.97.08,2.56.02.58.05.89.05.89Z"/>
                <path class="cls-palmera-7" d="M55.15,71.44s.13-.15.35-.46c.22-.31.55-.77.97-1.36.21-.3.44-.62.7-.98.26-.35.58-.71.9-1.11.66-.79,1.36-1.73,2.27-2.65.44-.47.91-.97,1.39-1.48.49-.51,1.05-.99,1.6-1.51,1.08-1.07,2.37-2.06,3.7-3.14,2.73-2.06,5.9-4.1,9.44-5.85,3.56-1.71,7.13-2.94,10.43-3.82,1.67-.38,3.24-.78,4.76-.97.75-.11,1.47-.26,2.18-.32.7-.06,1.38-.12,2.02-.18,1.29-.15,2.46-.12,3.49-.15.51,0,.99-.03,1.43-.02.44.02.84.04,1.2.06.72.03,1.29.06,1.67.07.38.01.58,0,.58,0,0,0-.2-.03-.58-.06-.38-.03-.94-.07-1.67-.12-.36-.02-.76-.05-1.21-.08-.44-.02-.92,0-1.44,0-1.03.02-2.21-.03-3.5.12-.65.05-1.33.11-2.03.16-.71.06-1.43.2-2.19.31-1.52.18-3.1.58-4.78.95-3.32.87-6.91,2.1-10.49,3.81-3.56,1.76-6.74,3.82-9.47,5.89-1.33,1.09-2.62,2.09-3.7,3.18-.55.53-1.11,1.01-1.59,1.53-.48.52-.94,1.02-1.38,1.5-.91.93-1.6,1.88-2.25,2.68-.32.41-.63.77-.89,1.13-.25.37-.47.7-.68,1-.4.6-.72,1.07-.93,1.39-.21.32-.31.49-.31.49Z"/>
                <path class="cls-palmera-7" d="M119.78,8.44s-1.35.19-3.76.68c-2.41.49-5.88,1.36-10.04,2.8-8.31,2.83-19.42,8.42-29.29,17.63-9.88,9.2-16.23,19.91-19.63,28-1.73,4.05-2.83,7.45-3.49,9.82-.66,2.37-.94,3.71-.94,3.71,0,0,.1-.33.27-.95.18-.62.39-1.55.76-2.73.68-2.36,1.82-5.74,3.56-9.78,3.44-8.05,9.79-18.7,19.63-27.88,9.83-9.18,20.9-14.78,29.17-17.64,4.15-1.46,7.6-2.35,10-2.87,1.2-.29,2.14-.43,2.77-.57.64-.13.97-.21.97-.21Z"/>
                <path class="cls-palmera-7" d="M106.32,55.35s-2.85-.19-7.45.14c-2.3.15-5.03.51-8.02,1.05-2.99.59-6.25,1.39-9.59,2.49-3.34,1.12-6.43,2.43-9.17,3.76-2.73,1.36-5.12,2.71-7.05,3.97-3.88,2.49-6.05,4.36-6.05,4.36,0,0,.15-.09.43-.29.27-.2.68-.49,1.2-.87.52-.39,1.15-.85,1.92-1.35.76-.5,1.61-1.11,2.6-1.69,1.94-1.23,4.34-2.56,7.06-3.91,2.74-1.31,5.82-2.61,9.15-3.73,3.33-1.1,6.58-1.9,9.55-2.5,2.99-.56,5.7-.93,7.99-1.11,1.14-.13,2.18-.15,3.1-.2.91-.06,1.7-.07,2.34-.07.64-.01,1.14-.02,1.48-.02.34,0,.52-.03.52-.03Z"/>
                <path class="cls-palmera-7" d="M111.96,63.64s-2.54-.6-6.73-.95c-2.1-.18-4.6-.24-7.38-.15-2.78.13-5.83.44-8.99,1.01-3.16.6-6.11,1.42-8.75,2.3-2.63.91-4.95,1.87-6.83,2.8-3.79,1.84-5.94,3.32-5.94,3.32,0,0,.15-.07.42-.22.27-.15.67-.37,1.18-.66.51-.3,1.13-.65,1.88-1.02.74-.37,1.57-.84,2.54-1.25,1.89-.9,4.21-1.84,6.83-2.74,2.63-.86,5.58-1.67,8.72-2.27,3.15-.57,6.18-.89,8.95-1.03,2.77-.11,5.27-.07,7.36.09,1.05.04,1.99.17,2.82.25.83.07,1.54.18,2.12.27.58.08,1.03.15,1.34.19.31.04.47.05.47.05Z"/>
                <path class="cls-palmera-7" d="M135.56,18.27s-.36.04-1.06.15c-.69.11-1.71.28-3.02.49-2.62.43-6.41,1.07-11.07,1.99-4.65.94-10.19,2.15-16.19,4.02-6,1.85-12.46,4.42-18.73,8.1-3.11,1.86-6.03,3.88-8.71,6.01-2.65,2.16-5.12,4.36-7.29,6.64-4.39,4.51-7.72,9.13-10.22,13.16-2.49,4.05-4.14,7.54-5.17,9.98-1.01,2.46-1.49,3.85-1.49,3.85,0,0,.15-.34.41-.98.28-.64.62-1.62,1.17-2.82,1.06-2.43,2.73-5.9,5.23-9.93,2.51-4.01,5.86-8.61,10.24-13.09,2.17-2.26,4.63-4.45,7.27-6.61,2.67-2.12,5.58-4.12,8.69-5.98,6.24-3.66,12.68-6.23,18.67-8.09,5.98-1.88,11.51-3.1,16.15-4.07,4.65-.94,8.43-1.6,11.05-2.07,1.31-.23,2.32-.41,3.01-.54.69-.12,1.05-.2,1.05-.2Z"/>
                <path class="cls-palmera-7" d="M49.84,81.95s0-.35,0-1.01c-.02-.66-.02-1.63-.08-2.89-.09-2.5-.31-6.13-.79-10.59-.96-8.9-3.17-21.18-7.68-34.11-2.22-6.47-4.78-12.51-7.85-17.6-3.04-5.1-6.61-9.18-10.07-12.05C19.91.84,16.65-.88,14.33-1.81c-2.33-.94-3.7-1.22-3.7-1.22,0,0,.33.12.96.31.63.2,1.55.51,2.7,1.01,2.3.96,5.53,2.69,8.95,5.58,3.43,2.87,6.96,6.94,9.98,12.03,3.05,5.08,5.59,11.1,7.81,17.56,4.5,12.92,6.74,25.16,7.74,34.05.51,4.45.75,8.07.88,10.57.05,1.25.1,2.22.13,2.88.03.66.06,1,.06,1Z"/>
                <path class="cls-palmera-7" d="M36.37-8.26s.09.27.29.79c.2.51.5,1.26.88,2.23.39.97.86,2.15,1.35,3.55.5,1.39,1.11,2.96,1.68,4.74.6,1.76,1.24,3.7,1.85,5.8.66,2.09,1.25,4.35,1.89,6.73,1.21,4.77,2.38,10.06,3.31,15.67.91,5.61,1.5,11,1.87,15.91.15,2.46.32,4.79.36,6.98.09,2.19.1,4.23.1,6.09.03,1.86-.05,3.55-.07,5.03-.02,1.48-.08,2.75-.15,3.79-.05,1.04-.09,1.85-.12,2.4-.02.55-.02.84-.02.84,0,0,.48-4.59.55-12.05.01-1.86.02-3.91-.07-6.1-.03-2.19-.19-4.53-.33-6.99-.36-4.92-.95-10.31-1.85-15.93-.94-5.61-2.11-10.91-3.34-15.69-.65-2.38-1.25-4.64-1.92-6.73-.62-2.1-1.28-4.04-1.89-5.8-2.45-7.04-4.37-11.24-4.37-11.24Z"/>
                <path class="cls-palmera-7" d="M72.64,2.52s-1.99,2.03-4.79,5.67c-1.4,1.82-2.96,4.06-4.58,6.64-1.59,2.59-3.21,5.51-4.72,8.67-1.48,3.18-2.7,6.29-3.68,9.16-.95,2.88-1.69,5.52-2.2,7.76-1.03,4.48-1.32,7.31-1.32,7.31,0,0,.05-.17.11-.5.06-.33.15-.82.27-1.45.11-.63.25-1.4.45-2.29.2-.89.38-1.91.68-3.02.53-2.23,1.28-4.85,2.24-7.72.99-2.86,2.21-5.96,3.69-9.13,1.5-3.16,3.11-6.07,4.68-8.66,1.6-2.57,3.14-4.82,4.52-6.65.67-.93,1.33-1.73,1.89-2.45.56-.72,1.06-1.32,1.48-1.81.41-.49.73-.87.95-1.13.21-.26.32-.41.32-.41Z"/>
                <path class="cls-palmera-7" d="M-6.59-6.25s.24.23.71.66c.47.43,1.17,1.05,2.07,1.86C-2.01-2.12.6.22,3.77,3.16c6.32,5.88,14.99,14.17,23.1,24.6,4.03,5.22,7.48,10.49,10.23,15.5,2.75,5.01,4.82,9.74,6.25,13.81,1.44,4.07,2.33,7.46,2.84,9.83.29,1.17.42,2.11.56,2.73.12.62.2.95.2.95,0,0-.18-1.33-.66-3.7-.48-2.37-1.34-5.78-2.76-9.87-1.41-4.09-3.47-8.84-6.21-13.87-2.74-5.03-6.2-10.31-10.23-15.55C18.96,17.15,10.25,8.87,3.9,3.02.71.1-1.92-2.22-3.74-3.81c-.91-.79-1.62-1.41-2.11-1.82-.48-.41-.75-.62-.75-.62Z"/>
                <path class="cls-palmera-7" d="M24.83,39.83s.08.11.25.3c.17.19.42.47.75.83.66.71,1.59,1.78,2.69,3.13,2.21,2.69,5.02,6.61,7.54,11.29,2.51,4.69,4.22,9.2,5.25,12.52.51,1.66.89,3.02,1.12,3.97.12.47.22.84.28,1.09.07.25.11.38.12.38,0,0-.01-.14-.06-.39-.05-.25-.13-.62-.23-1.1-.2-.96-.55-2.32-1.04-4-.98-3.35-2.67-7.89-5.19-12.6-2.53-4.7-5.38-8.62-7.63-11.29-1.12-1.34-2.07-2.39-2.76-3.08-.34-.35-.61-.62-.79-.8-.18-.18-.28-.27-.29-.27Z"/>
                <path class="cls-palmera-7" d="M9.58,42.06s.12.09.37.24c.25.15.61.36,1.08.64.48.27,1.05.61,1.7,1.04.65.42,1.41.88,2.19,1.46,1.61,1.1,3.44,2.54,5.38,4.24,1.92,1.73,3.92,3.73,5.85,6,1.91,2.28,3.55,4.6,4.93,6.78,1.35,2.2,2.46,4.24,3.27,6.02.44.87.76,1.7,1.07,2.41.32.71.55,1.33.74,1.85.19.51.35.91.45,1.18.11.27.16.41.17.4,0,0-.64-2.34-2.26-5.91-.8-1.79-1.89-3.85-3.23-6.07-1.37-2.19-3.02-4.53-4.94-6.82-1.94-2.28-3.96-4.29-5.89-6.01-1.96-1.7-3.81-3.12-5.44-4.21-3.25-2.19-5.45-3.22-5.45-3.22Z"/>
                <path class="cls-palmera-7" d="M-6.41,57.71s.14.03.4.06c.26.03.65.07,1.16.13,1,.1,2.45.29,4.23.59,3.56.58,8.43,1.7,13.59,3.62,5.16,1.93,9.58,4.27,12.65,6.16,1.54.94,2.76,1.74,3.58,2.33.42.28.74.51.96.66.22.15.34.22.35.21,0,0-.1-.1-.31-.26-.21-.16-.53-.39-.93-.7-.81-.61-2.02-1.43-3.54-2.4-3.05-1.94-7.48-4.32-12.65-6.25-5.18-1.92-10.08-3.02-13.66-3.55-1.79-.27-3.24-.44-4.25-.5-.5-.04-.9-.06-1.16-.08-.27-.02-.41-.02-.41-.01Z"/>
                <path class="cls-palmera-7" d="M2.86,45.42s.11.09.33.23c.22.14.55.35.98.61.85.52,2.08,1.29,3.57,2.27,2.99,1.96,7.04,4.8,11.25,8.26,4.21,3.47,7.79,6.88,10.29,9.43,1.25,1.28,2.25,2.33,2.92,3.06.34.36.61.65.79.84.18.19.28.29.29.28s-.08-.11-.25-.32c-.17-.2-.43-.49-.75-.87-.65-.76-1.63-1.83-2.87-3.12-2.47-2.59-6.04-6.04-10.26-9.51-4.23-3.47-8.3-6.3-11.32-8.21-1.51-.96-2.75-1.71-3.62-2.2-.44-.25-.77-.44-1-.57-.23-.13-.35-.19-.36-.18Z"/>
                <path class="cls-palmera-7" d="M-3.25,65.7s.08.02.25.05c.16.02.4.04.71.08.62.06,1.51.16,2.6.3,2.19.28,5.21.79,8.48,1.63,3.27.85,6.15,1.87,8.21,2.69,1.03.41,1.85.75,2.42,1,.29.12.51.21.66.28.15.06.23.09.24.08,0,0-.07-.05-.21-.13-.15-.07-.36-.18-.64-.32-.55-.28-1.37-.65-2.39-1.08-2.04-.87-4.93-1.92-8.21-2.77-3.28-.85-6.32-1.33-8.52-1.56-1.1-.12-2-.19-2.62-.21-.31-.01-.55-.02-.71-.03-.16,0-.25,0-.25,0Z"/>
              </g>
            </g>
          </g>
        </g>
      </g>
    </g>
  </g>
</svg>